<?xml version="1.0" encoding="UTF-8" standalone="no"?>
<!DOCTYPE svg PUBLIC "-//W3C//DTD SVG 1.1//EN"
 "http://www.w3.org/Graphics/SVG/1.1/DTD/svg11.dtd">
<!-- Generated by graphviz version 2.44.0 (0)
 -->
<!-- Title: Battery.h Pages: 1 -->
<svg width="376pt" height="84pt"
 viewBox="0.00 0.00 375.50 84.00" xmlns="http://www.w3.org/2000/svg" xmlns:xlink="http://www.w3.org/1999/xlink">
<g id="graph0" class="graph" transform="scale(1 1) rotate(0) translate(4 80)">
<title>Battery.h</title>
<polygon fill="white" stroke="transparent" points="-4,4 -4,-80 371.5,-80 371.5,4 -4,4"/>
<!-- Node1 -->
<g id="node1" class="node">
<title>Node1</title>
<g id="a_node1"><a xlink:title=" ">
<polygon fill="#bfbfbf" stroke="black" points="128.5,-56.5 128.5,-75.5 184.5,-75.5 184.5,-56.5 128.5,-56.5"/>
<text text-anchor="middle" x="156.5" y="-63.5" font-family="Helvetica" font-size="10.00">Battery.h</text>
</a>
</g>
</g>
<!-- Node2 -->
<g id="node2" class="node">
<title>Node2</title>
<g id="a_node2"><a xlink:href="Battery_8cpp.html" target="_top" xlink:title=" ">
<polygon fill="white" stroke="black" points="0,-0.5 0,-19.5 67,-19.5 67,-0.5 0,-0.5"/>
<text text-anchor="middle" x="33.5" y="-7.5" font-family="Helvetica" font-size="10.00">Battery.cpp</text>
</a>
</g>
</g>
<!-- Node1&#45;&gt;Node2 -->
<g id="edge1" class="edge">
<title>Node1&#45;&gt;Node2</title>
<path fill="none" stroke="midnightblue" d="M127.73,-52.37C104.69,-42.26 73.02,-28.35 52.9,-19.52"/>
<polygon fill="midnightblue" stroke="midnightblue" points="126.45,-55.63 137.01,-56.44 129.26,-49.22 126.45,-55.63"/>
</g>
<!-- Node3 -->
<g id="node3" class="node">
<title>Node3</title>
<g id="a_node3"><a xlink:href="main_8cpp.html" target="_top" xlink:title=" ">
<polygon fill="white" stroke="black" points="85.5,-0.5 85.5,-19.5 141.5,-19.5 141.5,-0.5 85.5,-0.5"/>
<text text-anchor="middle" x="113.5" y="-7.5" font-family="Helvetica" font-size="10.00">main.cpp</text>
</a>
</g>
</g>
<!-- Node1&#45;&gt;Node3 -->
<g id="edge2" class="edge">
<title>Node1&#45;&gt;Node3</title>
<path fill="none" stroke="midnightblue" d="M143.08,-48.14C135.59,-38.74 126.56,-27.4 120.47,-19.75"/>
<polygon fill="midnightblue" stroke="midnightblue" points="140.43,-50.44 149.4,-56.08 145.91,-46.08 140.43,-50.44"/>
</g>
<!-- Node4 -->
<g id="node4" class="node">
<title>Node4</title>
<g id="a_node4"><a xlink:href="Test__MNA_8cpp.html" target="_top" xlink:title=" ">
<polygon fill="white" stroke="black" points="160,-0.5 160,-19.5 241,-19.5 241,-0.5 160,-0.5"/>
<text text-anchor="middle" x="200.5" y="-7.5" font-family="Helvetica" font-size="10.00">Test_MNA.cpp</text>
</a>
</g>
</g>
<!-- Node1&#45;&gt;Node4 -->
<g id="edge3" class="edge">
<title>Node1&#45;&gt;Node4</title>
<path fill="none" stroke="midnightblue" d="M170.23,-48.14C177.9,-38.74 187.13,-27.4 193.37,-19.75"/>
<polygon fill="midnightblue" stroke="midnightblue" points="167.37,-46.12 163.77,-56.08 172.8,-50.54 167.37,-46.12"/>
</g>
<!-- Node5 -->
<g id="node5" class="node">
<title>Node5</title>
<g id="a_node5"><a xlink:href="Test__MNACircuit_8cpp.html" target="_top" xlink:title=" ">
<polygon fill="white" stroke="black" points="259.5,-0.5 259.5,-19.5 367.5,-19.5 367.5,-0.5 259.5,-0.5"/>
<text text-anchor="middle" x="313.5" y="-7.5" font-family="Helvetica" font-size="10.00">Test_MNACircuit.cpp</text>
</a>
</g>
</g>
<!-- Node1&#45;&gt;Node5 -->
<g id="edge4" class="edge">
<title>Node1&#45;&gt;Node5</title>
<path fill="none" stroke="midnightblue" d="M190.89,-53.17C220.45,-43 262.37,-28.59 288.74,-19.52"/>
<polygon fill="midnightblue" stroke="midnightblue" points="189.7,-49.88 181.38,-56.44 191.97,-56.5 189.7,-49.88"/>
</g>
</g>
</svg>
