<?xml version="1.0" encoding="UTF-8" standalone="no"?>
<!DOCTYPE svg PUBLIC "-//W3C//DTD SVG 1.1//EN"
 "http://www.w3.org/Graphics/SVG/1.1/DTD/svg11.dtd">
<!-- Generated by graphviz version 2.44.0 (0)
 -->
<!-- Title: MNACircuit::getEquations Pages: 1 -->
<svg width="481pt" height="110pt"
 viewBox="0.00 0.00 481.00 109.50" xmlns="http://www.w3.org/2000/svg" xmlns:xlink="http://www.w3.org/1999/xlink">
<g id="graph0" class="graph" transform="scale(1 1) rotate(0) translate(4 105.5)">
<title>MNACircuit::getEquations</title>
<polygon fill="white" stroke="transparent" points="-4,4 -4,-105.5 477,-105.5 477,4 -4,4"/>
<!-- Node1 -->
<g id="node1" class="node">
<title>Node1</title>
<g id="a_node1"><a xlink:title=" ">
<polygon fill="#bfbfbf" stroke="black" points="0,-44 0,-63 129,-63 129,-44 0,-44"/>
<text text-anchor="middle" x="64.5" y="-51" font-family="Helvetica" font-size="10.00">MNACircuit::getEquations</text>
</a>
</g>
</g>
<!-- Node2 -->
<g id="node2" class="node">
<title>Node2</title>
<g id="a_node2"><a xlink:href="classMNACircuit.html#a0c428345a8f2639aae79a4f920025a3b" target="_top" xlink:title=" ">
<polygon fill="white" stroke="black" points="173,-82 173,-101 296,-101 296,-82 173,-82"/>
<text text-anchor="middle" x="234.5" y="-89" font-family="Helvetica" font-size="10.00">MNACircuit::getCurrents</text>
</a>
</g>
</g>
<!-- Node1&#45;&gt;Node2 -->
<g id="edge1" class="edge">
<title>Node1&#45;&gt;Node2</title>
<path fill="none" stroke="midnightblue" d="M107.89,-63.09C130.26,-68.15 157.9,-74.4 181.55,-79.75"/>
<polygon fill="midnightblue" stroke="midnightblue" points="180.89,-83.19 191.41,-81.98 182.43,-76.36 180.89,-83.19"/>
</g>
<!-- Node3 -->
<g id="node3" class="node">
<title>Node3</title>
<g id="a_node3"><a xlink:href="classMNACircuit.html#a0b2b5f872f522f246bb04958a86a43c5" target="_top" xlink:title=" ">
<polygon fill="white" stroke="black" points="165,-44 165,-63 304,-63 304,-44 165,-44"/>
<text text-anchor="middle" x="234.5" y="-51" font-family="Helvetica" font-size="10.00">MNACircuit::getCurrentTotal</text>
</a>
</g>
</g>
<!-- Node1&#45;&gt;Node3 -->
<g id="edge2" class="edge">
<title>Node1&#45;&gt;Node3</title>
<path fill="none" stroke="midnightblue" d="M129.01,-53.5C137.43,-53.5 146.14,-53.5 154.77,-53.5"/>
<polygon fill="midnightblue" stroke="midnightblue" points="154.85,-57 164.85,-53.5 154.85,-50 154.85,-57"/>
</g>
<!-- Node4 -->
<g id="node4" class="node">
<title>Node4</title>
<g id="a_node4"><a xlink:href="classMNACircuit.html#a566e94feafb7c4de6f0fd1b351681559" target="_top" xlink:title=" ">
<polygon fill="white" stroke="black" points="170,-6 170,-25 299,-25 299,-6 170,-6"/>
<text text-anchor="middle" x="234.5" y="-13" font-family="Helvetica" font-size="10.00">MNACircuit::getRefNodes</text>
</a>
</g>
</g>
<!-- Node1&#45;&gt;Node4 -->
<g id="edge3" class="edge">
<title>Node1&#45;&gt;Node4</title>
<path fill="none" stroke="midnightblue" d="M107.89,-43.91C130.26,-38.85 157.9,-32.6 181.55,-27.25"/>
<polygon fill="midnightblue" stroke="midnightblue" points="182.43,-30.64 191.41,-25.02 180.89,-23.81 182.43,-30.64"/>
</g>
<!-- Node5 -->
<g id="node5" class="node">
<title>Node5</title>
<g id="a_node5"><a xlink:href="classMNACircuit.html#a33ec8e37f240fd8ebc09f34597bd6100" target="_top" xlink:title=" ">
<polygon fill="white" stroke="black" points="340,-0.5 340,-30.5 473,-30.5 473,-0.5 340,-0.5"/>
<text text-anchor="start" x="348" y="-18.5" font-family="Helvetica" font-size="10.00">MNACircuit::getConnected</text>
<text text-anchor="middle" x="406.5" y="-7.5" font-family="Helvetica" font-size="10.00">Nodes</text>
</a>
</g>
</g>
<!-- Node4&#45;&gt;Node5 -->
<g id="edge4" class="edge">
<title>Node4&#45;&gt;Node5</title>
<path fill="none" stroke="midnightblue" d="M299.29,-15.5C309.25,-15.5 319.63,-15.5 329.82,-15.5"/>
<polygon fill="midnightblue" stroke="midnightblue" points="329.94,-19 339.94,-15.5 329.94,-12 329.94,-19"/>
</g>
</g>
</svg>
