<?xml version="1.0" encoding="UTF-8" standalone="no"?>
<!DOCTYPE svg PUBLIC "-//W3C//DTD SVG 1.1//EN"
 "http://www.w3.org/Graphics/SVG/1.1/DTD/svg11.dtd">
<!-- Generated by graphviz version 2.44.0 (0)
 -->
<!-- Title: MNAComponent Pages: 1 -->
<svg width="227pt" height="84pt"
 viewBox="0.00 0.00 227.00 84.00" xmlns="http://www.w3.org/2000/svg" xmlns:xlink="http://www.w3.org/1999/xlink">
<g id="graph0" class="graph" transform="scale(1 1) rotate(0) translate(4 80)">
<title>MNAComponent</title>
<polygon fill="white" stroke="transparent" points="-4,4 -4,-80 223,-80 223,4 -4,4"/>
<!-- Node1 -->
<g id="node1" class="node">
<title>Node1</title>
<g id="a_node1"><a xlink:title=" ">
<polygon fill="#bfbfbf" stroke="black" points="70.5,-56.5 70.5,-75.5 144.5,-75.5 144.5,-56.5 70.5,-56.5"/>
<text text-anchor="middle" x="107.5" y="-63.5" font-family="Helvetica" font-size="10.00">MNAComponent</text>
</a>
</g>
</g>
<!-- Node2 -->
<g id="node2" class="node">
<title>Node2</title>
<g id="a_node2"><a xlink:href="classBattery.html" target="_top" xlink:title=" ">
<polygon fill="white" stroke="black" points="0,-0.5 0,-19.5 49,-19.5 49,-0.5 0,-0.5"/>
<text text-anchor="middle" x="24.5" y="-7.5" font-family="Helvetica" font-size="10.00">Battery</text>
</a>
</g>
</g>
<!-- Node1&#45;&gt;Node2 -->
<g id="edge1" class="edge">
<title>Node1&#45;&gt;Node2</title>
<path fill="none" stroke="midnightblue" d="M85.4,-50.62C70.24,-40.76 50.62,-27.99 37.8,-19.65"/>
<polygon fill="midnightblue" stroke="midnightblue" points="83.87,-53.8 94.16,-56.32 87.69,-47.94 83.87,-53.8"/>
</g>
<!-- Node3 -->
<g id="node3" class="node">
<title>Node3</title>
<g id="a_node3"><a xlink:href="classCurrentSource.html" target="_top" xlink:title=" ">
<polygon fill="white" stroke="black" points="67.5,-0.5 67.5,-19.5 147.5,-19.5 147.5,-0.5 67.5,-0.5"/>
<text text-anchor="middle" x="107.5" y="-7.5" font-family="Helvetica" font-size="10.00">CurrentSource</text>
</a>
</g>
</g>
<!-- Node1&#45;&gt;Node3 -->
<g id="edge2" class="edge">
<title>Node1&#45;&gt;Node3</title>
<path fill="none" stroke="midnightblue" d="M107.5,-45.8C107.5,-36.91 107.5,-26.78 107.5,-19.75"/>
<polygon fill="midnightblue" stroke="midnightblue" points="104,-46.08 107.5,-56.08 111,-46.08 104,-46.08"/>
</g>
<!-- Node4 -->
<g id="node4" class="node">
<title>Node4</title>
<g id="a_node4"><a xlink:href="classResistor.html" target="_top" xlink:title=" ">
<polygon fill="white" stroke="black" points="166,-0.5 166,-19.5 219,-19.5 219,-0.5 166,-0.5"/>
<text text-anchor="middle" x="192.5" y="-7.5" font-family="Helvetica" font-size="10.00">Resistor</text>
</a>
</g>
</g>
<!-- Node1&#45;&gt;Node4 -->
<g id="edge3" class="edge">
<title>Node1&#45;&gt;Node4</title>
<path fill="none" stroke="midnightblue" d="M129.69,-50.9C145.28,-41 165.63,-28.07 178.88,-19.65"/>
<polygon fill="midnightblue" stroke="midnightblue" points="127.72,-48.01 121.16,-56.32 131.47,-53.92 127.72,-48.01"/>
</g>
</g>
</svg>
