<?xml version="1.0" encoding="UTF-8" standalone="no"?>
<!DOCTYPE svg PUBLIC "-//W3C//DTD SVG 1.1//EN"
 "http://www.w3.org/Graphics/SVG/1.1/DTD/svg11.dtd">
<!-- Generated by graphviz version 2.44.0 (0)
 -->
<!-- Title: Unknown Pages: 1 -->
<svg width="206pt" height="84pt"
 viewBox="0.00 0.00 206.00 84.00" xmlns="http://www.w3.org/2000/svg" xmlns:xlink="http://www.w3.org/1999/xlink">
<g id="graph0" class="graph" transform="scale(1 1) rotate(0) translate(4 80)">
<title>Unknown</title>
<polygon fill="white" stroke="transparent" points="-4,4 -4,-80 202,-80 202,4 -4,4"/>
<!-- Node1 -->
<g id="node1" class="node">
<title>Node1</title>
<g id="a_node1"><a xlink:title=" ">
<polygon fill="#bfbfbf" stroke="black" points="70,-56.5 70,-75.5 128,-75.5 128,-56.5 70,-56.5"/>
<text text-anchor="middle" x="99" y="-63.5" font-family="Helvetica" font-size="10.00">Unknown</text>
</a>
</g>
</g>
<!-- Node2 -->
<g id="node2" class="node">
<title>Node2</title>
<g id="a_node2"><a xlink:href="classUnknownCurrent.html" target="_top" xlink:title=" ">
<polygon fill="white" stroke="black" points="0,-0.5 0,-19.5 90,-19.5 90,-0.5 0,-0.5"/>
<text text-anchor="middle" x="45" y="-7.5" font-family="Helvetica" font-size="10.00">UnknownCurrent</text>
</a>
</g>
</g>
<!-- Node1&#45;&gt;Node2 -->
<g id="edge1" class="edge">
<title>Node1&#45;&gt;Node2</title>
<path fill="none" stroke="midnightblue" d="M83,-49C73.43,-39.43 61.64,-27.64 53.75,-19.75"/>
<polygon fill="midnightblue" stroke="midnightblue" points="80.54,-51.49 90.08,-56.08 85.49,-46.54 80.54,-51.49"/>
</g>
<!-- Node3 -->
<g id="node3" class="node">
<title>Node3</title>
<g id="a_node3"><a xlink:href="classUnknownVoltage.html" target="_top" xlink:title=" ">
<polygon fill="white" stroke="black" points="108,-0.5 108,-19.5 198,-19.5 198,-0.5 108,-0.5"/>
<text text-anchor="middle" x="153" y="-7.5" font-family="Helvetica" font-size="10.00">UnknownVoltage</text>
</a>
</g>
</g>
<!-- Node1&#45;&gt;Node3 -->
<g id="edge2" class="edge">
<title>Node1&#45;&gt;Node3</title>
<path fill="none" stroke="midnightblue" d="M115,-49C124.57,-39.43 136.36,-27.64 144.25,-19.75"/>
<polygon fill="midnightblue" stroke="midnightblue" points="112.51,-46.54 107.92,-56.08 117.46,-51.49 112.51,-46.54"/>
</g>
</g>
</svg>
