<?xml version="1.0" encoding="UTF-8" standalone="no"?>
<!DOCTYPE svg PUBLIC "-//W3C//DTD SVG 1.1//EN"
 "http://www.w3.org/Graphics/SVG/1.1/DTD/svg11.dtd">
<!-- Generated by graphviz version 2.44.0 (0)
 -->
<!-- Title: MNACircuit::getConnectedNodes Pages: 1 -->
<svg width="602pt" height="39pt"
 viewBox="0.00 0.00 602.00 39.00" xmlns="http://www.w3.org/2000/svg" xmlns:xlink="http://www.w3.org/1999/xlink">
<g id="graph0" class="graph" transform="scale(1 1) rotate(0) translate(4 35)">
<title>MNACircuit::getConnectedNodes</title>
<polygon fill="white" stroke="transparent" points="-4,4 -4,-35 598,-35 598,4 -4,4"/>
<!-- Node1 -->
<g id="node1" class="node">
<title>Node1</title>
<g id="a_node1"><a xlink:title=" ">
<polygon fill="#bfbfbf" stroke="black" points="461,-0.5 461,-30.5 594,-30.5 594,-0.5 461,-0.5"/>
<text text-anchor="start" x="469" y="-18.5" font-family="Helvetica" font-size="10.00">MNACircuit::getConnected</text>
<text text-anchor="middle" x="527.5" y="-7.5" font-family="Helvetica" font-size="10.00">Nodes</text>
</a>
</g>
</g>
<!-- Node2 -->
<g id="node2" class="node">
<title>Node2</title>
<g id="a_node2"><a xlink:href="classMNACircuit.html#a566e94feafb7c4de6f0fd1b351681559" target="_top" xlink:title=" ">
<polygon fill="white" stroke="black" points="296,-6 296,-25 425,-25 425,-6 296,-6"/>
<text text-anchor="middle" x="360.5" y="-13" font-family="Helvetica" font-size="10.00">MNACircuit::getRefNodes</text>
</a>
</g>
</g>
<!-- Node1&#45;&gt;Node2 -->
<g id="edge1" class="edge">
<title>Node1&#45;&gt;Node2</title>
<path fill="none" stroke="midnightblue" d="M450.79,-15.5C442.19,-15.5 433.5,-15.5 425.08,-15.5"/>
<polygon fill="midnightblue" stroke="midnightblue" points="450.81,-19 460.81,-15.5 450.81,-12 450.81,-19"/>
</g>
<!-- Node3 -->
<g id="node3" class="node">
<title>Node3</title>
<g id="a_node3"><a xlink:href="classMNACircuit.html#af8f863ec843b9397a756068d57c663d9" target="_top" xlink:title=" ">
<polygon fill="white" stroke="black" points="131,-6 131,-25 260,-25 260,-6 131,-6"/>
<text text-anchor="middle" x="195.5" y="-13" font-family="Helvetica" font-size="10.00">MNACircuit::getEquations</text>
</a>
</g>
</g>
<!-- Node2&#45;&gt;Node3 -->
<g id="edge2" class="edge">
<title>Node2&#45;&gt;Node3</title>
<path fill="none" stroke="midnightblue" d="M285.31,-15.5C276.86,-15.5 268.3,-15.5 260,-15.5"/>
<polygon fill="midnightblue" stroke="midnightblue" points="285.55,-19 295.55,-15.5 285.55,-12 285.55,-19"/>
</g>
<!-- Node4 -->
<g id="node4" class="node">
<title>Node4</title>
<g id="a_node4"><a xlink:href="classMNACircuit.html#a627e83c432583f7a52b233691785bfdd" target="_top" xlink:title="Function that solves the circuit usinglinear algebra and matrices.">
<polygon fill="white" stroke="black" points="0,-6 0,-25 95,-25 95,-6 0,-6"/>
<text text-anchor="middle" x="47.5" y="-13" font-family="Helvetica" font-size="10.00">MNACircuit::solve</text>
</a>
</g>
</g>
<!-- Node3&#45;&gt;Node4 -->
<g id="edge3" class="edge">
<title>Node3&#45;&gt;Node4</title>
<path fill="none" stroke="midnightblue" d="M120.72,-15.5C112.04,-15.5 103.38,-15.5 95.22,-15.5"/>
<polygon fill="midnightblue" stroke="midnightblue" points="120.89,-19 130.89,-15.5 120.89,-12 120.89,-19"/>
</g>
</g>
</svg>
