<?xml version="1.0" encoding="UTF-8" standalone="no"?>
<!DOCTYPE svg PUBLIC "-//W3C//DTD SVG 1.1//EN"
 "http://www.w3.org/Graphics/SVG/1.1/DTD/svg11.dtd">
<!-- Generated by graphviz version 2.44.0 (0)
 -->
<!-- Title: MNACircuit::solve Pages: 1 -->
<!--zoomable 161 -->
<svg id="main" version="1.1" xmlns="http://www.w3.org/2000/svg" xmlns:xlink="http://www.w3.org/1999/xlink" xml:space="preserve" onload="init(evt)">
<style type="text/css"><![CDATA[
.edge:hover path { stroke: red; }
.edge:hover polygon { stroke: red; fill: red; }
]]></style>
<script type="text/javascript"><![CDATA[
var edges = document.getElementsByTagName('g');
if (edges && edges.length) {
  for (var i=0;i<edges.length;i++) {
    if (edges[i].id.substr(0,4)=='edge') {
      edges[i].setAttribute('class','edge');
    }
  }
}
]]></script>
        <defs>
                <circle id="rim" cx="0" cy="0" r="7"/>
                <circle id="rim2" cx="0" cy="0" r="3.5"/>
                <g id="zoomPlus">
                        <use xlink:href="#rim" fill="#404040">
                                <set attributeName="fill" to="#808080" begin="zoomplus.mouseover" end="zoomplus.mouseout"/>
                        </use>
                        <path d="M-4,0h8M0,-4v8" fill="none" stroke="white" stroke-width="1.5" pointer-events="none"/>
                </g>
                <g id="zoomMin">
                        <use xlink:href="#rim" fill="#404040">
                                <set attributeName="fill" to="#808080" begin="zoomminus.mouseover" end="zoomminus.mouseout"/>
                        </use>
                        <path d="M-4,0h8" fill="none" stroke="white" stroke-width="1.5" pointer-events="none"/>
                </g>
                <g id="dirArrow">
                        <path fill="none" stroke="white" stroke-width="1.5" d="M0,-3.0v7 M-2.5,-0.5L0,-3.0L2.5,-0.5"/>
                </g>
               <g id="resetDef">
                       <use xlink:href="#rim2" fill="#404040">
                               <set attributeName="fill" to="#808080" begin="reset.mouseover" end="reset.mouseout"/>
                       </use>
               </g>
        </defs>

<script type="text/javascript">
var viewWidth = 656;
var viewHeight = 161;
var sectionId = 'dynsection-12';
</script>
<script xlink:href="svgpan.js"/>
<svg id="graph" class="graph">
<g id="viewport">
<title>MNACircuit::solve</title>
<polygon fill="white" stroke="transparent" points="-4,4 -4,-157 652,-157 652,4 -4,4"/>
<!-- Node1 -->
<g id="node1" class="node">
<title>Node1</title>
<g id="a_node1"><a xlink:title="Function that solves the circuit usinglinear algebra and matrices.">
<polygon fill="#bfbfbf" stroke="black" points="0,-57.5 0,-76.5 95,-76.5 95,-57.5 0,-57.5"/>
<text text-anchor="middle" x="47.5" y="-64.5" font-family="Helvetica" font-size="10.00">MNACircuit::solve</text>
</a>
</g>
</g>
<!-- Node2 -->
<g id="node2" class="node">
<title>Node2</title>
<g id="a_node2"><a xlink:href="classMNACircuit.html#a2cddea8817753b147ca0f345b99d3546" target="_top" xlink:title=" ">
<polygon fill="white" stroke="black" points="140,-114.5 140,-133.5 286,-133.5 286,-114.5 140,-114.5"/>
<text text-anchor="middle" x="213" y="-121.5" font-family="Helvetica" font-size="10.00">MNACircuit::getElementIndex</text>
</a>
</g>
</g>
<!-- Node1&#45;&gt;Node2 -->
<g id="edge1" class="edge">
<title>Node1&#45;&gt;Node2</title>
<path fill="none" stroke="midnightblue" d="M66.42,-76.53C82.84,-84.96 108.03,-97.11 131,-105 138.4,-107.54 146.29,-109.86 154.13,-111.93"/>
<polygon fill="midnightblue" stroke="midnightblue" points="153.45,-115.37 164,-114.42 155.16,-108.58 153.45,-115.37"/>
</g>
<!-- Node3 -->
<g id="node3" class="node">
<title>Node3</title>
<g id="a_node3"><a xlink:href="classMNACircuit.html#af8f863ec843b9397a756068d57c663d9" target="_top" xlink:title=" ">
<polygon fill="white" stroke="black" points="148.5,-76.5 148.5,-95.5 277.5,-95.5 277.5,-76.5 148.5,-76.5"/>
<text text-anchor="middle" x="213" y="-83.5" font-family="Helvetica" font-size="10.00">MNACircuit::getEquations</text>
</a>
</g>
</g>
<!-- Node1&#45;&gt;Node3 -->
<g id="edge2" class="edge">
<title>Node1&#45;&gt;Node3</title>
<path fill="none" stroke="midnightblue" d="M95.35,-72.44C108.77,-74 123.73,-75.74 138.34,-77.44"/>
<polygon fill="midnightblue" stroke="midnightblue" points="138.04,-80.93 148.38,-78.61 138.85,-73.98 138.04,-80.93"/>
</g>
<!-- Node8 -->
<g id="node8" class="node">
<title>Node8</title>
<g id="a_node8"><a xlink:href="classMNACircuit.html#a918d9438917a3ac5d38b5e5c6b7de538" target="_top" xlink:title=" ">
<polygon fill="white" stroke="black" points="149.5,-38.5 149.5,-57.5 276.5,-57.5 276.5,-38.5 149.5,-38.5"/>
<text text-anchor="middle" x="213" y="-45.5" font-family="Helvetica" font-size="10.00">MNACircuit::getNumVars</text>
</a>
</g>
</g>
<!-- Node1&#45;&gt;Node8 -->
<g id="edge7" class="edge">
<title>Node1&#45;&gt;Node8</title>
<path fill="none" stroke="midnightblue" d="M95.35,-61.56C109,-59.97 124.24,-58.2 139.1,-56.47"/>
<polygon fill="midnightblue" stroke="midnightblue" points="139.76,-59.92 149.29,-55.29 138.95,-52.97 139.76,-59.92"/>
</g>
<!-- Node10 -->
<g id="node10" class="node">
<title>Node10</title>
<g id="a_node10"><a xlink:href="classMNACircuit.html#a4882de567c3a465b993269dd6143b13a" target="_top" xlink:title=" ">
<polygon fill="white" stroke="black" points="131,-0.5 131,-19.5 295,-19.5 295,-0.5 131,-0.5"/>
<text text-anchor="middle" x="213" y="-7.5" font-family="Helvetica" font-size="10.00">MNACircuit::getUnknownCurrents</text>
</a>
</g>
</g>
<!-- Node1&#45;&gt;Node10 -->
<g id="edge9" class="edge">
<title>Node1&#45;&gt;Node10</title>
<path fill="none" stroke="midnightblue" d="M66.42,-57.47C82.84,-49.04 108.03,-36.89 131,-29 138.4,-26.46 146.29,-24.14 154.13,-22.07"/>
<polygon fill="midnightblue" stroke="midnightblue" points="155.16,-25.42 164,-19.58 153.45,-18.63 155.16,-25.42"/>
</g>
<!-- Node4 -->
<g id="node4" class="node">
<title>Node4</title>
<g id="a_node4"><a xlink:href="classMNACircuit.html#a0c428345a8f2639aae79a4f920025a3b" target="_top" xlink:title=" ">
<polygon fill="white" stroke="black" points="343.5,-133.5 343.5,-152.5 466.5,-152.5 466.5,-133.5 343.5,-133.5"/>
<text text-anchor="middle" x="405" y="-140.5" font-family="Helvetica" font-size="10.00">MNACircuit::getCurrents</text>
</a>
</g>
</g>
<!-- Node3&#45;&gt;Node4 -->
<g id="edge3" class="edge">
<title>Node3&#45;&gt;Node4</title>
<path fill="none" stroke="midnightblue" d="M263.86,-95.58C274.29,-98.17 285.12,-101.31 295,-105 311.94,-111.34 314.13,-117.46 331,-124 337.32,-126.45 344.06,-128.69 350.8,-130.7"/>
<polygon fill="midnightblue" stroke="midnightblue" points="350.05,-134.12 360.63,-133.47 351.96,-127.38 350.05,-134.12"/>
</g>
<!-- Node5 -->
<g id="node5" class="node">
<title>Node5</title>
<g id="a_node5"><a xlink:href="classMNACircuit.html#a0b2b5f872f522f246bb04958a86a43c5" target="_top" xlink:title=" ">
<polygon fill="white" stroke="black" points="335.5,-95.5 335.5,-114.5 474.5,-114.5 474.5,-95.5 335.5,-95.5"/>
<text text-anchor="middle" x="405" y="-102.5" font-family="Helvetica" font-size="10.00">MNACircuit::getCurrentTotal</text>
</a>
</g>
</g>
<!-- Node3&#45;&gt;Node5 -->
<g id="edge4" class="edge">
<title>Node3&#45;&gt;Node5</title>
<path fill="none" stroke="midnightblue" d="M277.53,-92.35C292.75,-93.88 309.19,-95.52 325.01,-97.1"/>
<polygon fill="midnightblue" stroke="midnightblue" points="325.01,-100.62 335.31,-98.13 325.7,-93.65 325.01,-100.62"/>
</g>
<!-- Node6 -->
<g id="node6" class="node">
<title>Node6</title>
<g id="a_node6"><a xlink:href="classMNACircuit.html#a566e94feafb7c4de6f0fd1b351681559" target="_top" xlink:title=" ">
<polygon fill="white" stroke="black" points="340.5,-57.5 340.5,-76.5 469.5,-76.5 469.5,-57.5 340.5,-57.5"/>
<text text-anchor="middle" x="405" y="-64.5" font-family="Helvetica" font-size="10.00">MNACircuit::getRefNodes</text>
</a>
</g>
</g>
<!-- Node3&#45;&gt;Node6 -->
<g id="edge5" class="edge">
<title>Node3&#45;&gt;Node6</title>
<path fill="none" stroke="midnightblue" d="M277.53,-79.65C294.4,-77.96 312.75,-76.12 330.11,-74.39"/>
<polygon fill="midnightblue" stroke="midnightblue" points="330.6,-77.86 340.2,-73.38 329.91,-70.89 330.6,-77.86"/>
</g>
<!-- Node7 -->
<g id="node7" class="node">
<title>Node7</title>
<g id="a_node7"><a xlink:href="classMNACircuit.html#a33ec8e37f240fd8ebc09f34597bd6100" target="_top" xlink:title=" ">
<polygon fill="white" stroke="black" points="515,-52 515,-82 648,-82 648,-52 515,-52"/>
<text text-anchor="start" x="523" y="-70" font-family="Helvetica" font-size="10.00">MNACircuit::getConnected</text>
<text text-anchor="middle" x="581.5" y="-59" font-family="Helvetica" font-size="10.00">Nodes</text>
</a>
</g>
</g>
<!-- Node6&#45;&gt;Node7 -->
<g id="edge6" class="edge">
<title>Node6&#45;&gt;Node7</title>
<path fill="none" stroke="midnightblue" d="M469.99,-67C481.27,-67 493.12,-67 504.69,-67"/>
<polygon fill="midnightblue" stroke="midnightblue" points="504.77,-70.5 514.77,-67 504.77,-63.5 504.77,-70.5"/>
</g>
<!-- Node9 -->
<g id="node9" class="node">
<title>Node9</title>
<g id="a_node9"><a xlink:href="classMNACircuit.html#a47a2107c418bfa433dd31b472a6bf1c4" target="_top" xlink:title=" ">
<polygon fill="white" stroke="black" points="331,-8 331,-38 479,-38 479,-8 331,-8"/>
<text text-anchor="start" x="339" y="-26" font-family="Helvetica" font-size="10.00">MNACircuit::getNumUnknown</text>
<text text-anchor="middle" x="405" y="-15" font-family="Helvetica" font-size="10.00">Currents</text>
</a>
</g>
</g>
<!-- Node8&#45;&gt;Node9 -->
<g id="edge8" class="edge">
<title>Node8&#45;&gt;Node9</title>
<path fill="none" stroke="midnightblue" d="M276.74,-39.74C290.79,-37.9 305.91,-35.91 320.65,-33.97"/>
<polygon fill="midnightblue" stroke="midnightblue" points="321.32,-37.41 330.78,-32.63 320.41,-30.47 321.32,-37.41"/>
</g>
</g>
</svg>
        <g id="navigator" transform="translate(0 0)" fill="#404254">
                <rect fill="#f2f5e9" fill-opacity="0.5" stroke="#606060" stroke-width=".5" x="0" y="0" width="60" height="60"/>
                <use id="zoomplus" xlink:href="#zoomPlus" x="17" y="9" onmousedown="handleZoom(evt,'in')"/>
                <use id="zoomminus" xlink:href="#zoomMin" x="42" y="9" onmousedown="handleZoom(evt,'out')"/>
                <use id="reset" xlink:href="#resetDef" x="30" y="36" onmousedown="handleReset()"/>
                <g id="arrowUp" xlink:href="#dirArrow" transform="translate(30 24)" onmousedown="handlePan(0,-1)">
                  <use xlink:href="#rim" fill="#404040">
                        <set attributeName="fill" to="#808080" begin="arrowUp.mouseover" end="arrowUp.mouseout"/>
                  </use>
                  <path fill="none" stroke="white" stroke-width="1.5" d="M0,-3.0v7 M-2.5,-0.5L0,-3.0L2.5,-0.5"/>
                </g>
                <g id="arrowRight" xlink:href="#dirArrow" transform="rotate(90) translate(36 -43)" onmousedown="handlePan(1,0)">
                  <use xlink:href="#rim" fill="#404040">
                        <set attributeName="fill" to="#808080" begin="arrowRight.mouseover" end="arrowRight.mouseout"/>
                  </use>
                  <path fill="none" stroke="white" stroke-width="1.5" d="M0,-3.0v7 M-2.5,-0.5L0,-3.0L2.5,-0.5"/>
                </g>
                <g id="arrowDown" xlink:href="#dirArrow" transform="rotate(180) translate(-30 -48)" onmousedown="handlePan(0,1)">
                  <use xlink:href="#rim" fill="#404040">
                        <set attributeName="fill" to="#808080" begin="arrowDown.mouseover" end="arrowDown.mouseout"/>
                  </use>
                  <path fill="none" stroke="white" stroke-width="1.5" d="M0,-3.0v7 M-2.5,-0.5L0,-3.0L2.5,-0.5"/>
                </g>
                <g id="arrowLeft" xlink:href="#dirArrow" transform="rotate(270) translate(-36 17)" onmousedown="handlePan(-1,0)">
                  <use xlink:href="#rim" fill="#404040">
                        <set attributeName="fill" to="#808080" begin="arrowLeft.mouseover" end="arrowLeft.mouseout"/>
                  </use>
                  <path fill="none" stroke="white" stroke-width="1.5" d="M0,-3.0v7 M-2.5,-0.5L0,-3.0L2.5,-0.5"/>
                </g>
        </g>
        <svg viewBox="0 0 15 15" width="100%" height="30px" preserveAspectRatio="xMaxYMin meet">
         <g id="arrow_out" transform="scale(0.3 0.3)">
          <a xlink:href="classMNACircuit_a627e83c432583f7a52b233691785bfdd_cgraph_org.svg" target="_base">
           <rect id="button" ry="5" rx="5" y="6" x="6" height="38" width="38"
                fill="#f2f5e9" fill-opacity="0.5" stroke="#606060" stroke-width="1.0"/>
           <path id="arrow"
             d="M 11.500037,31.436501 C 11.940474,20.09759 22.043105,11.32322 32.158766,21.979434 L 37.068811,17.246167 C 37.068811,17.246167 37.088388,32 37.088388,32 L 22.160133,31.978069 C 22.160133,31.978069 26.997745,27.140456 26.997745,27.140456 C 18.528582,18.264221 13.291696,25.230495 11.500037,31.436501 z"
             style="fill:#404040;"/>
          </a>
         </g>
        </svg>
</svg>
