<?xml version="1.0" encoding="UTF-8" standalone="no"?>
<!DOCTYPE svg PUBLIC "-//W3C//DTD SVG 1.1//EN"
 "http://www.w3.org/Graphics/SVG/1.1/DTD/svg11.dtd">
<!-- Generated by graphviz version 2.44.0 (0)
 -->
<!-- Title: MNACircuit::getRefNodes Pages: 1 -->
<svg width="433pt" height="28pt"
 viewBox="0.00 0.00 433.00 28.00" xmlns="http://www.w3.org/2000/svg" xmlns:xlink="http://www.w3.org/1999/xlink">
<g id="graph0" class="graph" transform="scale(1 1) rotate(0) translate(4 24)">
<title>MNACircuit::getRefNodes</title>
<polygon fill="white" stroke="transparent" points="-4,4 -4,-24 429,-24 429,4 -4,4"/>
<!-- Node1 -->
<g id="node1" class="node">
<title>Node1</title>
<g id="a_node1"><a xlink:title=" ">
<polygon fill="#bfbfbf" stroke="black" points="296,-0.5 296,-19.5 425,-19.5 425,-0.5 296,-0.5"/>
<text text-anchor="middle" x="360.5" y="-7.5" font-family="Helvetica" font-size="10.00">MNACircuit::getRefNodes</text>
</a>
</g>
</g>
<!-- Node2 -->
<g id="node2" class="node">
<title>Node2</title>
<g id="a_node2"><a xlink:href="classMNACircuit.html#af8f863ec843b9397a756068d57c663d9" target="_top" xlink:title=" ">
<polygon fill="white" stroke="black" points="131,-0.5 131,-19.5 260,-19.5 260,-0.5 131,-0.5"/>
<text text-anchor="middle" x="195.5" y="-7.5" font-family="Helvetica" font-size="10.00">MNACircuit::getEquations</text>
</a>
</g>
</g>
<!-- Node1&#45;&gt;Node2 -->
<g id="edge1" class="edge">
<title>Node1&#45;&gt;Node2</title>
<path fill="none" stroke="midnightblue" d="M285.31,-10C276.86,-10 268.3,-10 260,-10"/>
<polygon fill="midnightblue" stroke="midnightblue" points="285.55,-13.5 295.55,-10 285.55,-6.5 285.55,-13.5"/>
</g>
<!-- Node3 -->
<g id="node3" class="node">
<title>Node3</title>
<g id="a_node3"><a xlink:href="classMNACircuit.html#a627e83c432583f7a52b233691785bfdd" target="_top" xlink:title="Function that solves the circuit usinglinear algebra and matrices.">
<polygon fill="white" stroke="black" points="0,-0.5 0,-19.5 95,-19.5 95,-0.5 0,-0.5"/>
<text text-anchor="middle" x="47.5" y="-7.5" font-family="Helvetica" font-size="10.00">MNACircuit::solve</text>
</a>
</g>
</g>
<!-- Node2&#45;&gt;Node3 -->
<g id="edge2" class="edge">
<title>Node2&#45;&gt;Node3</title>
<path fill="none" stroke="midnightblue" d="M120.72,-10C112.04,-10 103.38,-10 95.22,-10"/>
<polygon fill="midnightblue" stroke="midnightblue" points="120.89,-13.5 130.89,-10 120.89,-6.5 120.89,-13.5"/>
</g>
</g>
</svg>
