<?xml version="1.0" encoding="UTF-8" standalone="no"?>
<!DOCTYPE svg PUBLIC "-//W3C//DTD SVG 1.1//EN"
 "http://www.w3.org/Graphics/SVG/1.1/DTD/svg11.dtd">
<!-- Generated by graphviz version 2.44.0 (0)
 -->
<!-- Title: UnknownCurrent Pages: 1 -->
<svg width="158pt" height="95pt"
 viewBox="0.00 0.00 158.00 95.00" xmlns="http://www.w3.org/2000/svg" xmlns:xlink="http://www.w3.org/1999/xlink">
<g id="graph0" class="graph" transform="scale(1 1) rotate(0) translate(4 91)">
<title>UnknownCurrent</title>
<polygon fill="white" stroke="transparent" points="-4,4 -4,-91 154,-91 154,4 -4,4"/>
<!-- Node1 -->
<g id="node1" class="node">
<title>Node1</title>
<g id="a_node1"><a xlink:title=" ">
<polygon fill="#bfbfbf" stroke="black" points="26,-0.5 26,-19.5 116,-19.5 116,-0.5 26,-0.5"/>
<text text-anchor="middle" x="71" y="-7.5" font-family="Helvetica" font-size="10.00">UnknownCurrent</text>
</a>
</g>
</g>
<!-- Node2 -->
<g id="node2" class="node">
<title>Node2</title>
<g id="a_node2"><a xlink:href="classUnknown.html" target="_top" xlink:title=" ">
<polygon fill="white" stroke="black" points="0,-67.5 0,-86.5 58,-86.5 58,-67.5 0,-67.5"/>
<text text-anchor="middle" x="29" y="-74.5" font-family="Helvetica" font-size="10.00">Unknown</text>
</a>
</g>
</g>
<!-- Node2&#45;&gt;Node1 -->
<g id="edge1" class="edge">
<title>Node2&#45;&gt;Node1</title>
<path fill="none" stroke="midnightblue" d="M40.29,-58.53C48.42,-45.95 59.04,-29.51 65.43,-19.63"/>
<polygon fill="midnightblue" stroke="midnightblue" points="37.15,-56.94 34.66,-67.23 43.03,-60.73 37.15,-56.94"/>
</g>
<!-- Node3 -->
<g id="node3" class="node">
<title>Node3</title>
<g id="a_node3"><a xlink:href="classMNAElement.html" target="_top" xlink:title=" ">
<polygon fill="white" stroke="black" points="76,-67.5 76,-86.5 150,-86.5 150,-67.5 76,-67.5"/>
<text text-anchor="middle" x="113" y="-74.5" font-family="Helvetica" font-size="10.00">MNAElement</text>
</a>
</g>
</g>
<!-- Node3&#45;&gt;Node1 -->
<g id="edge2" class="edge">
<title>Node3&#45;&gt;Node1</title>
<path fill="none" stroke="#9a32cd" stroke-dasharray="5,2" d="M101.71,-58.53C93.58,-45.95 82.96,-29.51 76.57,-19.63"/>
<polygon fill="#9a32cd" stroke="#9a32cd" points="98.97,-60.73 107.34,-67.23 104.85,-56.94 98.97,-60.73"/>
<text text-anchor="middle" x="113" y="-41" font-family="Helvetica" font-size="10.00"> element</text>
</g>
</g>
</svg>
