<?xml version="1.0" encoding="UTF-8" standalone="no"?>
<!DOCTYPE svg PUBLIC "-//W3C//DTD SVG 1.1//EN"
 "http://www.w3.org/Graphics/SVG/1.1/DTD/svg11.dtd">
<!-- Generated by graphviz version 2.44.0 (0)
 -->
<!-- Title: Components Pages: 1 -->
<svg width="112pt" height="167pt"
 viewBox="0.00 0.00 112.00 167.00" xmlns="http://www.w3.org/2000/svg" xmlns:xlink="http://www.w3.org/1999/xlink">
<g id="graph0" class="graph" transform="scale(1 1) rotate(0) translate(4 163)">
<title>Components</title>
<polygon fill="white" stroke="transparent" points="-4,4 -4,-163 108,-163 108,4 -4,4"/>
<g id="clust1" class="cluster">
<title>clusterdir_5eb159725f84c66aafd839904a4acdd0</title>
<g id="a_clust1"><a xlink:href="dir_5eb159725f84c66aafd839904a4acdd0.html" target="_top" xlink:title="main">
<polygon fill="#ddddee" stroke="black" points="8,-8 8,-151 96,-151 96,-8 8,-8"/>
<text text-anchor="middle" x="52" y="-139" font-family="Helvetica" font-size="10.00">main</text>
</a>
</g>
</g>
<!-- dir_40143863451d5a7140d32d85b727cbb4 -->
<g id="node1" class="node">
<title>dir_40143863451d5a7140d32d85b727cbb4</title>
<g id="a_node1"><a xlink:href="dir_40143863451d5a7140d32d85b727cbb4.html" target="_top" xlink:title="Analysis">
<polygon fill="none" stroke="black" points="79,-52 25,-52 25,-16 79,-16 79,-52"/>
<text text-anchor="middle" x="52" y="-31.5" font-family="Helvetica" font-size="10.00">Analysis</text>
</a>
</g>
</g>
<!-- dir_2d0d56e359a56c8c477511ef3c9ec38f -->
<g id="node2" class="node">
<title>dir_2d0d56e359a56c8c477511ef3c9ec38f</title>
<g id="a_node2"><a xlink:href="dir_2d0d56e359a56c8c477511ef3c9ec38f.html" target="_top" xlink:title="Components">
<polygon fill="#eeeeff" stroke="black" points="88,-124 16,-124 16,-88 88,-88 88,-124"/>
<text text-anchor="middle" x="52" y="-103.5" font-family="Helvetica" font-size="10.00">Components</text>
</a>
</g>
</g>
<!-- dir_2d0d56e359a56c8c477511ef3c9ec38f&#45;&gt;dir_40143863451d5a7140d32d85b727cbb4 -->
<g id="edge1" class="edge">
<title>dir_2d0d56e359a56c8c477511ef3c9ec38f&#45;&gt;dir_40143863451d5a7140d32d85b727cbb4</title>
<path fill="none" stroke="black" d="M52,-87.7C52,-79.98 52,-70.71 52,-62.11"/>
<polygon fill="black" stroke="black" points="55.5,-62.1 52,-52.1 48.5,-62.1 55.5,-62.1"/>
<g id="a_edge1&#45;headlabel"><a xlink:href="dir_000002_000003.html" target="_top" xlink:title="3">
<text text-anchor="middle" x="58.34" y="-63.2" font-family="Helvetica" font-size="10.00">3</text>
</a>
</g>
</g>
</g>
</svg>
