<?xml version="1.0" encoding="UTF-8" standalone="no"?>
<!DOCTYPE svg PUBLIC "-//W3C//DTD SVG 1.1//EN"
 "http://www.w3.org/Graphics/SVG/1.1/DTD/svg11.dtd">
<!-- Generated by graphviz version 2.44.0 (0)
 -->
<!-- Title: main Pages: 1 -->
<svg width="200pt" height="255pt"
 viewBox="0.00 0.00 200.00 255.00" xmlns="http://www.w3.org/2000/svg" xmlns:xlink="http://www.w3.org/1999/xlink">
<g id="graph0" class="graph" transform="scale(1 1) rotate(0) translate(4 251)">
<title>main</title>
<polygon fill="white" stroke="transparent" points="-4,4 -4,-251 196,-251 196,4 -4,4"/>
<g id="clust1" class="cluster">
<title>clusterdir_68267d1309a1af8e8297ef4c3efbcdba</title>
<g id="a_clust1"><a xlink:href="dir_68267d1309a1af8e8297ef4c3efbcdba.html" target="_top" xlink:title="src">
<polygon fill="#ddddee" stroke="black" points="8,-8 8,-239 184,-239 184,-8 8,-8"/>
<text text-anchor="middle" x="96" y="-227" font-family="Helvetica" font-size="10.00">src</text>
</a>
</g>
</g>
<g id="clust2" class="cluster">
<title>clusterdir_5eb159725f84c66aafd839904a4acdd0</title>
<g id="a_clust2"><a xlink:href="dir_5eb159725f84c66aafd839904a4acdd0.html" target="_top">
<polygon fill="#eeeeff" stroke="black" points="16,-16 16,-212 176,-212 176,-16 16,-16"/>
</a>
</g>
</g>
<!-- dir_5eb159725f84c66aafd839904a4acdd0 -->
<g id="node1" class="node">
<title>dir_5eb159725f84c66aafd839904a4acdd0</title>
<text text-anchor="middle" x="100" y="-183.5" font-family="Helvetica" font-size="10.00">main</text>
</g>
<!-- dir_2d0d56e359a56c8c477511ef3c9ec38f -->
<g id="node3" class="node">
<title>dir_2d0d56e359a56c8c477511ef3c9ec38f</title>
<g id="a_node3"><a xlink:href="dir_2d0d56e359a56c8c477511ef3c9ec38f.html" target="_top" xlink:title="Components">
<polygon fill="white" stroke="black" points="96,-132 24,-132 24,-96 96,-96 96,-132"/>
<text text-anchor="middle" x="60" y="-111.5" font-family="Helvetica" font-size="10.00">Components</text>
</a>
</g>
</g>
<!-- dir_5eb159725f84c66aafd839904a4acdd0&#45;&gt;dir_2d0d56e359a56c8c477511ef3c9ec38f -->
<g id="edge2" class="edge">
<title>dir_5eb159725f84c66aafd839904a4acdd0&#45;&gt;dir_2d0d56e359a56c8c477511ef3c9ec38f</title>
<path fill="none" stroke="black" d="M90.11,-167.7C85.51,-159.64 79.94,-149.89 74.85,-140.98"/>
<polygon fill="black" stroke="black" points="77.77,-139.05 69.77,-132.1 71.7,-142.52 77.77,-139.05"/>
<g id="a_edge2&#45;headlabel"><a xlink:href="dir_000001_000002.html" target="_top" xlink:title="2">
<text text-anchor="middle" x="82.02" y="-138.26" font-family="Helvetica" font-size="10.00">2</text>
</a>
</g>
</g>
<!-- dir_3d25aac22c9fc9d80d70c48377432879 -->
<g id="node4" class="node">
<title>dir_3d25aac22c9fc9d80d70c48377432879</title>
<g id="a_node4"><a xlink:href="dir_3d25aac22c9fc9d80d70c48377432879.html" target="_top" xlink:title="UI">
<polygon fill="white" stroke="black" points="168,-132 114,-132 114,-96 168,-96 168,-132"/>
<text text-anchor="middle" x="141" y="-111.5" font-family="Helvetica" font-size="10.00">UI</text>
</a>
</g>
</g>
<!-- dir_5eb159725f84c66aafd839904a4acdd0&#45;&gt;dir_3d25aac22c9fc9d80d70c48377432879 -->
<g id="edge3" class="edge">
<title>dir_5eb159725f84c66aafd839904a4acdd0&#45;&gt;dir_3d25aac22c9fc9d80d70c48377432879</title>
<path fill="none" stroke="black" d="M110.13,-167.7C114.85,-159.64 120.56,-149.89 125.78,-140.98"/>
<polygon fill="black" stroke="black" points="128.95,-142.5 130.98,-132.1 122.91,-138.96 128.95,-142.5"/>
<g id="a_edge3&#45;headlabel"><a xlink:href="dir_000001_000004.html" target="_top" xlink:title="1">
<text text-anchor="middle" x="129.58" y="-144.54" font-family="Helvetica" font-size="10.00">1</text>
</a>
</g>
</g>
<!-- dir_40143863451d5a7140d32d85b727cbb4 -->
<g id="node2" class="node">
<title>dir_40143863451d5a7140d32d85b727cbb4</title>
<g id="a_node2"><a xlink:href="dir_40143863451d5a7140d32d85b727cbb4.html" target="_top" xlink:title="Analysis">
<polygon fill="white" stroke="black" points="87,-60 33,-60 33,-24 87,-24 87,-60"/>
<text text-anchor="middle" x="60" y="-39.5" font-family="Helvetica" font-size="10.00">Analysis</text>
</a>
</g>
</g>
<!-- dir_2d0d56e359a56c8c477511ef3c9ec38f&#45;&gt;dir_40143863451d5a7140d32d85b727cbb4 -->
<g id="edge1" class="edge">
<title>dir_2d0d56e359a56c8c477511ef3c9ec38f&#45;&gt;dir_40143863451d5a7140d32d85b727cbb4</title>
<path fill="none" stroke="black" d="M60,-95.7C60,-87.98 60,-78.71 60,-70.11"/>
<polygon fill="black" stroke="black" points="63.5,-70.1 60,-60.1 56.5,-70.1 63.5,-70.1"/>
<g id="a_edge1&#45;headlabel"><a xlink:href="dir_000002_000003.html" target="_top" xlink:title="3">
<text text-anchor="middle" x="66.34" y="-71.2" font-family="Helvetica" font-size="10.00">3</text>
</a>
</g>
</g>
</g>
</svg>
