<?xml version="1.0" encoding="UTF-8" standalone="no"?>
<!DOCTYPE svg PUBLIC "-//W3C//DTD SVG 1.1//EN"
 "http://www.w3.org/Graphics/SVG/1.1/DTD/svg11.dtd">
<!-- Generated by graphviz version 2.44.0 (0)
 -->
<!-- Title: Equation.h Pages: 1 -->
<svg width="527pt" height="140pt"
 viewBox="0.00 0.00 527.00 140.00" xmlns="http://www.w3.org/2000/svg" xmlns:xlink="http://www.w3.org/1999/xlink">
<g id="graph0" class="graph" transform="scale(1 1) rotate(0) translate(4 136)">
<title>Equation.h</title>
<polygon fill="white" stroke="transparent" points="-4,4 -4,-136 523,-136 523,4 -4,4"/>
<!-- Node1 -->
<g id="node1" class="node">
<title>Node1</title>
<g id="a_node1"><a xlink:title=" ">
<polygon fill="#bfbfbf" stroke="black" points="70.5,-112.5 70.5,-131.5 133.5,-131.5 133.5,-112.5 70.5,-112.5"/>
<text text-anchor="middle" x="102" y="-119.5" font-family="Helvetica" font-size="10.00">Equation.h</text>
</a>
</g>
</g>
<!-- Node2 -->
<g id="node2" class="node">
<title>Node2</title>
<g id="a_node2"><a xlink:href="Equation_8cpp.html" target="_top" xlink:title=" ">
<polygon fill="white" stroke="black" points="0,-56.5 0,-75.5 74,-75.5 74,-56.5 0,-56.5"/>
<text text-anchor="middle" x="37" y="-63.5" font-family="Helvetica" font-size="10.00">Equation.cpp</text>
</a>
</g>
</g>
<!-- Node1&#45;&gt;Node2 -->
<g id="edge1" class="edge">
<title>Node1&#45;&gt;Node2</title>
<path fill="none" stroke="midnightblue" d="M83.73,-105.82C72.08,-96.15 57.4,-83.95 47.63,-75.83"/>
<polygon fill="midnightblue" stroke="midnightblue" points="81.63,-108.63 91.56,-112.32 86.1,-103.24 81.63,-108.63"/>
</g>
<!-- Node3 -->
<g id="node3" class="node">
<title>Node3</title>
<g id="a_node3"><a xlink:href="MNA_8h.html" target="_top" xlink:title=" ">
<polygon fill="white" stroke="black" points="69.5,-0.5 69.5,-19.5 116.5,-19.5 116.5,-0.5 69.5,-0.5"/>
<text text-anchor="middle" x="93" y="-7.5" font-family="Helvetica" font-size="10.00">MNA.h</text>
</a>
</g>
</g>
<!-- Node1&#45;&gt;Node3 -->
<g id="edge2" class="edge">
<title>Node1&#45;&gt;Node3</title>
<path fill="none" stroke="midnightblue" d="M100.47,-102.35C98.5,-78.25 95.15,-37.31 93.7,-19.59"/>
<polygon fill="midnightblue" stroke="midnightblue" points="96.99,-102.69 101.29,-112.37 103.97,-102.12 96.99,-102.69"/>
</g>
<!-- Node4 -->
<g id="node4" class="node">
<title>Node4</title>
<g id="a_node4"><a xlink:href="MNACircuit_8h.html" target="_top" xlink:title=" ">
<polygon fill="white" stroke="black" points="184,-56.5 184,-75.5 258,-75.5 258,-56.5 184,-56.5"/>
<text text-anchor="middle" x="221" y="-63.5" font-family="Helvetica" font-size="10.00">MNACircuit.h</text>
</a>
</g>
</g>
<!-- Node1&#45;&gt;Node4 -->
<g id="edge3" class="edge">
<title>Node1&#45;&gt;Node4</title>
<path fill="none" stroke="midnightblue" d="M130.14,-108.23C152.4,-98.13 182.86,-84.31 202.23,-75.52"/>
<polygon fill="midnightblue" stroke="midnightblue" points="128.52,-105.12 120.86,-112.44 131.41,-111.5 128.52,-105.12"/>
</g>
<!-- Node4&#45;&gt;Node3 -->
<g id="edge4" class="edge">
<title>Node4&#45;&gt;Node3</title>
<path fill="none" stroke="midnightblue" d="M191.38,-52.5C167.38,-42.38 134.22,-28.39 113.19,-19.52"/>
<polygon fill="midnightblue" stroke="midnightblue" points="190.14,-55.78 200.72,-56.44 192.86,-49.33 190.14,-55.78"/>
</g>
<!-- Node5 -->
<g id="node5" class="node">
<title>Node5</title>
<g id="a_node5"><a xlink:href="MNACircuit_8cpp.html" target="_top" xlink:title=" ">
<polygon fill="white" stroke="black" points="135,-0.5 135,-19.5 219,-19.5 219,-0.5 135,-0.5"/>
<text text-anchor="middle" x="177" y="-7.5" font-family="Helvetica" font-size="10.00">MNACircuit.cpp</text>
</a>
</g>
</g>
<!-- Node4&#45;&gt;Node5 -->
<g id="edge5" class="edge">
<title>Node4&#45;&gt;Node5</title>
<path fill="none" stroke="midnightblue" d="M207.27,-48.14C199.6,-38.74 190.37,-27.4 184.13,-19.75"/>
<polygon fill="midnightblue" stroke="midnightblue" points="204.7,-50.54 213.73,-56.08 210.13,-46.12 204.7,-50.54"/>
</g>
<!-- Node6 -->
<g id="node6" class="node">
<title>Node6</title>
<g id="a_node6"><a xlink:href="main_8cpp.html" target="_top" xlink:title=" ">
<polygon fill="white" stroke="black" points="237,-0.5 237,-19.5 293,-19.5 293,-0.5 237,-0.5"/>
<text text-anchor="middle" x="265" y="-7.5" font-family="Helvetica" font-size="10.00">main.cpp</text>
</a>
</g>
</g>
<!-- Node4&#45;&gt;Node6 -->
<g id="edge6" class="edge">
<title>Node4&#45;&gt;Node6</title>
<path fill="none" stroke="midnightblue" d="M234.73,-48.14C242.4,-38.74 251.63,-27.4 257.87,-19.75"/>
<polygon fill="midnightblue" stroke="midnightblue" points="231.87,-46.12 228.27,-56.08 237.3,-50.54 231.87,-46.12"/>
</g>
<!-- Node7 -->
<g id="node7" class="node">
<title>Node7</title>
<g id="a_node7"><a xlink:href="Test__MNA_8cpp.html" target="_top" xlink:title=" ">
<polygon fill="white" stroke="black" points="311.5,-0.5 311.5,-19.5 392.5,-19.5 392.5,-0.5 311.5,-0.5"/>
<text text-anchor="middle" x="352" y="-7.5" font-family="Helvetica" font-size="10.00">Test_MNA.cpp</text>
</a>
</g>
</g>
<!-- Node4&#45;&gt;Node7 -->
<g id="edge7" class="edge">
<title>Node4&#45;&gt;Node7</title>
<path fill="none" stroke="midnightblue" d="M251.32,-52.5C275.88,-42.38 309.82,-28.39 331.34,-19.52"/>
<polygon fill="midnightblue" stroke="midnightblue" points="249.67,-49.4 241.76,-56.44 252.34,-55.87 249.67,-49.4"/>
</g>
<!-- Node8 -->
<g id="node8" class="node">
<title>Node8</title>
<g id="a_node8"><a xlink:href="Test__MNACircuit_8cpp.html" target="_top" xlink:title=" ">
<polygon fill="white" stroke="black" points="411,-0.5 411,-19.5 519,-19.5 519,-0.5 411,-0.5"/>
<text text-anchor="middle" x="465" y="-7.5" font-family="Helvetica" font-size="10.00">Test_MNACircuit.cpp</text>
</a>
</g>
</g>
<!-- Node4&#45;&gt;Node8 -->
<g id="edge8" class="edge">
<title>Node4&#45;&gt;Node8</title>
<path fill="none" stroke="midnightblue" d="M268.09,-54.58C314.15,-44.38 383.47,-29.04 426.38,-19.55"/>
<polygon fill="midnightblue" stroke="midnightblue" points="267.07,-51.22 258.06,-56.8 268.58,-58.05 267.07,-51.22"/>
</g>
</g>
</svg>
