<?xml version="1.0" encoding="UTF-8" standalone="no"?>
<!DOCTYPE svg PUBLIC "-//W3C//DTD SVG 1.1//EN"
 "http://www.w3.org/Graphics/SVG/1.1/DTD/svg11.dtd">
<!-- Generated by graphviz version 2.44.0 (0)
 -->
<!-- Title: Equation.h Pages: 1 -->
<svg width="270pt" height="196pt"
 viewBox="0.00 0.00 269.98 196.00" xmlns="http://www.w3.org/2000/svg" xmlns:xlink="http://www.w3.org/1999/xlink">
<g id="graph0" class="graph" transform="scale(1 1) rotate(0) translate(4 192)">
<title>Equation.h</title>
<polygon fill="white" stroke="transparent" points="-4,4 -4,-192 265.98,-192 265.98,4 -4,4"/>
<!-- Node1 -->
<g id="node1" class="node">
<title>Node1</title>
<g id="a_node1"><a xlink:title=" ">
<polygon fill="#bfbfbf" stroke="black" points="75.48,-168.5 75.48,-187.5 138.48,-187.5 138.48,-168.5 75.48,-168.5"/>
<text text-anchor="middle" x="106.98" y="-175.5" font-family="Helvetica" font-size="10.00">Equation.h</text>
</a>
</g>
</g>
<!-- Node2 -->
<g id="node2" class="node">
<title>Node2</title>
<g id="a_node2"><a xlink:title=" ">
<polygon fill="white" stroke="#bfbfbf" points="57.48,-56.5 57.48,-75.5 98.48,-75.5 98.48,-56.5 57.48,-56.5"/>
<text text-anchor="middle" x="77.98" y="-63.5" font-family="Helvetica" font-size="10.00">string</text>
</a>
</g>
</g>
<!-- Node1&#45;&gt;Node2 -->
<g id="edge1" class="edge">
<title>Node1&#45;&gt;Node2</title>
<path fill="none" stroke="midnightblue" d="M75.4,-172.53C51.31,-167.28 19.68,-156 3.98,-132 -10.95,-109.19 21.41,-89.58 47.95,-78.03"/>
<polygon fill="midnightblue" stroke="midnightblue" points="49.46,-81.2 57.37,-74.15 46.79,-74.73 49.46,-81.2"/>
</g>
<!-- Node3 -->
<g id="node3" class="node">
<title>Node3</title>
<g id="a_node3"><a xlink:title=" ">
<polygon fill="white" stroke="#bfbfbf" points="13.48,-112.5 13.48,-131.5 56.48,-131.5 56.48,-112.5 13.48,-112.5"/>
<text text-anchor="middle" x="34.98" y="-119.5" font-family="Helvetica" font-size="10.00">vector</text>
</a>
</g>
</g>
<!-- Node1&#45;&gt;Node3 -->
<g id="edge2" class="edge">
<title>Node1&#45;&gt;Node3</title>
<path fill="none" stroke="midnightblue" d="M95.41,-168.32C84.56,-160.18 68.1,-147.84 55.09,-138.09"/>
<polygon fill="midnightblue" stroke="midnightblue" points="56.85,-135.03 46.75,-131.83 52.65,-140.63 56.85,-135.03"/>
</g>
<!-- Node4 -->
<g id="node4" class="node">
<title>Node4</title>
<g id="a_node4"><a xlink:title=" ">
<polygon fill="white" stroke="#bfbfbf" points="74.48,-112.5 74.48,-131.5 139.48,-131.5 139.48,-112.5 74.48,-112.5"/>
<text text-anchor="middle" x="106.98" y="-119.5" font-family="Helvetica" font-size="10.00">Eigen/Core</text>
</a>
</g>
</g>
<!-- Node1&#45;&gt;Node4 -->
<g id="edge3" class="edge">
<title>Node1&#45;&gt;Node4</title>
<path fill="none" stroke="midnightblue" d="M106.98,-168.08C106.98,-161.01 106.98,-150.86 106.98,-141.99"/>
<polygon fill="midnightblue" stroke="midnightblue" points="110.48,-141.75 106.98,-131.75 103.48,-141.75 110.48,-141.75"/>
</g>
<!-- Node5 -->
<g id="node5" class="node">
<title>Node5</title>
<g id="a_node5"><a xlink:href="MNAElement_8h.html" target="_top" xlink:title=" ">
<polygon fill="white" stroke="black" points="179.98,-56.5 179.98,-75.5 261.98,-75.5 261.98,-56.5 179.98,-56.5"/>
<text text-anchor="middle" x="220.98" y="-63.5" font-family="Helvetica" font-size="10.00">MNAElement.h</text>
</a>
</g>
</g>
<!-- Node1&#45;&gt;Node5 -->
<g id="edge4" class="edge">
<title>Node1&#45;&gt;Node5</title>
<path fill="none" stroke="midnightblue" d="M138.66,-175.49C168.52,-172.17 211.77,-162.09 232.98,-132 242.66,-118.26 237.33,-98.97 231.01,-84.97"/>
<polygon fill="midnightblue" stroke="midnightblue" points="234.05,-83.23 226.42,-75.87 227.8,-86.38 234.05,-83.23"/>
</g>
<!-- Node7 -->
<g id="node7" class="node">
<title>Node7</title>
<g id="a_node7"><a xlink:href="Unknown_8h.html" target="_top" xlink:title=" ">
<polygon fill="white" stroke="black" points="157.98,-112.5 157.98,-131.5 223.98,-131.5 223.98,-112.5 157.98,-112.5"/>
<text text-anchor="middle" x="190.98" y="-119.5" font-family="Helvetica" font-size="10.00">Unknown.h</text>
</a>
</g>
</g>
<!-- Node1&#45;&gt;Node7 -->
<g id="edge6" class="edge">
<title>Node1&#45;&gt;Node7</title>
<path fill="none" stroke="midnightblue" d="M120.47,-168.32C133.58,-159.9 153.69,-146.97 169.08,-137.07"/>
<polygon fill="midnightblue" stroke="midnightblue" points="170.99,-140.01 177.51,-131.65 167.21,-134.12 170.99,-140.01"/>
</g>
<!-- Node6 -->
<g id="node6" class="node">
<title>Node6</title>
<g id="a_node6"><a xlink:title=" ">
<polygon fill="white" stroke="#bfbfbf" points="198.98,-0.5 198.98,-19.5 242.98,-19.5 242.98,-0.5 198.98,-0.5"/>
<text text-anchor="middle" x="220.98" y="-7.5" font-family="Helvetica" font-size="10.00">cmath</text>
</a>
</g>
</g>
<!-- Node5&#45;&gt;Node6 -->
<g id="edge5" class="edge">
<title>Node5&#45;&gt;Node6</title>
<path fill="none" stroke="midnightblue" d="M220.98,-56.08C220.98,-49.01 220.98,-38.86 220.98,-29.99"/>
<polygon fill="midnightblue" stroke="midnightblue" points="224.48,-29.75 220.98,-19.75 217.48,-29.75 224.48,-29.75"/>
</g>
<!-- Node7&#45;&gt;Node2 -->
<g id="edge7" class="edge">
<title>Node7&#45;&gt;Node2</title>
<path fill="none" stroke="midnightblue" d="M173.07,-112.44C154.72,-103.68 125.97,-89.94 104.88,-79.86"/>
<polygon fill="midnightblue" stroke="midnightblue" points="106.33,-76.67 95.8,-75.52 103.31,-82.99 106.33,-76.67"/>
</g>
<!-- Node7&#45;&gt;Node5 -->
<g id="edge8" class="edge">
<title>Node7&#45;&gt;Node5</title>
<path fill="none" stroke="midnightblue" d="M195.93,-112.08C200.08,-104.61 206.13,-93.72 211.24,-84.52"/>
<polygon fill="midnightblue" stroke="midnightblue" points="214.32,-86.19 216.11,-75.75 208.2,-82.79 214.32,-86.19"/>
</g>
</g>
</svg>
