<?xml version="1.0" encoding="UTF-8" standalone="no"?>
<!DOCTYPE svg PUBLIC "-//W3C//DTD SVG 1.1//EN"
 "http://www.w3.org/Graphics/SVG/1.1/DTD/svg11.dtd">
<!-- Generated by graphviz version 2.44.0 (0)
 -->
<!-- Title: Graphical Class Hierarchy Pages: 1 -->
<svg width="198pt" height="104pt"
 viewBox="0.00 0.00 198.00 104.00" xmlns="http://www.w3.org/2000/svg" xmlns:xlink="http://www.w3.org/1999/xlink">
<g id="graph0" class="graph" transform="scale(1 1) rotate(0) translate(4 100)">
<title>Graphical Class Hierarchy</title>
<polygon fill="white" stroke="transparent" points="-4,4 -4,-100 194,-100 194,4 -4,4"/>
<!-- Node0 -->
<g id="node1" class="node">
<title>Node0</title>
<g id="a_node1"><a xlink:href="classMNAElement.html" target="_top" xlink:title=" ">
<polygon fill="white" stroke="black" points="0,-38.5 0,-57.5 74,-57.5 74,-38.5 0,-38.5"/>
<text text-anchor="middle" x="37" y="-45.5" font-family="Helvetica" font-size="10.00">MNAComponent</text>
</a>
</g>
</g>
<!-- Node1 -->
<g id="node2" class="node">
<title>Node1</title>
<g id="a_node2"><a xlink:href="classBattery.html" target="_top" xlink:title=" ">
<polygon fill="white" stroke="black" points="125.5,-76.5 125.5,-95.5 174.5,-95.5 174.5,-76.5 125.5,-76.5"/>
<text text-anchor="middle" x="150" y="-83.5" font-family="Helvetica" font-size="10.00">Battery</text>
</a>
</g>
</g>
<!-- Node0&#45;&gt;Node1 -->
<g id="edge1" class="edge">
<title>Node0&#45;&gt;Node1</title>
<path fill="none" stroke="midnightblue" d="M75.83,-60.95C92.16,-66.54 110.77,-72.91 125.14,-77.83"/>
<polygon fill="midnightblue" stroke="midnightblue" points="76.6,-57.52 66.01,-57.59 74.34,-64.14 76.6,-57.52"/>
</g>
<!-- Node2 -->
<g id="node3" class="node">
<title>Node2</title>
<g id="a_node3"><a xlink:href="classCurrentSource.html" target="_top" xlink:title=" ">
<polygon fill="white" stroke="black" points="110,-38.5 110,-57.5 190,-57.5 190,-38.5 110,-38.5"/>
<text text-anchor="middle" x="150" y="-45.5" font-family="Helvetica" font-size="10.00">CurrentSource</text>
</a>
</g>
</g>
<!-- Node0&#45;&gt;Node2 -->
<g id="edge2" class="edge">
<title>Node0&#45;&gt;Node2</title>
<path fill="none" stroke="midnightblue" d="M84.18,-48C92.66,-48 101.44,-48 109.69,-48"/>
<polygon fill="midnightblue" stroke="midnightblue" points="84.04,-44.5 74.04,-48 84.04,-51.5 84.04,-44.5"/>
</g>
<!-- Node3 -->
<g id="node4" class="node">
<title>Node3</title>
<g id="a_node4"><a xlink:href="classResistor.html" target="_top" xlink:title=" ">
<polygon fill="white" stroke="black" points="123.5,-0.5 123.5,-19.5 176.5,-19.5 176.5,-0.5 123.5,-0.5"/>
<text text-anchor="middle" x="150" y="-7.5" font-family="Helvetica" font-size="10.00">Resistor</text>
</a>
</g>
</g>
<!-- Node0&#45;&gt;Node3 -->
<g id="edge3" class="edge">
<title>Node0&#45;&gt;Node3</title>
<path fill="none" stroke="midnightblue" d="M75.91,-35.02C91.53,-29.67 109.22,-23.62 123.28,-18.8"/>
<polygon fill="midnightblue" stroke="midnightblue" points="74.34,-31.86 66.01,-38.41 76.6,-38.48 74.34,-31.86"/>
</g>
</g>
</svg>
