<?xml version="1.0" encoding="UTF-8" standalone="no"?>
<!DOCTYPE svg PUBLIC "-//W3C//DTD SVG 1.1//EN"
 "http://www.w3.org/Graphics/SVG/1.1/DTD/svg11.dtd">
<!-- Generated by graphviz version 2.44.0 (0)
 -->
<!-- Title: main.cpp Pages: 1 -->
<svg width="795pt" height="308pt"
 viewBox="0.00 0.00 794.68 308.00" xmlns="http://www.w3.org/2000/svg" xmlns:xlink="http://www.w3.org/1999/xlink">
<g id="graph0" class="graph" transform="scale(1 1) rotate(0) translate(4 304)">
<title>main.cpp</title>
<polygon fill="white" stroke="transparent" points="-4,4 -4,-304 790.68,-304 790.68,4 -4,4"/>
<!-- Node1 -->
<g id="node1" class="node">
<title>Node1</title>
<g id="a_node1"><a xlink:title=" ">
<polygon fill="#bfbfbf" stroke="black" points="296,-280.5 296,-299.5 352,-299.5 352,-280.5 296,-280.5"/>
<text text-anchor="middle" x="324" y="-287.5" font-family="Helvetica" font-size="10.00">main.cpp</text>
</a>
</g>
</g>
<!-- Node2 -->
<g id="node2" class="node">
<title>Node2</title>
<g id="a_node2"><a xlink:title=" ">
<polygon fill="white" stroke="#bfbfbf" points="0,-224.5 0,-243.5 54,-243.5 54,-224.5 0,-224.5"/>
<text text-anchor="middle" x="27" y="-231.5" font-family="Helvetica" font-size="10.00">iostream</text>
</a>
</g>
</g>
<!-- Node1&#45;&gt;Node2 -->
<g id="edge1" class="edge">
<title>Node1&#45;&gt;Node2</title>
<path fill="none" stroke="midnightblue" d="M295.67,-284.82C249.31,-277.83 154.13,-262.85 63.92,-244.07"/>
<polygon fill="midnightblue" stroke="midnightblue" points="64.58,-240.63 54.08,-242 63.14,-247.48 64.58,-240.63"/>
</g>
<!-- Node3 -->
<g id="node3" class="node">
<title>Node3</title>
<g id="a_node3"><a xlink:title=" ">
<polygon fill="white" stroke="#bfbfbf" points="72,-224.5 72,-243.5 144,-243.5 144,-224.5 72,-224.5"/>
<text text-anchor="middle" x="108" y="-231.5" font-family="Helvetica" font-size="10.00">QApplication</text>
</a>
</g>
</g>
<!-- Node1&#45;&gt;Node3 -->
<g id="edge2" class="edge">
<title>Node1&#45;&gt;Node3</title>
<path fill="none" stroke="midnightblue" d="M295.76,-281.94C259.24,-272.81 195.22,-256.8 152.22,-246.05"/>
<polygon fill="midnightblue" stroke="midnightblue" points="152.85,-242.61 142.3,-243.58 151.16,-249.4 152.85,-242.61"/>
</g>
<!-- Node4 -->
<g id="node4" class="node">
<title>Node4</title>
<g id="a_node4"><a xlink:href="mainwindow_8h.html" target="_top" xlink:title=" ">
<polygon fill="white" stroke="black" points="162,-224.5 162,-243.5 254,-243.5 254,-224.5 162,-224.5"/>
<text text-anchor="middle" x="208" y="-231.5" font-family="Helvetica" font-size="10.00">UI/mainwindow.h</text>
</a>
</g>
</g>
<!-- Node1&#45;&gt;Node4 -->
<g id="edge3" class="edge">
<title>Node1&#45;&gt;Node4</title>
<path fill="none" stroke="midnightblue" d="M305.62,-280.44C286.78,-271.68 257.27,-257.94 235.62,-247.86"/>
<polygon fill="midnightblue" stroke="midnightblue" points="236.84,-244.56 226.29,-243.52 233.88,-250.91 236.84,-244.56"/>
</g>
<!-- Node6 -->
<g id="node6" class="node">
<title>Node6</title>
<g id="a_node6"><a xlink:href="MNAElement_8h.html" target="_top" xlink:title=" ">
<polygon fill="white" stroke="black" points="559,-56.5 559,-75.5 681,-75.5 681,-56.5 559,-56.5"/>
<text text-anchor="middle" x="620" y="-63.5" font-family="Helvetica" font-size="10.00">Analysis/MNAElement.h</text>
</a>
</g>
</g>
<!-- Node1&#45;&gt;Node6 -->
<g id="edge5" class="edge">
<title>Node1&#45;&gt;Node6</title>
<path fill="none" stroke="midnightblue" d="M352.23,-287.18C442.79,-280.68 723.2,-255.37 777,-188 816.49,-138.56 718.27,-97.72 659.78,-78.63"/>
<polygon fill="midnightblue" stroke="midnightblue" points="660.65,-75.24 650.06,-75.54 658.53,-81.91 660.65,-75.24"/>
</g>
<!-- Node8 -->
<g id="node8" class="node">
<title>Node8</title>
<g id="a_node8"><a xlink:href="MNASolution_8h.html" target="_top" xlink:title=" ">
<polygon fill="white" stroke="black" points="217,-168.5 217,-187.5 339,-187.5 339,-168.5 217,-168.5"/>
<text text-anchor="middle" x="278" y="-175.5" font-family="Helvetica" font-size="10.00">Analysis/MNASolution.h</text>
</a>
</g>
</g>
<!-- Node1&#45;&gt;Node8 -->
<g id="edge7" class="edge">
<title>Node1&#45;&gt;Node8</title>
<path fill="none" stroke="midnightblue" d="M319.06,-280.2C314.15,-271.25 306.55,-256.9 301,-244 294.35,-228.54 288.06,-210.45 283.75,-197.28"/>
<polygon fill="midnightblue" stroke="midnightblue" points="287.01,-196 280.63,-187.55 280.35,-198.14 287.01,-196"/>
</g>
<!-- Node12 -->
<g id="node12" class="node">
<title>Node12</title>
<g id="a_node12"><a xlink:href="MNACircuit_8h.html" target="_top" xlink:title=" ">
<polygon fill="white" stroke="black" points="310.5,-224.5 310.5,-243.5 423.5,-243.5 423.5,-224.5 310.5,-224.5"/>
<text text-anchor="middle" x="367" y="-231.5" font-family="Helvetica" font-size="10.00">Analysis/MNACircuit.h</text>
</a>
</g>
</g>
<!-- Node1&#45;&gt;Node12 -->
<g id="edge12" class="edge">
<title>Node1&#45;&gt;Node12</title>
<path fill="none" stroke="midnightblue" d="M331.1,-280.08C337.24,-272.38 346.27,-261.03 353.74,-251.65"/>
<polygon fill="midnightblue" stroke="midnightblue" points="356.54,-253.75 360.03,-243.75 351.06,-249.39 356.54,-253.75"/>
</g>
<!-- Node16 -->
<g id="node16" class="node">
<title>Node16</title>
<g id="a_node16"><a xlink:href="Battery_8h.html" target="_top" xlink:title=" ">
<polygon fill="white" stroke="black" points="515.5,-168.5 515.5,-187.5 630.5,-187.5 630.5,-168.5 515.5,-168.5"/>
<text text-anchor="middle" x="573" y="-175.5" font-family="Helvetica" font-size="10.00">Components/Battery.h</text>
</a>
</g>
</g>
<!-- Node1&#45;&gt;Node16 -->
<g id="edge26" class="edge">
<title>Node1&#45;&gt;Node16</title>
<path fill="none" stroke="midnightblue" d="M345.21,-280.44C367.06,-271.55 402.05,-257.14 432,-244 471.75,-226.57 517.27,-205.35 545.59,-192"/>
<polygon fill="midnightblue" stroke="midnightblue" points="547.3,-195.07 554.85,-187.63 544.31,-188.74 547.3,-195.07"/>
</g>
<!-- Node17 -->
<g id="node17" class="node">
<title>Node17</title>
<g id="a_node17"><a xlink:href="Resistor_8h.html" target="_top" xlink:title=" ">
<polygon fill="white" stroke="black" points="648.5,-168.5 648.5,-187.5 767.5,-187.5 767.5,-168.5 648.5,-168.5"/>
<text text-anchor="middle" x="708" y="-175.5" font-family="Helvetica" font-size="10.00">Components/Resistor.h</text>
</a>
</g>
</g>
<!-- Node1&#45;&gt;Node17 -->
<g id="edge28" class="edge">
<title>Node1&#45;&gt;Node17</title>
<path fill="none" stroke="midnightblue" d="M352.24,-280.91C419.7,-261.59 590.42,-212.68 668.24,-190.39"/>
<polygon fill="midnightblue" stroke="midnightblue" points="669.49,-193.67 678.14,-187.55 667.57,-186.94 669.49,-193.67"/>
</g>
<!-- Node5 -->
<g id="node5" class="node">
<title>Node5</title>
<g id="a_node5"><a xlink:title=" ">
<polygon fill="white" stroke="#bfbfbf" points="38,-168.5 38,-187.5 118,-187.5 118,-168.5 38,-168.5"/>
<text text-anchor="middle" x="78" y="-175.5" font-family="Helvetica" font-size="10.00">QMainWindow</text>
</a>
</g>
</g>
<!-- Node4&#45;&gt;Node5 -->
<g id="edge4" class="edge">
<title>Node4&#45;&gt;Node5</title>
<path fill="none" stroke="midnightblue" d="M187.4,-224.44C166.01,-215.56 132.32,-201.56 107.98,-191.45"/>
<polygon fill="midnightblue" stroke="midnightblue" points="109.08,-188.12 98.5,-187.52 106.39,-194.58 109.08,-188.12"/>
</g>
<!-- Node7 -->
<g id="node7" class="node">
<title>Node7</title>
<g id="a_node7"><a xlink:title=" ">
<polygon fill="white" stroke="#bfbfbf" points="598,-0.5 598,-19.5 642,-19.5 642,-0.5 598,-0.5"/>
<text text-anchor="middle" x="620" y="-7.5" font-family="Helvetica" font-size="10.00">cmath</text>
</a>
</g>
</g>
<!-- Node6&#45;&gt;Node7 -->
<g id="edge6" class="edge">
<title>Node6&#45;&gt;Node7</title>
<path fill="none" stroke="midnightblue" d="M620,-56.08C620,-49.01 620,-38.86 620,-29.99"/>
<polygon fill="midnightblue" stroke="midnightblue" points="623.5,-29.75 620,-19.75 616.5,-29.75 623.5,-29.75"/>
</g>
<!-- Node8&#45;&gt;Node6 -->
<g id="edge11" class="edge">
<title>Node8&#45;&gt;Node6</title>
<path fill="none" stroke="midnightblue" d="M277.48,-168.31C277.16,-154.19 278.78,-126.41 295,-112 331.47,-79.6 464.64,-70.41 548.77,-67.88"/>
<polygon fill="midnightblue" stroke="midnightblue" points="548.88,-71.38 558.78,-67.6 548.69,-64.38 548.88,-71.38"/>
</g>
<!-- Node9 -->
<g id="node9" class="node">
<title>Node9</title>
<g id="a_node9"><a xlink:title=" ">
<polygon fill="white" stroke="#bfbfbf" points="174.5,-112.5 174.5,-131.5 209.5,-131.5 209.5,-112.5 174.5,-112.5"/>
<text text-anchor="middle" x="192" y="-119.5" font-family="Helvetica" font-size="10.00">map</text>
</a>
</g>
</g>
<!-- Node8&#45;&gt;Node9 -->
<g id="edge8" class="edge">
<title>Node8&#45;&gt;Node9</title>
<path fill="none" stroke="midnightblue" d="M264.18,-168.32C250.77,-159.9 230.18,-146.97 214.41,-137.07"/>
<polygon fill="midnightblue" stroke="midnightblue" points="216.11,-134.01 205.78,-131.65 212.39,-139.94 216.11,-134.01"/>
</g>
<!-- Node10 -->
<g id="node10" class="node">
<title>Node10</title>
<g id="a_node10"><a xlink:title=" ">
<polygon fill="white" stroke="#bfbfbf" points="304.5,-112.5 304.5,-131.5 347.5,-131.5 347.5,-112.5 304.5,-112.5"/>
<text text-anchor="middle" x="326" y="-119.5" font-family="Helvetica" font-size="10.00">vector</text>
</a>
</g>
</g>
<!-- Node8&#45;&gt;Node10 -->
<g id="edge9" class="edge">
<title>Node8&#45;&gt;Node10</title>
<path fill="none" stroke="midnightblue" d="M285.93,-168.08C292.85,-160.3 303.07,-148.8 311.45,-139.37"/>
<polygon fill="midnightblue" stroke="midnightblue" points="314.19,-141.55 318.22,-131.75 308.96,-136.9 314.19,-141.55"/>
</g>
<!-- Node11 -->
<g id="node11" class="node">
<title>Node11</title>
<g id="a_node11"><a xlink:title=" ">
<polygon fill="white" stroke="#bfbfbf" points="286.5,-56.5 286.5,-75.5 327.5,-75.5 327.5,-56.5 286.5,-56.5"/>
<text text-anchor="middle" x="307" y="-63.5" font-family="Helvetica" font-size="10.00">string</text>
</a>
</g>
</g>
<!-- Node8&#45;&gt;Node11 -->
<g id="edge10" class="edge">
<title>Node8&#45;&gt;Node11</title>
<path fill="none" stroke="midnightblue" d="M272.49,-168.33C265.16,-155.61 253.99,-131.33 262,-112 266.92,-100.12 276.67,-89.74 285.83,-81.96"/>
<polygon fill="midnightblue" stroke="midnightblue" points="288.25,-84.51 293.94,-75.56 283.92,-79.01 288.25,-84.51"/>
</g>
<!-- Node12&#45;&gt;Node6 -->
<g id="edge16" class="edge">
<title>Node12&#45;&gt;Node6</title>
<path fill="none" stroke="midnightblue" d="M386.68,-224.5C406.95,-215.66 439.38,-201.29 467,-188 484.55,-179.56 488.41,-176.36 506,-168 541.95,-150.91 559.25,-159.52 588,-132 601.32,-119.25 609.88,-99.78 614.76,-85.47"/>
<polygon fill="midnightblue" stroke="midnightblue" points="618.16,-86.32 617.8,-75.74 611.48,-84.24 618.16,-86.32"/>
</g>
<!-- Node12&#45;&gt;Node8 -->
<g id="edge25" class="edge">
<title>Node12&#45;&gt;Node8</title>
<path fill="none" stroke="midnightblue" d="M352.7,-224.32C338.82,-215.9 317.51,-202.97 301.2,-193.07"/>
<polygon fill="midnightblue" stroke="midnightblue" points="302.63,-189.85 292.26,-187.65 299,-195.83 302.63,-189.85"/>
</g>
<!-- Node12&#45;&gt;Node9 -->
<g id="edge14" class="edge">
<title>Node12&#45;&gt;Node9</title>
<path fill="none" stroke="midnightblue" d="M310.13,-230.77C276.08,-226.43 234.41,-215.34 208,-188 196.28,-175.87 192.7,-156.59 191.81,-142.17"/>
<polygon fill="midnightblue" stroke="midnightblue" points="195.3,-141.8 191.56,-131.88 188.3,-141.97 195.3,-141.8"/>
</g>
<!-- Node12&#45;&gt;Node10 -->
<g id="edge13" class="edge">
<title>Node12&#45;&gt;Node10</title>
<path fill="none" stroke="midnightblue" d="M364.99,-224.43C361.93,-211.85 355.64,-187.73 348,-168 344.43,-158.78 339.69,-148.86 335.52,-140.7"/>
<polygon fill="midnightblue" stroke="midnightblue" points="338.58,-139 330.84,-131.76 332.38,-142.25 338.58,-139"/>
</g>
<!-- Node12&#45;&gt;Node11 -->
<g id="edge15" class="edge">
<title>Node12&#45;&gt;Node11</title>
<path fill="none" stroke="midnightblue" d="M310.34,-229.96C273.75,-225.39 226.98,-214.33 194,-188 172.1,-170.51 171.63,-159.23 165,-132 162.9,-123.36 159.75,-119.17 165,-112 190.36,-77.35 242.56,-68.72 276.11,-66.93"/>
<polygon fill="midnightblue" stroke="midnightblue" points="276.42,-70.42 286.29,-66.57 276.17,-63.43 276.42,-70.42"/>
</g>
<!-- Node13 -->
<g id="node13" class="node">
<title>Node13</title>
<g id="a_node13"><a xlink:href="Equation_8h.html" target="_top" xlink:title=" ">
<polygon fill="white" stroke="black" points="395.5,-168.5 395.5,-187.5 458.5,-187.5 458.5,-168.5 395.5,-168.5"/>
<text text-anchor="middle" x="427" y="-175.5" font-family="Helvetica" font-size="10.00">Equation.h</text>
</a>
</g>
</g>
<!-- Node12&#45;&gt;Node13 -->
<g id="edge17" class="edge">
<title>Node12&#45;&gt;Node13</title>
<path fill="none" stroke="midnightblue" d="M376.64,-224.32C385.51,-216.34 398.87,-204.31 409.61,-194.65"/>
<polygon fill="midnightblue" stroke="midnightblue" points="412.09,-197.13 417.18,-187.83 407.41,-191.92 412.09,-197.13"/>
</g>
<!-- Node13&#45;&gt;Node6 -->
<g id="edge21" class="edge">
<title>Node13&#45;&gt;Node6</title>
<path fill="none" stroke="midnightblue" d="M458.52,-171.34C487.27,-165.11 530.01,-153.05 562,-132 581.07,-119.45 597.81,-99.1 608.35,-84.52"/>
<polygon fill="midnightblue" stroke="midnightblue" points="611.5,-86.11 614.33,-75.9 605.75,-82.12 611.5,-86.11"/>
</g>
<!-- Node13&#45;&gt;Node10 -->
<g id="edge19" class="edge">
<title>Node13&#45;&gt;Node10</title>
<path fill="none" stroke="midnightblue" d="M410.77,-168.32C394.65,-159.7 369.7,-146.36 351.04,-136.39"/>
<polygon fill="midnightblue" stroke="midnightblue" points="352.66,-133.28 342.19,-131.65 349.36,-139.46 352.66,-133.28"/>
</g>
<!-- Node13&#45;&gt;Node11 -->
<g id="edge18" class="edge">
<title>Node13&#45;&gt;Node11</title>
<path fill="none" stroke="midnightblue" d="M417.58,-168.37C397.34,-149.81 349.45,-105.91 323.84,-82.44"/>
<polygon fill="midnightblue" stroke="midnightblue" points="326.11,-79.77 316.37,-75.59 321.38,-84.93 326.11,-79.77"/>
</g>
<!-- Node14 -->
<g id="node14" class="node">
<title>Node14</title>
<g id="a_node14"><a xlink:title=" ">
<polygon fill="white" stroke="#bfbfbf" points="488.5,-112.5 488.5,-131.5 553.5,-131.5 553.5,-112.5 488.5,-112.5"/>
<text text-anchor="middle" x="521" y="-119.5" font-family="Helvetica" font-size="10.00">Eigen/Core</text>
</a>
</g>
</g>
<!-- Node13&#45;&gt;Node14 -->
<g id="edge20" class="edge">
<title>Node13&#45;&gt;Node14</title>
<path fill="none" stroke="midnightblue" d="M442.1,-168.32C456.9,-159.82 479.69,-146.73 496.98,-136.8"/>
<polygon fill="midnightblue" stroke="midnightblue" points="499.01,-139.67 505.93,-131.65 495.52,-133.6 499.01,-139.67"/>
</g>
<!-- Node15 -->
<g id="node15" class="node">
<title>Node15</title>
<g id="a_node15"><a xlink:href="Unknown_8h.html" target="_top" xlink:title=" ">
<polygon fill="white" stroke="black" points="404,-112.5 404,-131.5 470,-131.5 470,-112.5 404,-112.5"/>
<text text-anchor="middle" x="437" y="-119.5" font-family="Helvetica" font-size="10.00">Unknown.h</text>
</a>
</g>
</g>
<!-- Node13&#45;&gt;Node15 -->
<g id="edge22" class="edge">
<title>Node13&#45;&gt;Node15</title>
<path fill="none" stroke="midnightblue" d="M428.65,-168.08C429.98,-160.93 431.88,-150.64 433.54,-141.69"/>
<polygon fill="midnightblue" stroke="midnightblue" points="437,-142.22 435.38,-131.75 430.12,-140.95 437,-142.22"/>
</g>
<!-- Node15&#45;&gt;Node6 -->
<g id="edge24" class="edge">
<title>Node15&#45;&gt;Node6</title>
<path fill="none" stroke="midnightblue" d="M466,-112.44C497.18,-103.24 546.93,-88.56 581.41,-78.39"/>
<polygon fill="midnightblue" stroke="midnightblue" points="582.54,-81.7 591.14,-75.52 580.56,-74.99 582.54,-81.7"/>
</g>
<!-- Node15&#45;&gt;Node11 -->
<g id="edge23" class="edge">
<title>Node15&#45;&gt;Node11</title>
<path fill="none" stroke="midnightblue" d="M416.4,-112.44C395.01,-103.56 361.32,-89.56 336.98,-79.45"/>
<polygon fill="midnightblue" stroke="midnightblue" points="338.08,-76.12 327.5,-75.52 335.39,-82.58 338.08,-76.12"/>
</g>
<!-- Node16&#45;&gt;Node6 -->
<g id="edge27" class="edge">
<title>Node16&#45;&gt;Node6</title>
<path fill="none" stroke="midnightblue" d="M592.91,-168.41C607.22,-161.04 625.46,-148.92 634,-132 641.46,-117.22 636.17,-98.6 630.07,-85.08"/>
<polygon fill="midnightblue" stroke="midnightblue" points="633.06,-83.24 625.45,-75.88 626.81,-86.39 633.06,-83.24"/>
</g>
<!-- Node17&#45;&gt;Node6 -->
<g id="edge29" class="edge">
<title>Node17&#45;&gt;Node6</title>
<path fill="none" stroke="midnightblue" d="M701.09,-168.37C686.51,-150.14 652.34,-107.43 633.34,-83.68"/>
<polygon fill="midnightblue" stroke="midnightblue" points="635.85,-81.21 626.87,-75.59 630.39,-85.59 635.85,-81.21"/>
</g>
</g>
</svg>
