<?xml version="1.0" encoding="UTF-8" standalone="no"?>
<!DOCTYPE svg PUBLIC "-//W3C//DTD SVG 1.1//EN"
 "http://www.w3.org/Graphics/SVG/1.1/DTD/svg11.dtd">
<!-- Generated by graphviz version 2.44.0 (0)
 -->
<!-- Title: main Pages: 1 -->
<svg width="375pt" height="28pt"
 viewBox="0.00 0.00 375.00 28.00" xmlns="http://www.w3.org/2000/svg" xmlns:xlink="http://www.w3.org/1999/xlink">
<g id="graph0" class="graph" transform="scale(1 1) rotate(0) translate(4 24)">
<title>main</title>
<polygon fill="white" stroke="transparent" points="-4,4 -4,-24 371,-24 371,4 -4,4"/>
<!-- Node1 -->
<g id="node1" class="node">
<title>Node1</title>
<g id="a_node1"><a xlink:title="Main method. This is the main program entry point.">
<polygon fill="#bfbfbf" stroke="black" points="0,-0.5 0,-19.5 38,-19.5 38,-0.5 0,-0.5"/>
<text text-anchor="middle" x="19" y="-7.5" font-family="Helvetica" font-size="10.00">main</text>
</a>
</g>
</g>
<!-- Node2 -->
<g id="node2" class="node">
<title>Node2</title>
<g id="a_node2"><a xlink:href="classMNASolution.html#a4fef603c0f58a4bff7ca0da98b991f9a" target="_top" xlink:title=" ">
<polygon fill="white" stroke="black" points="74,-0.5 74,-19.5 182,-19.5 182,-0.5 74,-0.5"/>
<text text-anchor="middle" x="128" y="-7.5" font-family="Helvetica" font-size="10.00">MNASolution::equals</text>
</a>
</g>
</g>
<!-- Node1&#45;&gt;Node2 -->
<g id="edge1" class="edge">
<title>Node1&#45;&gt;Node2</title>
<path fill="none" stroke="midnightblue" d="M38.15,-10C45.42,-10 54.26,-10 63.52,-10"/>
<polygon fill="midnightblue" stroke="midnightblue" points="63.67,-13.5 73.67,-10 63.67,-6.5 63.67,-13.5"/>
</g>
<!-- Node3 -->
<g id="node3" class="node">
<title>Node3</title>
<g id="a_node3"><a xlink:href="classMNASolution.html#a1d0e3d261f981b1055ba00a9f70ec3bb" target="_top" xlink:title=" ">
<polygon fill="white" stroke="black" points="218,-0.5 218,-19.5 367,-19.5 367,-0.5 218,-0.5"/>
<text text-anchor="middle" x="292.5" y="-7.5" font-family="Helvetica" font-size="10.00">MNASolution::getNodeVoltage</text>
</a>
</g>
</g>
<!-- Node2&#45;&gt;Node3 -->
<g id="edge2" class="edge">
<title>Node2&#45;&gt;Node3</title>
<path fill="none" stroke="midnightblue" d="M182.21,-10C190.39,-10 199.01,-10 207.66,-10"/>
<polygon fill="midnightblue" stroke="midnightblue" points="207.82,-13.5 217.82,-10 207.82,-6.5 207.82,-13.5"/>
</g>
</g>
</svg>
