<?xml version="1.0" encoding="UTF-8" standalone="no"?>
<!DOCTYPE svg PUBLIC "-//W3C//DTD SVG 1.1//EN"
 "http://www.w3.org/Graphics/SVG/1.1/DTD/svg11.dtd">
<!-- Generated by graphviz version 2.44.0 (0)
 -->
<!-- Title: MNA.h Pages: 1 -->
<!--zoomable 308 -->
<svg id="main" version="1.1" xmlns="http://www.w3.org/2000/svg" xmlns:xlink="http://www.w3.org/1999/xlink" xml:space="preserve" onload="init(evt)">
<style type="text/css"><![CDATA[
.edge:hover path { stroke: red; }
.edge:hover polygon { stroke: red; fill: red; }
]]></style>
<script type="text/javascript"><![CDATA[
var edges = document.getElementsByTagName('g');
if (edges && edges.length) {
  for (var i=0;i<edges.length;i++) {
    if (edges[i].id.substr(0,4)=='edge') {
      edges[i].setAttribute('class','edge');
    }
  }
}
]]></script>
        <defs>
                <circle id="rim" cx="0" cy="0" r="7"/>
                <circle id="rim2" cx="0" cy="0" r="3.5"/>
                <g id="zoomPlus">
                        <use xlink:href="#rim" fill="#404040">
                                <set attributeName="fill" to="#808080" begin="zoomplus.mouseover" end="zoomplus.mouseout"/>
                        </use>
                        <path d="M-4,0h8M0,-4v8" fill="none" stroke="white" stroke-width="1.5" pointer-events="none"/>
                </g>
                <g id="zoomMin">
                        <use xlink:href="#rim" fill="#404040">
                                <set attributeName="fill" to="#808080" begin="zoomminus.mouseover" end="zoomminus.mouseout"/>
                        </use>
                        <path d="M-4,0h8" fill="none" stroke="white" stroke-width="1.5" pointer-events="none"/>
                </g>
                <g id="dirArrow">
                        <path fill="none" stroke="white" stroke-width="1.5" d="M0,-3.0v7 M-2.5,-0.5L0,-3.0L2.5,-0.5"/>
                </g>
               <g id="resetDef">
                       <use xlink:href="#rim2" fill="#404040">
                               <set attributeName="fill" to="#808080" begin="reset.mouseover" end="reset.mouseout"/>
                       </use>
               </g>
        </defs>

<script type="text/javascript">
var viewWidth = 576;
var viewHeight = 308;
var sectionId = 'dynsection-0';
</script>
<script xlink:href="svgpan.js"/>
<svg id="graph" class="graph">
<g id="viewport">
<title>MNA.h</title>
<polygon fill="white" stroke="transparent" points="-4,4 -4,-304 571.96,-304 571.96,4 -4,4"/>
<!-- Node1 -->
<g id="node1" class="node">
<title>Node1</title>
<g id="a_node1"><a xlink:title=" ">
<polygon fill="#bfbfbf" stroke="black" points="332.46,-280.5 332.46,-299.5 379.46,-299.5 379.46,-280.5 332.46,-280.5"/>
<text text-anchor="middle" x="355.96" y="-287.5" font-family="Helvetica" font-size="10.00">MNA.h</text>
</a>
</g>
</g>
<!-- Node2 -->
<g id="node2" class="node">
<title>Node2</title>
<g id="a_node2"><a xlink:href="MNACircuit_8h.html" target="_top" xlink:title=" ">
<polygon fill="white" stroke="black" points="249.96,-224.5 249.96,-243.5 323.96,-243.5 323.96,-224.5 249.96,-224.5"/>
<text text-anchor="middle" x="286.96" y="-231.5" font-family="Helvetica" font-size="10.00">MNACircuit.h</text>
</a>
</g>
</g>
<!-- Node1&#45;&gt;Node2 -->
<g id="edge1" class="edge">
<title>Node1&#45;&gt;Node2</title>
<path fill="none" stroke="midnightblue" d="M344.87,-280.32C334.47,-272.18 318.7,-259.84 306.24,-250.09"/>
<polygon fill="midnightblue" stroke="midnightblue" points="308.28,-247.24 298.24,-243.83 303.96,-252.75 308.28,-247.24"/>
</g>
<!-- Node6 -->
<g id="node6" class="node">
<title>Node6</title>
<g id="a_node6"><a xlink:href="MNAElement_8h.html" target="_top" xlink:title=" ">
<polygon fill="white" stroke="black" points="348.96,-56.5 348.96,-75.5 430.96,-75.5 430.96,-56.5 348.96,-56.5"/>
<text text-anchor="middle" x="389.96" y="-63.5" font-family="Helvetica" font-size="10.00">MNAElement.h</text>
</a>
</g>
</g>
<!-- Node1&#45;&gt;Node6 -->
<g id="edge21" class="edge">
<title>Node1&#45;&gt;Node6</title>
<path fill="none" stroke="midnightblue" d="M364.23,-280.46C379.44,-264.11 411.42,-226.6 423.96,-188 434.4,-155.86 437.14,-143.88 425.96,-112 422.17,-101.21 414.59,-91.08 407.36,-83.18"/>
<polygon fill="midnightblue" stroke="midnightblue" points="409.62,-80.49 400.12,-75.81 404.63,-85.4 409.62,-80.49"/>
</g>
<!-- Node8 -->
<g id="node8" class="node">
<title>Node8</title>
<g id="a_node8"><a xlink:href="Equation_8h.html" target="_top" xlink:title=" ">
<polygon fill="white" stroke="black" points="157.46,-168.5 157.46,-187.5 220.46,-187.5 220.46,-168.5 157.46,-168.5"/>
<text text-anchor="middle" x="188.96" y="-175.5" font-family="Helvetica" font-size="10.00">Equation.h</text>
</a>
</g>
</g>
<!-- Node1&#45;&gt;Node8 -->
<g id="edge22" class="edge">
<title>Node1&#45;&gt;Node8</title>
<path fill="none" stroke="midnightblue" d="M332.14,-283.58C307.55,-277.14 268.93,-264.59 240.96,-244 223.39,-231.07 208.46,-210.79 199.17,-196.32"/>
<polygon fill="midnightblue" stroke="midnightblue" points="202.13,-194.46 193.9,-187.79 196.17,-198.14 202.13,-194.46"/>
</g>
<!-- Node11 -->
<g id="node11" class="node">
<title>Node11</title>
<g id="a_node11"><a xlink:href="MNASolution_8h.html" target="_top" xlink:title=" ">
<polygon fill="white" stroke="black" points="314.96,-168.5 314.96,-187.5 396.96,-187.5 396.96,-168.5 314.96,-168.5"/>
<text text-anchor="middle" x="355.96" y="-175.5" font-family="Helvetica" font-size="10.00">MNASolution.h</text>
</a>
</g>
</g>
<!-- Node1&#45;&gt;Node11 -->
<g id="edge20" class="edge">
<title>Node1&#45;&gt;Node11</title>
<path fill="none" stroke="midnightblue" d="M355.96,-280.37C355.96,-262.62 355.96,-221.67 355.96,-197.6"/>
<polygon fill="midnightblue" stroke="midnightblue" points="359.46,-197.59 355.96,-187.59 352.46,-197.59 359.46,-197.59"/>
</g>
<!-- Node12 -->
<g id="node12" class="node">
<title>Node12</title>
<g id="a_node12"><a xlink:title=" ">
<polygon fill="white" stroke="#bfbfbf" points="493.96,-224.5 493.96,-243.5 567.96,-243.5 567.96,-224.5 493.96,-224.5"/>
<text text-anchor="middle" x="530.96" y="-231.5" font-family="Helvetica" font-size="10.00">Component.h</text>
</a>
</g>
</g>
<!-- Node1&#45;&gt;Node12 -->
<g id="edge23" class="edge">
<title>Node1&#45;&gt;Node12</title>
<path fill="none" stroke="midnightblue" d="M379.56,-281.72C408.77,-272.7 458.87,-257.24 493.39,-246.59"/>
<polygon fill="midnightblue" stroke="midnightblue" points="494.6,-249.88 503.12,-243.59 492.53,-243.19 494.6,-249.88"/>
</g>
<!-- Node3 -->
<g id="node3" class="node">
<title>Node3</title>
<g id="a_node3"><a xlink:title=" ">
<polygon fill="white" stroke="#bfbfbf" points="227.46,-112.5 227.46,-131.5 270.46,-131.5 270.46,-112.5 227.46,-112.5"/>
<text text-anchor="middle" x="248.96" y="-119.5" font-family="Helvetica" font-size="10.00">vector</text>
</a>
</g>
</g>
<!-- Node2&#45;&gt;Node3 -->
<g id="edge2" class="edge">
<title>Node2&#45;&gt;Node3</title>
<path fill="none" stroke="midnightblue" d="M283.98,-224.37C277.82,-206.54 263.57,-165.3 255.27,-141.27"/>
<polygon fill="midnightblue" stroke="midnightblue" points="258.5,-139.9 251.93,-131.59 251.88,-142.19 258.5,-139.9"/>
</g>
<!-- Node4 -->
<g id="node4" class="node">
<title>Node4</title>
<g id="a_node4"><a xlink:title=" ">
<polygon fill="white" stroke="#bfbfbf" points="288.46,-112.5 288.46,-131.5 323.46,-131.5 323.46,-112.5 288.46,-112.5"/>
<text text-anchor="middle" x="305.96" y="-119.5" font-family="Helvetica" font-size="10.00">map</text>
</a>
</g>
</g>
<!-- Node2&#45;&gt;Node4 -->
<g id="edge3" class="edge">
<title>Node2&#45;&gt;Node4</title>
<path fill="none" stroke="midnightblue" d="M288.45,-224.37C291.51,-206.62 298.59,-165.67 302.74,-141.6"/>
<polygon fill="midnightblue" stroke="midnightblue" points="306.22,-142.04 304.47,-131.59 299.32,-140.85 306.22,-142.04"/>
</g>
<!-- Node5 -->
<g id="node5" class="node">
<title>Node5</title>
<g id="a_node5"><a xlink:title=" ">
<polygon fill="white" stroke="#bfbfbf" points="45.46,-56.5 45.46,-75.5 86.46,-75.5 86.46,-56.5 45.46,-56.5"/>
<text text-anchor="middle" x="65.96" y="-63.5" font-family="Helvetica" font-size="10.00">string</text>
</a>
</g>
</g>
<!-- Node2&#45;&gt;Node5 -->
<g id="edge4" class="edge">
<title>Node2&#45;&gt;Node5</title>
<path fill="none" stroke="midnightblue" d="M249.89,-232.57C186.67,-229.56 59.48,-213.16 3.96,-132 -9.59,-112.2 15.53,-92.73 37.73,-80.34"/>
<polygon fill="midnightblue" stroke="midnightblue" points="39.43,-83.4 46.64,-75.64 36.16,-77.21 39.43,-83.4"/>
</g>
<!-- Node2&#45;&gt;Node6 -->
<g id="edge5" class="edge">
<title>Node2&#45;&gt;Node6</title>
<path fill="none" stroke="midnightblue" d="M324.12,-229.86C351.75,-225.36 387.69,-214.44 405.96,-188 427.55,-156.74 411.05,-109.92 399.22,-84.66"/>
<polygon fill="midnightblue" stroke="midnightblue" points="402.28,-82.96 394.71,-75.55 396.01,-86.06 402.28,-82.96"/>
</g>
<!-- Node2&#45;&gt;Node8 -->
<g id="edge7" class="edge">
<title>Node2&#45;&gt;Node8</title>
<path fill="none" stroke="midnightblue" d="M271.21,-224.32C255.64,-215.74 231.58,-202.49 213.5,-192.52"/>
<polygon fill="midnightblue" stroke="midnightblue" points="215.11,-189.42 204.66,-187.65 211.73,-195.55 215.11,-189.42"/>
</g>
<!-- Node2&#45;&gt;Node11 -->
<g id="edge15" class="edge">
<title>Node2&#45;&gt;Node11</title>
<path fill="none" stroke="midnightblue" d="M298.04,-224.32C308.44,-216.18 324.22,-203.84 336.68,-194.09"/>
<polygon fill="midnightblue" stroke="midnightblue" points="338.95,-196.75 344.67,-187.83 334.64,-191.24 338.95,-196.75"/>
</g>
<!-- Node7 -->
<g id="node7" class="node">
<title>Node7</title>
<g id="a_node7"><a xlink:title=" ">
<polygon fill="white" stroke="#bfbfbf" points="367.96,-0.5 367.96,-19.5 411.96,-19.5 411.96,-0.5 367.96,-0.5"/>
<text text-anchor="middle" x="389.96" y="-7.5" font-family="Helvetica" font-size="10.00">cmath</text>
</a>
</g>
</g>
<!-- Node6&#45;&gt;Node7 -->
<g id="edge6" class="edge">
<title>Node6&#45;&gt;Node7</title>
<path fill="none" stroke="midnightblue" d="M389.96,-56.08C389.96,-49.01 389.96,-38.86 389.96,-29.99"/>
<polygon fill="midnightblue" stroke="midnightblue" points="393.46,-29.75 389.96,-19.75 386.46,-29.75 393.46,-29.75"/>
</g>
<!-- Node8&#45;&gt;Node3 -->
<g id="edge9" class="edge">
<title>Node8&#45;&gt;Node3</title>
<path fill="none" stroke="midnightblue" d="M198.6,-168.32C207.47,-160.34 220.83,-148.31 231.57,-138.65"/>
<polygon fill="midnightblue" stroke="midnightblue" points="234.05,-141.13 239.14,-131.83 229.37,-135.92 234.05,-141.13"/>
</g>
<!-- Node8&#45;&gt;Node5 -->
<g id="edge8" class="edge">
<title>Node8&#45;&gt;Node5</title>
<path fill="none" stroke="midnightblue" d="M157.2,-173.56C111.21,-167.84 29.62,-154.71 11.96,-132 -2.01,-114.04 20.75,-93.99 40.88,-80.97"/>
<polygon fill="midnightblue" stroke="midnightblue" points="42.81,-83.89 49.51,-75.68 39.15,-77.92 42.81,-83.89"/>
</g>
<!-- Node8&#45;&gt;Node6 -->
<g id="edge11" class="edge">
<title>Node8&#45;&gt;Node6</title>
<path fill="none" stroke="midnightblue" d="M190.34,-168.41C193.06,-154.44 200.43,-126.87 217.96,-112 251.63,-83.44 301.38,-72.74 338.72,-68.87"/>
<polygon fill="midnightblue" stroke="midnightblue" points="339.26,-72.33 348.9,-67.95 338.62,-65.36 339.26,-72.33"/>
</g>
<!-- Node9 -->
<g id="node9" class="node">
<title>Node9</title>
<g id="a_node9"><a xlink:title=" ">
<polygon fill="white" stroke="#bfbfbf" points="21.46,-112.5 21.46,-131.5 86.46,-131.5 86.46,-112.5 21.46,-112.5"/>
<text text-anchor="middle" x="53.96" y="-119.5" font-family="Helvetica" font-size="10.00">Eigen/Core</text>
</a>
</g>
</g>
<!-- Node8&#45;&gt;Node9 -->
<g id="edge10" class="edge">
<title>Node8&#45;&gt;Node9</title>
<path fill="none" stroke="midnightblue" d="M167.57,-168.44C145.25,-159.52 110.05,-145.44 84.75,-135.32"/>
<polygon fill="midnightblue" stroke="midnightblue" points="85.83,-131.98 75.25,-131.52 83.23,-138.48 85.83,-131.98"/>
</g>
<!-- Node10 -->
<g id="node10" class="node">
<title>Node10</title>
<g id="a_node10"><a xlink:href="Unknown_8h.html" target="_top" xlink:title=" ">
<polygon fill="white" stroke="black" points="104.96,-112.5 104.96,-131.5 170.96,-131.5 170.96,-112.5 104.96,-112.5"/>
<text text-anchor="middle" x="137.96" y="-119.5" font-family="Helvetica" font-size="10.00">Unknown.h</text>
</a>
</g>
</g>
<!-- Node8&#45;&gt;Node10 -->
<g id="edge12" class="edge">
<title>Node8&#45;&gt;Node10</title>
<path fill="none" stroke="midnightblue" d="M180.54,-168.08C173.11,-160.22 162.11,-148.57 153.15,-139.08"/>
<polygon fill="midnightblue" stroke="midnightblue" points="155.63,-136.62 146.22,-131.75 150.54,-141.42 155.63,-136.62"/>
</g>
<!-- Node10&#45;&gt;Node5 -->
<g id="edge13" class="edge">
<title>Node10&#45;&gt;Node5</title>
<path fill="none" stroke="midnightblue" d="M126.39,-112.32C115.54,-104.18 99.08,-91.84 86.07,-82.09"/>
<polygon fill="midnightblue" stroke="midnightblue" points="87.84,-79.03 77.74,-75.83 83.64,-84.63 87.84,-79.03"/>
</g>
<!-- Node10&#45;&gt;Node6 -->
<g id="edge14" class="edge">
<title>Node10&#45;&gt;Node6</title>
<path fill="none" stroke="midnightblue" d="M171.16,-113.88C214.3,-104.64 290,-88.42 340.06,-77.69"/>
<polygon fill="midnightblue" stroke="midnightblue" points="340.98,-81.07 350.03,-75.56 339.52,-74.23 340.98,-81.07"/>
</g>
<!-- Node11&#45;&gt;Node3 -->
<g id="edge17" class="edge">
<title>Node11&#45;&gt;Node3</title>
<path fill="none" stroke="midnightblue" d="M338.77,-168.32C321.61,-159.66 295.01,-146.24 275.21,-136.25"/>
<polygon fill="midnightblue" stroke="midnightblue" points="276.61,-133.04 266.11,-131.65 273.46,-139.28 276.61,-133.04"/>
</g>
<!-- Node11&#45;&gt;Node4 -->
<g id="edge16" class="edge">
<title>Node11&#45;&gt;Node4</title>
<path fill="none" stroke="midnightblue" d="M347.7,-168.08C340.49,-160.3 329.85,-148.8 321.11,-139.37"/>
<polygon fill="midnightblue" stroke="midnightblue" points="323.42,-136.71 314.06,-131.75 318.29,-141.47 323.42,-136.71"/>
</g>
<!-- Node11&#45;&gt;Node5 -->
<g id="edge18" class="edge">
<title>Node11&#45;&gt;Node5</title>
<path fill="none" stroke="midnightblue" d="M355.56,-168.29C354.42,-154.15 350,-126.32 332.96,-112 297.58,-82.27 159.03,-71.66 96.67,-68.34"/>
<polygon fill="midnightblue" stroke="midnightblue" points="96.81,-64.84 86.65,-67.84 96.46,-71.84 96.81,-64.84"/>
</g>
<!-- Node11&#45;&gt;Node6 -->
<g id="edge19" class="edge">
<title>Node11&#45;&gt;Node6</title>
<path fill="none" stroke="midnightblue" d="M358.63,-168.37C364.14,-150.54 376.88,-109.3 384.31,-85.27"/>
<polygon fill="midnightblue" stroke="midnightblue" points="387.69,-86.18 387.3,-75.59 381,-84.11 387.69,-86.18"/>
</g>
</g>
</svg>
        <g id="navigator" transform="translate(0 0)" fill="#404254">
                <rect fill="#f2f5e9" fill-opacity="0.5" stroke="#606060" stroke-width=".5" x="0" y="0" width="60" height="60"/>
                <use id="zoomplus" xlink:href="#zoomPlus" x="17" y="9" onmousedown="handleZoom(evt,'in')"/>
                <use id="zoomminus" xlink:href="#zoomMin" x="42" y="9" onmousedown="handleZoom(evt,'out')"/>
                <use id="reset" xlink:href="#resetDef" x="30" y="36" onmousedown="handleReset()"/>
                <g id="arrowUp" xlink:href="#dirArrow" transform="translate(30 24)" onmousedown="handlePan(0,-1)">
                  <use xlink:href="#rim" fill="#404040">
                        <set attributeName="fill" to="#808080" begin="arrowUp.mouseover" end="arrowUp.mouseout"/>
                  </use>
                  <path fill="none" stroke="white" stroke-width="1.5" d="M0,-3.0v7 M-2.5,-0.5L0,-3.0L2.5,-0.5"/>
                </g>
                <g id="arrowRight" xlink:href="#dirArrow" transform="rotate(90) translate(36 -43)" onmousedown="handlePan(1,0)">
                  <use xlink:href="#rim" fill="#404040">
                        <set attributeName="fill" to="#808080" begin="arrowRight.mouseover" end="arrowRight.mouseout"/>
                  </use>
                  <path fill="none" stroke="white" stroke-width="1.5" d="M0,-3.0v7 M-2.5,-0.5L0,-3.0L2.5,-0.5"/>
                </g>
                <g id="arrowDown" xlink:href="#dirArrow" transform="rotate(180) translate(-30 -48)" onmousedown="handlePan(0,1)">
                  <use xlink:href="#rim" fill="#404040">
                        <set attributeName="fill" to="#808080" begin="arrowDown.mouseover" end="arrowDown.mouseout"/>
                  </use>
                  <path fill="none" stroke="white" stroke-width="1.5" d="M0,-3.0v7 M-2.5,-0.5L0,-3.0L2.5,-0.5"/>
                </g>
                <g id="arrowLeft" xlink:href="#dirArrow" transform="rotate(270) translate(-36 17)" onmousedown="handlePan(-1,0)">
                  <use xlink:href="#rim" fill="#404040">
                        <set attributeName="fill" to="#808080" begin="arrowLeft.mouseover" end="arrowLeft.mouseout"/>
                  </use>
                  <path fill="none" stroke="white" stroke-width="1.5" d="M0,-3.0v7 M-2.5,-0.5L0,-3.0L2.5,-0.5"/>
                </g>
        </g>
        <svg viewBox="0 0 15 15" width="100%" height="30px" preserveAspectRatio="xMaxYMin meet">
         <g id="arrow_out" transform="scale(0.3 0.3)">
          <a xlink:href="MNA_8h__incl_org.svg" target="_base">
           <rect id="button" ry="5" rx="5" y="6" x="6" height="38" width="38"
                fill="#f2f5e9" fill-opacity="0.5" stroke="#606060" stroke-width="1.0"/>
           <path id="arrow"
             d="M 11.500037,31.436501 C 11.940474,20.09759 22.043105,11.32322 32.158766,21.979434 L 37.068811,17.246167 C 37.068811,17.246167 37.088388,32 37.088388,32 L 22.160133,31.978069 C 22.160133,31.978069 26.997745,27.140456 26.997745,27.140456 C 18.528582,18.264221 13.291696,25.230495 11.500037,31.436501 z"
             style="fill:#404040;"/>
          </a>
         </g>
        </svg>
</svg>
