<?xml version="1.0" encoding="UTF-8" standalone="no"?>
<!DOCTYPE svg PUBLIC "-//W3C//DTD SVG 1.1//EN"
 "http://www.w3.org/Graphics/SVG/1.1/DTD/svg11.dtd">
<!-- Generated by graphviz version 2.44.0 (0)
 -->
<!-- Title: MNACircuit.h Pages: 1 -->
<svg width="427pt" height="252pt"
 viewBox="0.00 0.00 427.31 252.00" xmlns="http://www.w3.org/2000/svg" xmlns:xlink="http://www.w3.org/1999/xlink">
<g id="graph0" class="graph" transform="scale(1 1) rotate(0) translate(4 248)">
<title>MNACircuit.h</title>
<polygon fill="white" stroke="transparent" points="-4,4 -4,-248 423.31,-248 423.31,4 -4,4"/>
<!-- Node1 -->
<g id="node1" class="node">
<title>Node1</title>
<g id="a_node1"><a xlink:title=" ">
<polygon fill="#bfbfbf" stroke="black" points="242.16,-224.5 242.16,-243.5 316.16,-243.5 316.16,-224.5 242.16,-224.5"/>
<text text-anchor="middle" x="279.16" y="-231.5" font-family="Helvetica" font-size="10.00">MNACircuit.h</text>
</a>
</g>
</g>
<!-- Node2 -->
<g id="node2" class="node">
<title>Node2</title>
<g id="a_node2"><a xlink:title=" ">
<polygon fill="white" stroke="#bfbfbf" points="227.66,-112.5 227.66,-131.5 270.66,-131.5 270.66,-112.5 227.66,-112.5"/>
<text text-anchor="middle" x="249.16" y="-119.5" font-family="Helvetica" font-size="10.00">vector</text>
</a>
</g>
</g>
<!-- Node1&#45;&gt;Node2 -->
<g id="edge1" class="edge">
<title>Node1&#45;&gt;Node2</title>
<path fill="none" stroke="midnightblue" d="M276.03,-224.45C272.82,-215.45 267.77,-200.84 264.16,-188 259.84,-172.65 255.82,-155.01 253.04,-141.99"/>
<polygon fill="midnightblue" stroke="midnightblue" points="256.4,-140.97 250.93,-131.9 249.55,-142.4 256.4,-140.97"/>
</g>
<!-- Node3 -->
<g id="node3" class="node">
<title>Node3</title>
<g id="a_node3"><a xlink:title=" ">
<polygon fill="white" stroke="#bfbfbf" points="365.66,-112.5 365.66,-131.5 400.66,-131.5 400.66,-112.5 365.66,-112.5"/>
<text text-anchor="middle" x="383.16" y="-119.5" font-family="Helvetica" font-size="10.00">map</text>
</a>
</g>
</g>
<!-- Node1&#45;&gt;Node3 -->
<g id="edge2" class="edge">
<title>Node1&#45;&gt;Node3</title>
<path fill="none" stroke="midnightblue" d="M307.81,-224.36C326.37,-217.37 349.7,-205.73 364.16,-188 374.94,-174.77 379.61,-155.64 381.62,-141.56"/>
<polygon fill="midnightblue" stroke="midnightblue" points="385.11,-141.88 382.74,-131.55 378.15,-141.11 385.11,-141.88"/>
</g>
<!-- Node4 -->
<g id="node4" class="node">
<title>Node4</title>
<g id="a_node4"><a xlink:title=" ">
<polygon fill="white" stroke="#bfbfbf" points="76.66,-56.5 76.66,-75.5 117.66,-75.5 117.66,-56.5 76.66,-56.5"/>
<text text-anchor="middle" x="97.16" y="-63.5" font-family="Helvetica" font-size="10.00">string</text>
</a>
</g>
</g>
<!-- Node1&#45;&gt;Node4 -->
<g id="edge3" class="edge">
<title>Node1&#45;&gt;Node4</title>
<path fill="none" stroke="midnightblue" d="M242.01,-232.55C179.47,-229.49 54.99,-212.99 4.16,-132 -13.64,-103.65 33.16,-84.3 66.65,-74.49"/>
<polygon fill="midnightblue" stroke="midnightblue" points="67.82,-77.79 76.53,-71.75 65.95,-71.05 67.82,-77.79"/>
</g>
<!-- Node5 -->
<g id="node5" class="node">
<title>Node5</title>
<g id="a_node5"><a xlink:href="MNAElement_8h.html" target="_top" xlink:title=" ">
<polygon fill="white" stroke="black" points="199.16,-56.5 199.16,-75.5 281.16,-75.5 281.16,-56.5 199.16,-56.5"/>
<text text-anchor="middle" x="240.16" y="-63.5" font-family="Helvetica" font-size="10.00">MNAElement.h</text>
</a>
</g>
</g>
<!-- Node1&#45;&gt;Node5 -->
<g id="edge4" class="edge">
<title>Node1&#45;&gt;Node5</title>
<path fill="none" stroke="midnightblue" d="M315.04,-224.37C336.95,-217.56 364.28,-206.12 383.16,-188 409.01,-163.18 432.02,-140.41 410.16,-112 395.69,-93.2 336.14,-80.64 291.58,-73.68"/>
<polygon fill="midnightblue" stroke="midnightblue" points="291.88,-70.18 281.47,-72.15 290.83,-77.1 291.88,-70.18"/>
</g>
<!-- Node7 -->
<g id="node7" class="node">
<title>Node7</title>
<g id="a_node7"><a xlink:href="Equation_8h.html" target="_top" xlink:title=" ">
<polygon fill="white" stroke="black" points="129.66,-168.5 129.66,-187.5 192.66,-187.5 192.66,-168.5 129.66,-168.5"/>
<text text-anchor="middle" x="161.16" y="-175.5" font-family="Helvetica" font-size="10.00">Equation.h</text>
</a>
</g>
</g>
<!-- Node1&#45;&gt;Node7 -->
<g id="edge6" class="edge">
<title>Node1&#45;&gt;Node7</title>
<path fill="none" stroke="midnightblue" d="M260.46,-224.44C241.21,-215.64 211,-201.81 188.95,-191.72"/>
<polygon fill="midnightblue" stroke="midnightblue" points="190.31,-188.5 179.77,-187.52 187.4,-194.86 190.31,-188.5"/>
</g>
<!-- Node10 -->
<g id="node10" class="node">
<title>Node10</title>
<g id="a_node10"><a xlink:href="MNASolution_8h.html" target="_top" xlink:title=" ">
<polygon fill="white" stroke="black" points="273.16,-168.5 273.16,-187.5 355.16,-187.5 355.16,-168.5 273.16,-168.5"/>
<text text-anchor="middle" x="314.16" y="-175.5" font-family="Helvetica" font-size="10.00">MNASolution.h</text>
</a>
</g>
</g>
<!-- Node1&#45;&gt;Node10 -->
<g id="edge14" class="edge">
<title>Node1&#45;&gt;Node10</title>
<path fill="none" stroke="midnightblue" d="M284.93,-224.08C289.83,-216.53 296.98,-205.49 302.99,-196.23"/>
<polygon fill="midnightblue" stroke="midnightblue" points="305.98,-198.05 308.48,-187.75 300.11,-194.24 305.98,-198.05"/>
</g>
<!-- Node6 -->
<g id="node6" class="node">
<title>Node6</title>
<g id="a_node6"><a xlink:title=" ">
<polygon fill="white" stroke="#bfbfbf" points="218.16,-0.5 218.16,-19.5 262.16,-19.5 262.16,-0.5 218.16,-0.5"/>
<text text-anchor="middle" x="240.16" y="-7.5" font-family="Helvetica" font-size="10.00">cmath</text>
</a>
</g>
</g>
<!-- Node5&#45;&gt;Node6 -->
<g id="edge5" class="edge">
<title>Node5&#45;&gt;Node6</title>
<path fill="none" stroke="midnightblue" d="M240.16,-56.08C240.16,-49.01 240.16,-38.86 240.16,-29.99"/>
<polygon fill="midnightblue" stroke="midnightblue" points="243.66,-29.75 240.16,-19.75 236.66,-29.75 243.66,-29.75"/>
</g>
<!-- Node7&#45;&gt;Node2 -->
<g id="edge8" class="edge">
<title>Node7&#45;&gt;Node2</title>
<path fill="none" stroke="midnightblue" d="M175.29,-168.32C189.02,-159.9 210.09,-146.97 226.22,-137.07"/>
<polygon fill="midnightblue" stroke="midnightblue" points="228.36,-139.87 235.05,-131.65 224.7,-133.9 228.36,-139.87"/>
</g>
<!-- Node7&#45;&gt;Node4 -->
<g id="edge7" class="edge">
<title>Node7&#45;&gt;Node4</title>
<path fill="none" stroke="midnightblue" d="M129.41,-177.6C94.27,-176.34 39.06,-168.23 12.16,-132 -6.33,-107.1 35.43,-87.04 66.73,-76.09"/>
<polygon fill="midnightblue" stroke="midnightblue" points="68.06,-79.34 76.44,-72.86 65.85,-72.69 68.06,-79.34"/>
</g>
<!-- Node7&#45;&gt;Node5 -->
<g id="edge10" class="edge">
<title>Node7&#45;&gt;Node5</title>
<path fill="none" stroke="midnightblue" d="M167.35,-168.37C180.39,-150.22 210.85,-107.8 227.95,-83.99"/>
<polygon fill="midnightblue" stroke="midnightblue" points="230.99,-85.76 233.98,-75.59 225.31,-81.67 230.99,-85.76"/>
</g>
<!-- Node8 -->
<g id="node8" class="node">
<title>Node8</title>
<g id="a_node8"><a xlink:title=" ">
<polygon fill="white" stroke="#bfbfbf" points="21.66,-112.5 21.66,-131.5 86.66,-131.5 86.66,-112.5 21.66,-112.5"/>
<text text-anchor="middle" x="54.16" y="-119.5" font-family="Helvetica" font-size="10.00">Eigen/Core</text>
</a>
</g>
</g>
<!-- Node7&#45;&gt;Node8 -->
<g id="edge9" class="edge">
<title>Node7&#45;&gt;Node8</title>
<path fill="none" stroke="midnightblue" d="M143.96,-168.32C126.8,-159.66 100.21,-146.24 80.41,-136.25"/>
<polygon fill="midnightblue" stroke="midnightblue" points="81.81,-133.04 71.3,-131.65 78.65,-139.28 81.81,-133.04"/>
</g>
<!-- Node9 -->
<g id="node9" class="node">
<title>Node9</title>
<g id="a_node9"><a xlink:href="Unknown_8h.html" target="_top" xlink:title=" ">
<polygon fill="white" stroke="black" points="105.16,-112.5 105.16,-131.5 171.16,-131.5 171.16,-112.5 105.16,-112.5"/>
<text text-anchor="middle" x="138.16" y="-119.5" font-family="Helvetica" font-size="10.00">Unknown.h</text>
</a>
</g>
</g>
<!-- Node7&#45;&gt;Node9 -->
<g id="edge11" class="edge">
<title>Node7&#45;&gt;Node9</title>
<path fill="none" stroke="midnightblue" d="M157.36,-168.08C154.24,-160.77 149.73,-150.18 145.87,-141.1"/>
<polygon fill="midnightblue" stroke="midnightblue" points="149.02,-139.58 141.88,-131.75 142.58,-142.32 149.02,-139.58"/>
</g>
<!-- Node9&#45;&gt;Node4 -->
<g id="edge12" class="edge">
<title>Node9&#45;&gt;Node4</title>
<path fill="none" stroke="midnightblue" d="M131.38,-112.08C125.59,-104.46 117.1,-93.26 110.02,-83.94"/>
<polygon fill="midnightblue" stroke="midnightblue" points="112.63,-81.6 103.8,-75.75 107.06,-85.83 112.63,-81.6"/>
</g>
<!-- Node9&#45;&gt;Node5 -->
<g id="edge13" class="edge">
<title>Node9&#45;&gt;Node5</title>
<path fill="none" stroke="midnightblue" d="M154.54,-112.32C170.83,-103.7 196.02,-90.36 214.87,-80.39"/>
<polygon fill="midnightblue" stroke="midnightblue" points="216.61,-83.43 223.81,-75.65 213.33,-77.24 216.61,-83.43"/>
</g>
<!-- Node10&#45;&gt;Node2 -->
<g id="edge16" class="edge">
<title>Node10&#45;&gt;Node2</title>
<path fill="none" stroke="midnightblue" d="M303.71,-168.32C294.01,-160.26 279.34,-148.08 267.66,-138.37"/>
<polygon fill="midnightblue" stroke="midnightblue" points="269.72,-135.53 259.79,-131.83 265.24,-140.92 269.72,-135.53"/>
</g>
<!-- Node10&#45;&gt;Node3 -->
<g id="edge15" class="edge">
<title>Node10&#45;&gt;Node3</title>
<path fill="none" stroke="midnightblue" d="M325.24,-168.32C335.64,-160.18 351.42,-147.84 363.88,-138.09"/>
<polygon fill="midnightblue" stroke="midnightblue" points="366.15,-140.75 371.87,-131.83 361.84,-135.24 366.15,-140.75"/>
</g>
<!-- Node10&#45;&gt;Node4 -->
<g id="edge17" class="edge">
<title>Node10&#45;&gt;Node4</title>
<path fill="none" stroke="midnightblue" d="M311.96,-168.35C307.93,-154.3 297.99,-126.61 279.16,-112 255.65,-93.77 172.94,-78.64 127.55,-71.47"/>
<polygon fill="midnightblue" stroke="midnightblue" points="128.08,-68.01 117.66,-69.94 127.01,-74.92 128.08,-68.01"/>
</g>
<!-- Node10&#45;&gt;Node5 -->
<g id="edge18" class="edge">
<title>Node10&#45;&gt;Node5</title>
<path fill="none" stroke="midnightblue" d="M316.5,-168.32C319.53,-155.18 323.31,-129.86 313.16,-112 304.89,-97.45 289.81,-87.01 275.5,-79.86"/>
<polygon fill="midnightblue" stroke="midnightblue" points="276.83,-76.62 266.28,-75.64 273.91,-82.99 276.83,-76.62"/>
</g>
</g>
</svg>
