<?xml version="1.0" encoding="UTF-8" standalone="no"?>
<!DOCTYPE svg PUBLIC "-//W3C//DTD SVG 1.1//EN"
 "http://www.w3.org/Graphics/SVG/1.1/DTD/svg11.dtd">
<!-- Generated by graphviz version 2.44.0 (0)
 -->
<!-- Title: MNACircuit.h Pages: 1 -->
<svg width="458pt" height="84pt"
 viewBox="0.00 0.00 457.50 84.00" xmlns="http://www.w3.org/2000/svg" xmlns:xlink="http://www.w3.org/1999/xlink">
<g id="graph0" class="graph" transform="scale(1 1) rotate(0) translate(4 80)">
<title>MNACircuit.h</title>
<polygon fill="white" stroke="transparent" points="-4,4 -4,-80 453.5,-80 453.5,4 -4,4"/>
<!-- Node1 -->
<g id="node1" class="node">
<title>Node1</title>
<g id="a_node1"><a xlink:title=" ">
<polygon fill="#bfbfbf" stroke="black" points="158.5,-56.5 158.5,-75.5 232.5,-75.5 232.5,-56.5 158.5,-56.5"/>
<text text-anchor="middle" x="195.5" y="-63.5" font-family="Helvetica" font-size="10.00">MNACircuit.h</text>
</a>
</g>
</g>
<!-- Node2 -->
<g id="node2" class="node">
<title>Node2</title>
<g id="a_node2"><a xlink:href="MNA_8h.html" target="_top" xlink:title=" ">
<polygon fill="white" stroke="black" points="0,-0.5 0,-19.5 47,-19.5 47,-0.5 0,-0.5"/>
<text text-anchor="middle" x="23.5" y="-7.5" font-family="Helvetica" font-size="10.00">MNA.h</text>
</a>
</g>
</g>
<!-- Node1&#45;&gt;Node2 -->
<g id="edge1" class="edge">
<title>Node1&#45;&gt;Node2</title>
<path fill="none" stroke="midnightblue" d="M158.28,-53.32C124.5,-42.71 75.71,-27.39 47.03,-18.39"/>
<polygon fill="midnightblue" stroke="midnightblue" points="157.66,-56.79 168.25,-56.44 159.75,-50.11 157.66,-56.79"/>
</g>
<!-- Node3 -->
<g id="node3" class="node">
<title>Node3</title>
<g id="a_node3"><a xlink:href="MNACircuit_8cpp.html" target="_top" xlink:title=" ">
<polygon fill="white" stroke="black" points="65.5,-0.5 65.5,-19.5 149.5,-19.5 149.5,-0.5 65.5,-0.5"/>
<text text-anchor="middle" x="107.5" y="-7.5" font-family="Helvetica" font-size="10.00">MNACircuit.cpp</text>
</a>
</g>
</g>
<!-- Node1&#45;&gt;Node3 -->
<g id="edge2" class="edge">
<title>Node1&#45;&gt;Node3</title>
<path fill="none" stroke="midnightblue" d="M172.52,-50.9C156.39,-41 135.32,-28.07 121.6,-19.65"/>
<polygon fill="midnightblue" stroke="midnightblue" points="171.01,-54.08 181.36,-56.32 174.67,-48.11 171.01,-54.08"/>
</g>
<!-- Node4 -->
<g id="node4" class="node">
<title>Node4</title>
<g id="a_node4"><a xlink:href="main_8cpp.html" target="_top" xlink:title=" ">
<polygon fill="white" stroke="black" points="167.5,-0.5 167.5,-19.5 223.5,-19.5 223.5,-0.5 167.5,-0.5"/>
<text text-anchor="middle" x="195.5" y="-7.5" font-family="Helvetica" font-size="10.00">main.cpp</text>
</a>
</g>
</g>
<!-- Node1&#45;&gt;Node4 -->
<g id="edge3" class="edge">
<title>Node1&#45;&gt;Node4</title>
<path fill="none" stroke="midnightblue" d="M195.5,-45.8C195.5,-36.91 195.5,-26.78 195.5,-19.75"/>
<polygon fill="midnightblue" stroke="midnightblue" points="192,-46.08 195.5,-56.08 199,-46.08 192,-46.08"/>
</g>
<!-- Node5 -->
<g id="node5" class="node">
<title>Node5</title>
<g id="a_node5"><a xlink:href="Test__MNA_8cpp.html" target="_top" xlink:title=" ">
<polygon fill="white" stroke="black" points="242,-0.5 242,-19.5 323,-19.5 323,-0.5 242,-0.5"/>
<text text-anchor="middle" x="282.5" y="-7.5" font-family="Helvetica" font-size="10.00">Test_MNA.cpp</text>
</a>
</g>
</g>
<!-- Node1&#45;&gt;Node5 -->
<g id="edge4" class="edge">
<title>Node1&#45;&gt;Node5</title>
<path fill="none" stroke="midnightblue" d="M218.22,-50.9C234.17,-41 255,-28.07 268.56,-19.65"/>
<polygon fill="midnightblue" stroke="midnightblue" points="216.13,-48.08 209.48,-56.32 219.82,-54.02 216.13,-48.08"/>
</g>
<!-- Node6 -->
<g id="node6" class="node">
<title>Node6</title>
<g id="a_node6"><a xlink:href="Test__MNACircuit_8cpp.html" target="_top" xlink:title=" ">
<polygon fill="white" stroke="black" points="341.5,-0.5 341.5,-19.5 449.5,-19.5 449.5,-0.5 341.5,-0.5"/>
<text text-anchor="middle" x="395.5" y="-7.5" font-family="Helvetica" font-size="10.00">Test_MNACircuit.cpp</text>
</a>
</g>
</g>
<!-- Node1&#45;&gt;Node6 -->
<g id="edge5" class="edge">
<title>Node1&#45;&gt;Node6</title>
<path fill="none" stroke="midnightblue" d="M236.87,-53.83C274.64,-43.63 329.64,-28.78 363.96,-19.52"/>
<polygon fill="midnightblue" stroke="midnightblue" points="235.93,-50.46 227.19,-56.44 237.76,-57.22 235.93,-50.46"/>
</g>
</g>
</svg>
