<?xml version="1.0" encoding="UTF-8" standalone="no"?>
<!DOCTYPE svg PUBLIC "-//W3C//DTD SVG 1.1//EN"
 "http://www.w3.org/Graphics/SVG/1.1/DTD/svg11.dtd">
<!-- Generated by graphviz version 2.44.0 (0)
 -->
<!-- Title: MNAComponent.cpp Pages: 1 -->
<svg width="162pt" height="140pt"
 viewBox="0.00 0.00 162.00 140.00" xmlns="http://www.w3.org/2000/svg" xmlns:xlink="http://www.w3.org/1999/xlink">
<g id="graph0" class="graph" transform="scale(1 1) rotate(0) translate(4 136)">
<title>MNAComponent.cpp</title>
<polygon fill="white" stroke="transparent" points="-4,4 -4,-136 158,-136 158,4 -4,4"/>
<!-- Node1 -->
<g id="node1" class="node">
<title>Node1</title>
<g id="a_node1"><a xlink:title=" ">
<polygon fill="#bfbfbf" stroke="black" points="24,-112.5 24,-131.5 116,-131.5 116,-112.5 24,-112.5"/>
<text text-anchor="middle" x="70" y="-119.5" font-family="Helvetica" font-size="10.00">MNAComponent.cpp</text>
</a>
</g>
</g>
<!-- Node2 -->
<g id="node2" class="node">
<title>Node2</title>
<g id="a_node2"><a xlink:title=" ">
<polygon fill="white" stroke="#bfbfbf" points="0,-56.5 0,-75.5 54,-75.5 54,-56.5 0,-56.5"/>
<text text-anchor="middle" x="27" y="-63.5" font-family="Helvetica" font-size="10.00">iostream</text>
</a>
</g>
</g>
<!-- Node1&#45;&gt;Node2 -->
<g id="edge1" class="edge">
<title>Node1&#45;&gt;Node2</title>
<path fill="none" stroke="midnightblue" d="M62.9,-112.08C56.76,-104.38 47.73,-93.03 40.26,-83.65"/>
<polygon fill="midnightblue" stroke="midnightblue" points="42.94,-81.39 33.97,-75.75 37.46,-85.75 42.94,-81.39"/>
</g>
<!-- Node3 -->
<g id="node3" class="node">
<title>Node3</title>
<g id="a_node3"><a xlink:href="MNAElement_8h.html" target="_top" xlink:title=" ">
<polygon fill="white" stroke="black" points="72,-56.5 72,-75.5 154,-75.5 154,-56.5 72,-56.5"/>
<text text-anchor="middle" x="113" y="-63.5" font-family="Helvetica" font-size="10.00">MNAComponent.h</text>
</a>
</g>
</g>
<!-- Node1&#45;&gt;Node3 -->
<g id="edge2" class="edge">
<title>Node1&#45;&gt;Node3</title>
<path fill="none" stroke="midnightblue" d="M77.1,-112.08C83.24,-104.38 92.27,-93.03 99.74,-83.65"/>
<polygon fill="midnightblue" stroke="midnightblue" points="102.54,-85.75 106.03,-75.75 97.06,-81.39 102.54,-85.75"/>
</g>
<!-- Node4 -->
<g id="node4" class="node">
<title>Node4</title>
<g id="a_node4"><a xlink:title=" ">
<polygon fill="white" stroke="#bfbfbf" points="91,-0.5 91,-19.5 135,-19.5 135,-0.5 91,-0.5"/>
<text text-anchor="middle" x="113" y="-7.5" font-family="Helvetica" font-size="10.00">cmath</text>
</a>
</g>
</g>
<!-- Node3&#45;&gt;Node4 -->
<g id="edge3" class="edge">
<title>Node3&#45;&gt;Node4</title>
<path fill="none" stroke="midnightblue" d="M113,-56.08C113,-49.01 113,-38.86 113,-29.99"/>
<polygon fill="midnightblue" stroke="midnightblue" points="116.5,-29.75 113,-19.75 109.5,-29.75 116.5,-29.75"/>
</g>
</g>
</svg>
