<?xml version="1.0" encoding="UTF-8" standalone="no"?>
<!DOCTYPE svg PUBLIC "-//W3C//DTD SVG 1.1//EN"
 "http://www.w3.org/Graphics/SVG/1.1/DTD/svg11.dtd">
<!-- Generated by graphviz version 2.44.0 (0)
 -->
<!-- Title: MNAComponent.h Pages: 1 -->
<!--zoomable 252 -->
<svg id="main" version="1.1" xmlns="http://www.w3.org/2000/svg" xmlns:xlink="http://www.w3.org/1999/xlink" xml:space="preserve" onload="init(evt)">
<style type="text/css"><![CDATA[
.edge:hover path { stroke: red; }
.edge:hover polygon { stroke: red; fill: red; }
]]></style>
<script type="text/javascript"><![CDATA[
var edges = document.getElementsByTagName('g');
if (edges && edges.length) {
  for (var i=0;i<edges.length;i++) {
    if (edges[i].id.substr(0,4)=='edge') {
      edges[i].setAttribute('class','edge');
    }
  }
}
]]></script>
        <defs>
                <circle id="rim" cx="0" cy="0" r="7"/>
                <circle id="rim2" cx="0" cy="0" r="3.5"/>
                <g id="zoomPlus">
                        <use xlink:href="#rim" fill="#404040">
                                <set attributeName="fill" to="#808080" begin="zoomplus.mouseover" end="zoomplus.mouseout"/>
                        </use>
                        <path d="M-4,0h8M0,-4v8" fill="none" stroke="white" stroke-width="1.5" pointer-events="none"/>
                </g>
                <g id="zoomMin">
                        <use xlink:href="#rim" fill="#404040">
                                <set attributeName="fill" to="#808080" begin="zoomminus.mouseover" end="zoomminus.mouseout"/>
                        </use>
                        <path d="M-4,0h8" fill="none" stroke="white" stroke-width="1.5" pointer-events="none"/>
                </g>
                <g id="dirArrow">
                        <path fill="none" stroke="white" stroke-width="1.5" d="M0,-3.0v7 M-2.5,-0.5L0,-3.0L2.5,-0.5"/>
                </g>
               <g id="resetDef">
                       <use xlink:href="#rim2" fill="#404040">
                               <set attributeName="fill" to="#808080" begin="reset.mouseover" end="reset.mouseout"/>
                       </use>
               </g>
        </defs>

<script type="text/javascript">
var viewWidth = 899;
var viewHeight = 252;
var sectionId = 'dynsection-1';
</script>
<script xlink:href="svgpan.js"/>
<svg id="graph" class="graph">
<g id="viewport">
<title>MNAComponent.h</title>
<polygon fill="white" stroke="transparent" points="-4,4 -4,-248 895.06,-248 895.06,4 -4,4"/>
<!-- Node1 -->
<g id="node1" class="node">
<title>Node1</title>
<g id="a_node1"><a xlink:title=" ">
<polygon fill="#bfbfbf" stroke="black" points="389.06,-224.5 389.06,-243.5 471.06,-243.5 471.06,-224.5 389.06,-224.5"/>
<text text-anchor="middle" x="430.06" y="-231.5" font-family="Helvetica" font-size="10.00">MNAComponent.h</text>
</a>
</g>
</g>
<!-- Node2 -->
<g id="node2" class="node">
<title>Node2</title>
<g id="a_node2"><a xlink:href="Equation_8h.html" target="_top" xlink:title=" ">
<polygon fill="white" stroke="black" points="173.56,-112.5 173.56,-131.5 236.56,-131.5 236.56,-112.5 173.56,-112.5"/>
<text text-anchor="middle" x="205.06" y="-119.5" font-family="Helvetica" font-size="10.00">Equation.h</text>
</a>
</g>
</g>
<!-- Node1&#45;&gt;Node2 -->
<g id="edge1" class="edge">
<title>Node1&#45;&gt;Node2</title>
<path fill="none" stroke="midnightblue" d="M378.76,-223.71C348.2,-216.77 309.39,-205.43 278.06,-188 250.77,-172.82 225,-145.88 212.66,-131.93"/>
<polygon fill="midnightblue" stroke="midnightblue" points="378.26,-227.19 388.78,-225.9 379.76,-220.35 378.26,-227.19"/>
</g>
<!-- Node4 -->
<g id="node4" class="node">
<title>Node4</title>
<g id="a_node4"><a xlink:href="MNA_8h.html" target="_top" xlink:title=" ">
<polygon fill="white" stroke="black" points="90.56,-0.5 90.56,-19.5 137.56,-19.5 137.56,-0.5 90.56,-0.5"/>
<text text-anchor="middle" x="114.06" y="-7.5" font-family="Helvetica" font-size="10.00">MNA.h</text>
</a>
</g>
</g>
<!-- Node1&#45;&gt;Node4 -->
<g id="edge10" class="edge">
<title>Node1&#45;&gt;Node4</title>
<path fill="none" stroke="midnightblue" d="M378.58,-231.4C321.21,-228.1 226.57,-218.12 151.06,-188 74.44,-157.44 37.72,-150.86 3.06,-76 -14.48,-38.1 52.83,-20.89 90.39,-14.36"/>
<polygon fill="midnightblue" stroke="midnightblue" points="378.68,-234.91 388.85,-231.94 379.05,-227.91 378.68,-234.91"/>
</g>
<!-- Node5 -->
<g id="node5" class="node">
<title>Node5</title>
<g id="a_node5"><a xlink:href="MNACircuit_8h.html" target="_top" xlink:title=" ">
<polygon fill="white" stroke="black" points="180.06,-56.5 180.06,-75.5 254.06,-75.5 254.06,-56.5 180.06,-56.5"/>
<text text-anchor="middle" x="217.06" y="-63.5" font-family="Helvetica" font-size="10.00">MNACircuit.h</text>
</a>
</g>
</g>
<!-- Node1&#45;&gt;Node5 -->
<g id="edge11" class="edge">
<title>Node1&#45;&gt;Node5</title>
<path fill="none" stroke="midnightblue" d="M410.83,-218.01C367.31,-184.1 262.39,-102.32 228.1,-75.61"/>
<polygon fill="midnightblue" stroke="midnightblue" points="408.87,-220.92 418.91,-224.31 413.17,-215.4 408.87,-220.92"/>
</g>
<!-- Node7 -->
<g id="node7" class="node">
<title>Node7</title>
<g id="a_node7"><a xlink:href="main_8cpp.html" target="_top" xlink:title=" ">
<polygon fill="white" stroke="black" points="384.06,-0.5 384.06,-19.5 440.06,-19.5 440.06,-0.5 384.06,-0.5"/>
<text text-anchor="middle" x="412.06" y="-7.5" font-family="Helvetica" font-size="10.00">main.cpp</text>
</a>
</g>
</g>
<!-- Node1&#45;&gt;Node7 -->
<g id="edge33" class="edge">
<title>Node1&#45;&gt;Node7</title>
<path fill="none" stroke="midnightblue" d="M428.54,-214.3C424.84,-168.64 415.45,-52.85 412.78,-19.88"/>
<polygon fill="midnightblue" stroke="midnightblue" points="425.06,-214.61 429.35,-224.3 432.03,-214.05 425.06,-214.61"/>
</g>
<!-- Node8 -->
<g id="node8" class="node">
<title>Node8</title>
<g id="a_node8"><a xlink:href="Test__MNA_8cpp.html" target="_top" xlink:title=" ">
<polygon fill="white" stroke="black" points="543.56,-0.5 543.56,-19.5 624.56,-19.5 624.56,-0.5 543.56,-0.5"/>
<text text-anchor="middle" x="584.06" y="-7.5" font-family="Helvetica" font-size="10.00">Test_MNA.cpp</text>
</a>
</g>
</g>
<!-- Node1&#45;&gt;Node8 -->
<g id="edge34" class="edge">
<title>Node1&#45;&gt;Node8</title>
<path fill="none" stroke="midnightblue" d="M462.25,-220.58C511.69,-199.5 604.45,-151.49 641.06,-76 652.45,-52.5 622.03,-30.92 601.37,-19.5"/>
<polygon fill="midnightblue" stroke="midnightblue" points="460.86,-217.37 452.96,-224.44 463.54,-223.83 460.86,-217.37"/>
</g>
<!-- Node10 -->
<g id="node10" class="node">
<title>Node10</title>
<g id="a_node10"><a xlink:href="MNAElement_8cpp.html" target="_top" xlink:title=" ">
<polygon fill="white" stroke="black" points="688.06,-168.5 688.06,-187.5 780.06,-187.5 780.06,-168.5 688.06,-168.5"/>
<text text-anchor="middle" x="734.06" y="-175.5" font-family="Helvetica" font-size="10.00">MNAComponent.cpp</text>
</a>
</g>
</g>
<!-- Node1&#45;&gt;Node10 -->
<g id="edge12" class="edge">
<title>Node1&#45;&gt;Node10</title>
<path fill="none" stroke="midnightblue" d="M481.39,-223.88C539.18,-213.62 632.26,-197.08 687.86,-187.21"/>
<polygon fill="midnightblue" stroke="midnightblue" points="480.61,-220.47 471.38,-225.66 481.83,-227.36 480.61,-220.47"/>
</g>
<!-- Node11 -->
<g id="node11" class="node">
<title>Node11</title>
<g id="a_node11"><a xlink:href="MNASolution_8h.html" target="_top" xlink:title=" ">
<polygon fill="white" stroke="black" points="320.06,-112.5 320.06,-131.5 402.06,-131.5 402.06,-112.5 320.06,-112.5"/>
<text text-anchor="middle" x="361.06" y="-119.5" font-family="Helvetica" font-size="10.00">MNASolution.h</text>
</a>
</g>
</g>
<!-- Node1&#45;&gt;Node11 -->
<g id="edge13" class="edge">
<title>Node1&#45;&gt;Node11</title>
<path fill="none" stroke="midnightblue" d="M419.17,-215.64C404.18,-191.74 377.76,-149.63 366.45,-131.59"/>
<polygon fill="midnightblue" stroke="midnightblue" points="416.37,-217.76 424.65,-224.37 422.3,-214.04 416.37,-217.76"/>
</g>
<!-- Node13 -->
<g id="node13" class="node">
<title>Node13</title>
<g id="a_node13"><a xlink:href="Unknown_8h.html" target="_top" xlink:title=" ">
<polygon fill="white" stroke="black" points="160.06,-168.5 160.06,-187.5 226.06,-187.5 226.06,-168.5 160.06,-168.5"/>
<text text-anchor="middle" x="193.06" y="-175.5" font-family="Helvetica" font-size="10.00">Unknown.h</text>
</a>
</g>
</g>
<!-- Node1&#45;&gt;Node13 -->
<g id="edge19" class="edge">
<title>Node1&#45;&gt;Node13</title>
<path fill="none" stroke="midnightblue" d="M382.7,-222.21C336.36,-211.65 266.97,-195.84 226.23,-186.56"/>
<polygon fill="midnightblue" stroke="midnightblue" points="381.98,-225.63 392.51,-224.44 383.53,-218.81 381.98,-225.63"/>
</g>
<!-- Node15 -->
<g id="node15" class="node">
<title>Node15</title>
<g id="a_node15"><a xlink:href="Battery_8h.html" target="_top" xlink:title=" ">
<polygon fill="white" stroke="black" points="458.06,-56.5 458.06,-75.5 514.06,-75.5 514.06,-56.5 458.06,-56.5"/>
<text text-anchor="middle" x="486.06" y="-63.5" font-family="Helvetica" font-size="10.00">Battery.h</text>
</a>
</g>
</g>
<!-- Node1&#45;&gt;Node15 -->
<g id="edge22" class="edge">
<title>Node1&#45;&gt;Node15</title>
<path fill="none" stroke="midnightblue" d="M436.34,-214.39C448.42,-178.59 474.47,-101.34 483.17,-75.57"/>
<polygon fill="midnightblue" stroke="midnightblue" points="432.95,-213.48 433.07,-224.08 439.58,-215.72 432.95,-213.48"/>
</g>
<!-- Node17 -->
<g id="node17" class="node">
<title>Node17</title>
<g id="a_node17"><a xlink:href="CurrentSource_8h.html" target="_top" xlink:title=" ">
<polygon fill="white" stroke="black" points="798.06,-168.5 798.06,-187.5 886.06,-187.5 886.06,-168.5 798.06,-168.5"/>
<text text-anchor="middle" x="842.06" y="-175.5" font-family="Helvetica" font-size="10.00">CurrentSource.h</text>
</a>
</g>
</g>
<!-- Node1&#45;&gt;Node17 -->
<g id="edge27" class="edge">
<title>Node1&#45;&gt;Node17</title>
<path fill="none" stroke="midnightblue" d="M481.61,-227.25C551.42,-219.31 679.86,-204.11 789.06,-188 791.92,-187.58 794.87,-187.13 797.84,-186.66"/>
<polygon fill="midnightblue" stroke="midnightblue" points="480.87,-223.81 471.33,-228.42 481.66,-230.77 480.87,-223.81"/>
</g>
<!-- Node19 -->
<g id="node19" class="node">
<title>Node19</title>
<g id="a_node19"><a xlink:href="Resistor_8h.html" target="_top" xlink:title=" ">
<polygon fill="white" stroke="black" points="570.56,-56.5 570.56,-75.5 631.56,-75.5 631.56,-56.5 570.56,-56.5"/>
<text text-anchor="middle" x="601.06" y="-63.5" font-family="Helvetica" font-size="10.00">Resistor.h</text>
</a>
</g>
</g>
<!-- Node1&#45;&gt;Node19 -->
<g id="edge29" class="edge">
<title>Node1&#45;&gt;Node19</title>
<path fill="none" stroke="midnightblue" d="M446.45,-217.09C481.96,-182.62 565,-102.01 592.23,-75.57"/>
<polygon fill="midnightblue" stroke="midnightblue" points="443.99,-214.6 439.25,-224.08 448.87,-219.62 443.99,-214.6"/>
</g>
<!-- Node3 -->
<g id="node3" class="node">
<title>Node3</title>
<g id="a_node3"><a xlink:href="Equation_8cpp.html" target="_top" xlink:title=" ">
<polygon fill="white" stroke="black" points="12.06,-56.5 12.06,-75.5 86.06,-75.5 86.06,-56.5 12.06,-56.5"/>
<text text-anchor="middle" x="49.06" y="-63.5" font-family="Helvetica" font-size="10.00">Equation.cpp</text>
</a>
</g>
</g>
<!-- Node2&#45;&gt;Node3 -->
<g id="edge2" class="edge">
<title>Node2&#45;&gt;Node3</title>
<path fill="none" stroke="midnightblue" d="M170.89,-109.17C141.52,-99 99.86,-84.59 73.66,-75.52"/>
<polygon fill="midnightblue" stroke="midnightblue" points="169.75,-112.48 180.34,-112.44 172.04,-105.86 169.75,-112.48"/>
</g>
<!-- Node2&#45;&gt;Node4 -->
<g id="edge3" class="edge">
<title>Node2&#45;&gt;Node4</title>
<path fill="none" stroke="midnightblue" d="M177.31,-107.63C163.89,-99.97 148.48,-89.24 138.06,-76 124.52,-58.79 118.1,-33.2 115.52,-19.84"/>
<polygon fill="midnightblue" stroke="midnightblue" points="175.73,-110.76 186.19,-112.43 179.06,-104.6 175.73,-110.76"/>
</g>
<!-- Node2&#45;&gt;Node5 -->
<g id="edge4" class="edge">
<title>Node2&#45;&gt;Node5</title>
<path fill="none" stroke="midnightblue" d="M209.26,-102.1C211.25,-93.14 213.54,-82.86 215.12,-75.75"/>
<polygon fill="midnightblue" stroke="midnightblue" points="205.79,-101.56 207.04,-112.08 212.63,-103.08 205.79,-101.56"/>
</g>
<!-- Node5&#45;&gt;Node4 -->
<g id="edge5" class="edge">
<title>Node5&#45;&gt;Node4</title>
<path fill="none" stroke="midnightblue" d="M191.48,-51.59C172.44,-41.61 147,-28.27 130.57,-19.65"/>
<polygon fill="midnightblue" stroke="midnightblue" points="190.03,-54.78 200.51,-56.32 193.28,-48.58 190.03,-54.78"/>
</g>
<!-- Node6 -->
<g id="node6" class="node">
<title>Node6</title>
<g id="a_node6"><a xlink:href="MNACircuit_8cpp.html" target="_top" xlink:title=" ">
<polygon fill="white" stroke="black" points="156.06,-0.5 156.06,-19.5 240.06,-19.5 240.06,-0.5 156.06,-0.5"/>
<text text-anchor="middle" x="198.06" y="-7.5" font-family="Helvetica" font-size="10.00">MNACircuit.cpp</text>
</a>
</g>
</g>
<!-- Node5&#45;&gt;Node6 -->
<g id="edge6" class="edge">
<title>Node5&#45;&gt;Node6</title>
<path fill="none" stroke="midnightblue" d="M210.51,-46.4C207.34,-37.36 203.67,-26.94 201.14,-19.75"/>
<polygon fill="midnightblue" stroke="midnightblue" points="207.3,-47.81 213.92,-56.08 213.91,-45.49 207.3,-47.81"/>
</g>
<!-- Node5&#45;&gt;Node7 -->
<g id="edge7" class="edge">
<title>Node5&#45;&gt;Node7</title>
<path fill="none" stroke="midnightblue" d="M257.63,-53.76C295.39,-43.31 350.67,-28 383.84,-18.82"/>
<polygon fill="midnightblue" stroke="midnightblue" points="256.66,-50.4 247.96,-56.44 258.53,-57.15 256.66,-50.4"/>
</g>
<!-- Node5&#45;&gt;Node8 -->
<g id="edge8" class="edge">
<title>Node5&#45;&gt;Node8</title>
<path fill="none" stroke="midnightblue" d="M264.2,-55.9C385.11,-36.41 417.79,-38.52 535.06,-20 537.79,-19.57 540.61,-19.1 543.45,-18.62"/>
<polygon fill="midnightblue" stroke="midnightblue" points="263.49,-52.47 254.18,-57.53 264.61,-59.38 263.49,-52.47"/>
</g>
<!-- Node9 -->
<g id="node9" class="node">
<title>Node9</title>
<g id="a_node9"><a xlink:href="Test__MNACircuit_8cpp.html" target="_top" xlink:title=" ">
<polygon fill="white" stroke="black" points="258.06,-0.5 258.06,-19.5 366.06,-19.5 366.06,-0.5 258.06,-0.5"/>
<text text-anchor="middle" x="312.06" y="-7.5" font-family="Helvetica" font-size="10.00">Test_MNACircuit.cpp</text>
</a>
</g>
</g>
<!-- Node5&#45;&gt;Node9 -->
<g id="edge9" class="edge">
<title>Node5&#45;&gt;Node9</title>
<path fill="none" stroke="midnightblue" d="M241.38,-51.18C258.86,-41.24 281.89,-28.15 296.83,-19.65"/>
<polygon fill="midnightblue" stroke="midnightblue" points="239.29,-48.34 232.32,-56.32 242.75,-54.43 239.29,-48.34"/>
</g>
<!-- Node11&#45;&gt;Node4 -->
<g id="edge14" class="edge">
<title>Node11&#45;&gt;Node4</title>
<path fill="none" stroke="midnightblue" d="M309.68,-117.38C269.51,-112.61 213.54,-101.57 171.06,-76 147.14,-61.61 127.89,-33.82 119.15,-19.69"/>
<polygon fill="midnightblue" stroke="midnightblue" points="309.47,-120.87 319.79,-118.48 310.23,-113.92 309.47,-120.87"/>
</g>
<!-- Node11&#45;&gt;Node5 -->
<g id="edge15" class="edge">
<title>Node11&#45;&gt;Node5</title>
<path fill="none" stroke="midnightblue" d="M328.81,-108.91C301.74,-98.75 263.74,-84.51 239.77,-75.52"/>
<polygon fill="midnightblue" stroke="midnightblue" points="327.65,-112.21 338.24,-112.44 330.11,-105.66 327.65,-112.21"/>
</g>
<!-- Node11&#45;&gt;Node7 -->
<g id="edge17" class="edge">
<title>Node11&#45;&gt;Node7</title>
<path fill="none" stroke="midnightblue" d="M369.41,-103C380.53,-79 399.79,-37.47 408.08,-19.59"/>
<polygon fill="midnightblue" stroke="midnightblue" points="366.09,-101.82 365.06,-112.37 372.44,-104.77 366.09,-101.82"/>
</g>
<!-- Node11&#45;&gt;Node8 -->
<g id="edge18" class="edge">
<title>Node11&#45;&gt;Node8</title>
<path fill="none" stroke="midnightblue" d="M412.13,-114.14C445.54,-107.95 489.11,-96.54 523.06,-76 547.69,-61.1 568.73,-33.54 578.4,-19.58"/>
<polygon fill="midnightblue" stroke="midnightblue" points="411.36,-110.72 402.11,-115.9 412.57,-117.62 411.36,-110.72"/>
</g>
<!-- Node12 -->
<g id="node12" class="node">
<title>Node12</title>
<g id="a_node12"><a xlink:href="MNASolution_8cpp.html" target="_top" xlink:title=" ">
<polygon fill="white" stroke="black" points="272.06,-56.5 272.06,-75.5 364.06,-75.5 364.06,-56.5 272.06,-56.5"/>
<text text-anchor="middle" x="318.06" y="-63.5" font-family="Helvetica" font-size="10.00">MNASolution.cpp</text>
</a>
</g>
</g>
<!-- Node11&#45;&gt;Node12 -->
<g id="edge16" class="edge">
<title>Node11&#45;&gt;Node12</title>
<path fill="none" stroke="midnightblue" d="M347.64,-104.14C340.15,-94.74 331.12,-83.4 325.03,-75.75"/>
<polygon fill="midnightblue" stroke="midnightblue" points="344.99,-106.44 353.96,-112.08 350.47,-102.08 344.99,-106.44"/>
</g>
<!-- Node13&#45;&gt;Node2 -->
<g id="edge20" class="edge">
<title>Node13&#45;&gt;Node2</title>
<path fill="none" stroke="midnightblue" d="M197.26,-158.1C199.25,-149.14 201.54,-138.86 203.12,-131.75"/>
<polygon fill="midnightblue" stroke="midnightblue" points="193.79,-157.56 195.04,-168.08 200.63,-159.08 193.79,-157.56"/>
</g>
<!-- Node14 -->
<g id="node14" class="node">
<title>Node14</title>
<g id="a_node14"><a xlink:href="Unknown_8cpp.html" target="_top" xlink:title=" ">
<polygon fill="white" stroke="black" points="78.56,-112.5 78.56,-131.5 155.56,-131.5 155.56,-112.5 78.56,-112.5"/>
<text text-anchor="middle" x="117.06" y="-119.5" font-family="Helvetica" font-size="10.00">Unknown.cpp</text>
</a>
</g>
</g>
<!-- Node13&#45;&gt;Node14 -->
<g id="edge21" class="edge">
<title>Node13&#45;&gt;Node14</title>
<path fill="none" stroke="midnightblue" d="M172.48,-162.38C158.75,-152.62 141.13,-140.11 129.49,-131.83"/>
<polygon fill="midnightblue" stroke="midnightblue" points="170.67,-165.38 180.85,-168.32 174.73,-159.68 170.67,-165.38"/>
</g>
<!-- Node15&#45;&gt;Node7 -->
<g id="edge24" class="edge">
<title>Node15&#45;&gt;Node7</title>
<path fill="none" stroke="midnightblue" d="M466.03,-50.38C452.65,-40.62 435.5,-28.11 424.17,-19.83"/>
<polygon fill="midnightblue" stroke="midnightblue" points="464.03,-53.26 474.17,-56.32 468.16,-47.6 464.03,-53.26"/>
</g>
<!-- Node15&#45;&gt;Node8 -->
<g id="edge25" class="edge">
<title>Node15&#45;&gt;Node8</title>
<path fill="none" stroke="midnightblue" d="M510.65,-51.45C528.74,-41.48 552.79,-28.23 568.35,-19.65"/>
<polygon fill="midnightblue" stroke="midnightblue" points="508.87,-48.43 501.81,-56.32 512.25,-54.56 508.87,-48.43"/>
</g>
<!-- Node15&#45;&gt;Node9 -->
<g id="edge26" class="edge">
<title>Node15&#45;&gt;Node9</title>
<path fill="none" stroke="midnightblue" d="M448.8,-53.44C415.99,-43.26 368.98,-28.66 339.5,-19.52"/>
<polygon fill="midnightblue" stroke="midnightblue" points="447.9,-56.82 458.49,-56.44 449.98,-50.14 447.9,-56.82"/>
</g>
<!-- Node16 -->
<g id="node16" class="node">
<title>Node16</title>
<g id="a_node16"><a xlink:href="Battery_8cpp.html" target="_top" xlink:title=" ">
<polygon fill="white" stroke="black" points="458.56,-0.5 458.56,-19.5 525.56,-19.5 525.56,-0.5 458.56,-0.5"/>
<text text-anchor="middle" x="492.06" y="-7.5" font-family="Helvetica" font-size="10.00">Battery.cpp</text>
</a>
</g>
</g>
<!-- Node15&#45;&gt;Node16 -->
<g id="edge23" class="edge">
<title>Node15&#45;&gt;Node16</title>
<path fill="none" stroke="midnightblue" d="M488.16,-46.1C489.16,-37.14 490.3,-26.86 491.09,-19.75"/>
<polygon fill="midnightblue" stroke="midnightblue" points="484.68,-45.76 487.05,-56.08 491.63,-46.53 484.68,-45.76"/>
</g>
<!-- Node18 -->
<g id="node18" class="node">
<title>Node18</title>
<g id="a_node18"><a xlink:href="CurrentSource_8cpp.html" target="_top" xlink:title=" ">
<polygon fill="white" stroke="black" points="793.06,-112.5 793.06,-131.5 891.06,-131.5 891.06,-112.5 793.06,-112.5"/>
<text text-anchor="middle" x="842.06" y="-119.5" font-family="Helvetica" font-size="10.00">CurrentSource.cpp</text>
</a>
</g>
</g>
<!-- Node17&#45;&gt;Node18 -->
<g id="edge28" class="edge">
<title>Node17&#45;&gt;Node18</title>
<path fill="none" stroke="midnightblue" d="M842.06,-157.8C842.06,-148.91 842.06,-138.78 842.06,-131.75"/>
<polygon fill="midnightblue" stroke="midnightblue" points="838.56,-158.08 842.06,-168.08 845.56,-158.08 838.56,-158.08"/>
</g>
<!-- Node19&#45;&gt;Node7 -->
<g id="edge31" class="edge">
<title>Node19&#45;&gt;Node7</title>
<path fill="none" stroke="midnightblue" d="M561.36,-53.66C525.12,-43.3 472.45,-28.25 440.32,-19.08"/>
<polygon fill="midnightblue" stroke="midnightblue" points="560.54,-57.06 571.11,-56.44 562.46,-50.33 560.54,-57.06"/>
</g>
<!-- Node19&#45;&gt;Node8 -->
<g id="edge32" class="edge">
<title>Node19&#45;&gt;Node8</title>
<path fill="none" stroke="midnightblue" d="M595.2,-46.4C592.36,-37.36 589.08,-26.94 586.82,-19.75"/>
<polygon fill="midnightblue" stroke="midnightblue" points="591.91,-47.6 598.25,-56.08 598.59,-45.49 591.91,-47.6"/>
</g>
<!-- Node20 -->
<g id="node20" class="node">
<title>Node20</title>
<g id="a_node20"><a xlink:href="Resistor_8cpp.html" target="_top" xlink:title=" ">
<polygon fill="white" stroke="black" points="642.56,-0.5 642.56,-19.5 713.56,-19.5 713.56,-0.5 642.56,-0.5"/>
<text text-anchor="middle" x="678.06" y="-7.5" font-family="Helvetica" font-size="10.00">Resistor.cpp</text>
</a>
</g>
</g>
<!-- Node19&#45;&gt;Node20 -->
<g id="edge30" class="edge">
<title>Node19&#45;&gt;Node20</title>
<path fill="none" stroke="midnightblue" d="M621.96,-50.34C635.97,-40.52 653.94,-27.91 665.72,-19.65"/>
<polygon fill="midnightblue" stroke="midnightblue" points="619.61,-47.72 613.43,-56.32 623.63,-53.45 619.61,-47.72"/>
</g>
</g>
</svg>
        <g id="navigator" transform="translate(0 0)" fill="#404254">
                <rect fill="#f2f5e9" fill-opacity="0.5" stroke="#606060" stroke-width=".5" x="0" y="0" width="60" height="60"/>
                <use id="zoomplus" xlink:href="#zoomPlus" x="17" y="9" onmousedown="handleZoom(evt,'in')"/>
                <use id="zoomminus" xlink:href="#zoomMin" x="42" y="9" onmousedown="handleZoom(evt,'out')"/>
                <use id="reset" xlink:href="#resetDef" x="30" y="36" onmousedown="handleReset()"/>
                <g id="arrowUp" xlink:href="#dirArrow" transform="translate(30 24)" onmousedown="handlePan(0,-1)">
                  <use xlink:href="#rim" fill="#404040">
                        <set attributeName="fill" to="#808080" begin="arrowUp.mouseover" end="arrowUp.mouseout"/>
                  </use>
                  <path fill="none" stroke="white" stroke-width="1.5" d="M0,-3.0v7 M-2.5,-0.5L0,-3.0L2.5,-0.5"/>
                </g>
                <g id="arrowRight" xlink:href="#dirArrow" transform="rotate(90) translate(36 -43)" onmousedown="handlePan(1,0)">
                  <use xlink:href="#rim" fill="#404040">
                        <set attributeName="fill" to="#808080" begin="arrowRight.mouseover" end="arrowRight.mouseout"/>
                  </use>
                  <path fill="none" stroke="white" stroke-width="1.5" d="M0,-3.0v7 M-2.5,-0.5L0,-3.0L2.5,-0.5"/>
                </g>
                <g id="arrowDown" xlink:href="#dirArrow" transform="rotate(180) translate(-30 -48)" onmousedown="handlePan(0,1)">
                  <use xlink:href="#rim" fill="#404040">
                        <set attributeName="fill" to="#808080" begin="arrowDown.mouseover" end="arrowDown.mouseout"/>
                  </use>
                  <path fill="none" stroke="white" stroke-width="1.5" d="M0,-3.0v7 M-2.5,-0.5L0,-3.0L2.5,-0.5"/>
                </g>
                <g id="arrowLeft" xlink:href="#dirArrow" transform="rotate(270) translate(-36 17)" onmousedown="handlePan(-1,0)">
                  <use xlink:href="#rim" fill="#404040">
                        <set attributeName="fill" to="#808080" begin="arrowLeft.mouseover" end="arrowLeft.mouseout"/>
                  </use>
                  <path fill="none" stroke="white" stroke-width="1.5" d="M0,-3.0v7 M-2.5,-0.5L0,-3.0L2.5,-0.5"/>
                </g>
        </g>
        <svg viewBox="0 0 15 15" width="100%" height="30px" preserveAspectRatio="xMaxYMin meet">
         <g id="arrow_out" transform="scale(0.3 0.3)">
          <a xlink:href="MNAElement_8h__dep__incl_org.svg" target="_base">
           <rect id="button" ry="5" rx="5" y="6" x="6" height="38" width="38"
                fill="#f2f5e9" fill-opacity="0.5" stroke="#606060" stroke-width="1.0"/>
           <path id="arrow"
             d="M 11.500037,31.436501 C 11.940474,20.09759 22.043105,11.32322 32.158766,21.979434 L 37.068811,17.246167 C 37.068811,17.246167 37.088388,32 37.088388,32 L 22.160133,31.978069 C 22.160133,31.978069 26.997745,27.140456 26.997745,27.140456 C 18.528582,18.264221 13.291696,25.230495 11.500037,31.436501 z"
             style="fill:#404040;"/>
          </a>
         </g>
        </svg>
</svg>
