<?xml version="1.0" encoding="UTF-8" standalone="no"?>
<!DOCTYPE svg PUBLIC "-//W3C//DTD SVG 1.1//EN"
 "http://www.w3.org/Graphics/SVG/1.1/DTD/svg11.dtd">
<!-- Generated by graphviz version 2.44.0 (0)
 -->
<!-- Title: MNASolution.h Pages: 1 -->
<svg width="264pt" height="140pt"
 viewBox="0.00 0.00 263.50 140.00" xmlns="http://www.w3.org/2000/svg" xmlns:xlink="http://www.w3.org/1999/xlink">
<g id="graph0" class="graph" transform="scale(1 1) rotate(0) translate(4 136)">
<title>MNASolution.h</title>
<polygon fill="white" stroke="transparent" points="-4,4 -4,-136 259.5,-136 259.5,4 -4,4"/>
<!-- Node1 -->
<g id="node1" class="node">
<title>Node1</title>
<g id="a_node1"><a xlink:title=" ">
<polygon fill="#bfbfbf" stroke="black" points="63.5,-112.5 63.5,-131.5 145.5,-131.5 145.5,-112.5 63.5,-112.5"/>
<text text-anchor="middle" x="104.5" y="-119.5" font-family="Helvetica" font-size="10.00">MNASolution.h</text>
</a>
</g>
</g>
<!-- Node2 -->
<g id="node2" class="node">
<title>Node2</title>
<g id="a_node2"><a xlink:title=" ">
<polygon fill="white" stroke="#bfbfbf" points="0,-56.5 0,-75.5 35,-75.5 35,-56.5 0,-56.5"/>
<text text-anchor="middle" x="17.5" y="-63.5" font-family="Helvetica" font-size="10.00">map</text>
</a>
</g>
</g>
<!-- Node1&#45;&gt;Node2 -->
<g id="edge1" class="edge">
<title>Node1&#45;&gt;Node2</title>
<path fill="none" stroke="midnightblue" d="M90.52,-112.32C76.95,-103.9 56.12,-90.97 40.18,-81.07"/>
<polygon fill="midnightblue" stroke="midnightblue" points="41.79,-77.95 31.44,-75.65 38.09,-83.9 41.79,-77.95"/>
</g>
<!-- Node3 -->
<g id="node3" class="node">
<title>Node3</title>
<g id="a_node3"><a xlink:title=" ">
<polygon fill="white" stroke="#bfbfbf" points="53,-56.5 53,-75.5 96,-75.5 96,-56.5 53,-56.5"/>
<text text-anchor="middle" x="74.5" y="-63.5" font-family="Helvetica" font-size="10.00">vector</text>
</a>
</g>
</g>
<!-- Node1&#45;&gt;Node3 -->
<g id="edge2" class="edge">
<title>Node1&#45;&gt;Node3</title>
<path fill="none" stroke="midnightblue" d="M99.55,-112.08C95.4,-104.61 89.35,-93.72 84.23,-84.52"/>
<polygon fill="midnightblue" stroke="midnightblue" points="87.28,-82.79 79.36,-75.75 81.16,-86.19 87.28,-82.79"/>
</g>
<!-- Node4 -->
<g id="node4" class="node">
<title>Node4</title>
<g id="a_node4"><a xlink:title=" ">
<polygon fill="white" stroke="#bfbfbf" points="114,-56.5 114,-75.5 155,-75.5 155,-56.5 114,-56.5"/>
<text text-anchor="middle" x="134.5" y="-63.5" font-family="Helvetica" font-size="10.00">string</text>
</a>
</g>
</g>
<!-- Node1&#45;&gt;Node4 -->
<g id="edge3" class="edge">
<title>Node1&#45;&gt;Node4</title>
<path fill="none" stroke="midnightblue" d="M109.45,-112.08C113.6,-104.61 119.65,-93.72 124.77,-84.52"/>
<polygon fill="midnightblue" stroke="midnightblue" points="127.84,-86.19 129.64,-75.75 121.72,-82.79 127.84,-86.19"/>
</g>
<!-- Node5 -->
<g id="node5" class="node">
<title>Node5</title>
<g id="a_node5"><a xlink:href="MNAElement_8h.html" target="_top" xlink:title=" ">
<polygon fill="white" stroke="black" points="173.5,-56.5 173.5,-75.5 255.5,-75.5 255.5,-56.5 173.5,-56.5"/>
<text text-anchor="middle" x="214.5" y="-63.5" font-family="Helvetica" font-size="10.00">MNAComponent.h</text>
</a>
</g>
</g>
<!-- Node1&#45;&gt;Node5 -->
<g id="edge4" class="edge">
<title>Node1&#45;&gt;Node5</title>
<path fill="none" stroke="midnightblue" d="M122.17,-112.32C139.89,-103.62 167.4,-90.12 187.79,-80.11"/>
<polygon fill="midnightblue" stroke="midnightblue" points="189.44,-83.2 196.87,-75.65 186.35,-76.92 189.44,-83.2"/>
</g>
<!-- Node6 -->
<g id="node6" class="node">
<title>Node6</title>
<g id="a_node6"><a xlink:title=" ">
<polygon fill="white" stroke="#bfbfbf" points="192.5,-0.5 192.5,-19.5 236.5,-19.5 236.5,-0.5 192.5,-0.5"/>
<text text-anchor="middle" x="214.5" y="-7.5" font-family="Helvetica" font-size="10.00">cmath</text>
</a>
</g>
</g>
<!-- Node5&#45;&gt;Node6 -->
<g id="edge5" class="edge">
<title>Node5&#45;&gt;Node6</title>
<path fill="none" stroke="midnightblue" d="M214.5,-56.08C214.5,-49.01 214.5,-38.86 214.5,-29.99"/>
<polygon fill="midnightblue" stroke="midnightblue" points="218,-29.75 214.5,-19.75 211,-29.75 218,-29.75"/>
</g>
</g>
</svg>
