<?xml version="1.0" encoding="UTF-8" standalone="no"?>
<!DOCTYPE svg PUBLIC "-//W3C//DTD SVG 1.1//EN"
 "http://www.w3.org/Graphics/SVG/1.1/DTD/svg11.dtd">
<!-- Generated by graphviz version 2.44.0 (0)
 -->
<!-- Title: MNASolution.h Pages: 1 -->
<svg width="482pt" height="140pt"
 viewBox="0.00 0.00 481.50 140.00" xmlns="http://www.w3.org/2000/svg" xmlns:xlink="http://www.w3.org/1999/xlink">
<g id="graph0" class="graph" transform="scale(1 1) rotate(0) translate(4 136)">
<title>MNASolution.h</title>
<polygon fill="white" stroke="transparent" points="-4,4 -4,-136 477.5,-136 477.5,4 -4,4"/>
<!-- Node1 -->
<g id="node1" class="node">
<title>Node1</title>
<g id="a_node1"><a xlink:title=" ">
<polygon fill="#bfbfbf" stroke="black" points="274.5,-112.5 274.5,-131.5 356.5,-131.5 356.5,-112.5 274.5,-112.5"/>
<text text-anchor="middle" x="315.5" y="-119.5" font-family="Helvetica" font-size="10.00">MNASolution.h</text>
</a>
</g>
</g>
<!-- Node2 -->
<g id="node2" class="node">
<title>Node2</title>
<g id="a_node2"><a xlink:href="MNA_8h.html" target="_top" xlink:title=" ">
<polygon fill="white" stroke="black" points="0,-0.5 0,-19.5 47,-19.5 47,-0.5 0,-0.5"/>
<text text-anchor="middle" x="23.5" y="-7.5" font-family="Helvetica" font-size="10.00">MNA.h</text>
</a>
</g>
</g>
<!-- Node1&#45;&gt;Node2 -->
<g id="edge1" class="edge">
<title>Node1&#45;&gt;Node2</title>
<path fill="none" stroke="midnightblue" d="M282.52,-108.95C257.95,-99.95 223.59,-87.3 193.5,-76 140.4,-56.06 78.19,-32.12 45.75,-19.6"/>
<polygon fill="midnightblue" stroke="midnightblue" points="281.49,-112.3 292.08,-112.46 283.89,-105.73 281.49,-112.3"/>
</g>
<!-- Node3 -->
<g id="node3" class="node">
<title>Node3</title>
<g id="a_node3"><a xlink:href="MNACircuit_8h.html" target="_top" xlink:title=" ">
<polygon fill="white" stroke="black" points="202.5,-56.5 202.5,-75.5 276.5,-75.5 276.5,-56.5 202.5,-56.5"/>
<text text-anchor="middle" x="239.5" y="-63.5" font-family="Helvetica" font-size="10.00">MNACircuit.h</text>
</a>
</g>
</g>
<!-- Node1&#45;&gt;Node3 -->
<g id="edge2" class="edge">
<title>Node1&#45;&gt;Node3</title>
<path fill="none" stroke="midnightblue" d="M294.92,-106.38C281.19,-96.62 263.57,-84.11 251.93,-75.83"/>
<polygon fill="midnightblue" stroke="midnightblue" points="293.11,-109.38 303.29,-112.32 297.16,-103.68 293.11,-109.38"/>
</g>
<!-- Node5 -->
<g id="node5" class="node">
<title>Node5</title>
<g id="a_node5"><a xlink:href="main_8cpp.html" target="_top" xlink:title=" ">
<polygon fill="white" stroke="black" points="293.5,-0.5 293.5,-19.5 349.5,-19.5 349.5,-0.5 293.5,-0.5"/>
<text text-anchor="middle" x="321.5" y="-7.5" font-family="Helvetica" font-size="10.00">main.cpp</text>
</a>
</g>
</g>
<!-- Node1&#45;&gt;Node5 -->
<g id="edge9" class="edge">
<title>Node1&#45;&gt;Node5</title>
<path fill="none" stroke="midnightblue" d="M316.52,-102.35C317.83,-78.25 320.07,-37.31 321.03,-19.59"/>
<polygon fill="midnightblue" stroke="midnightblue" points="313.02,-102.19 315.97,-112.37 320.01,-102.57 313.02,-102.19"/>
</g>
<!-- Node6 -->
<g id="node6" class="node">
<title>Node6</title>
<g id="a_node6"><a xlink:href="Test__MNA_8cpp.html" target="_top" xlink:title=" ">
<polygon fill="white" stroke="black" points="368,-0.5 368,-19.5 449,-19.5 449,-0.5 368,-0.5"/>
<text text-anchor="middle" x="408.5" y="-7.5" font-family="Helvetica" font-size="10.00">Test_MNA.cpp</text>
</a>
</g>
</g>
<!-- Node1&#45;&gt;Node6 -->
<g id="edge10" class="edge">
<title>Node1&#45;&gt;Node6</title>
<path fill="none" stroke="midnightblue" d="M329.38,-104.59C349.43,-80.87 385.78,-37.87 401.24,-19.59"/>
<polygon fill="midnightblue" stroke="midnightblue" points="326.58,-102.47 322.8,-112.37 331.93,-106.99 326.58,-102.47"/>
</g>
<!-- Node8 -->
<g id="node8" class="node">
<title>Node8</title>
<g id="a_node8"><a xlink:href="MNASolution_8cpp.html" target="_top" xlink:title=" ">
<polygon fill="white" stroke="black" points="381.5,-56.5 381.5,-75.5 473.5,-75.5 473.5,-56.5 381.5,-56.5"/>
<text text-anchor="middle" x="427.5" y="-63.5" font-family="Helvetica" font-size="10.00">MNASolution.cpp</text>
</a>
</g>
</g>
<!-- Node1&#45;&gt;Node8 -->
<g id="edge8" class="edge">
<title>Node1&#45;&gt;Node8</title>
<path fill="none" stroke="midnightblue" d="M342.75,-107.86C363.52,-97.85 391.52,-84.35 409.55,-75.65"/>
<polygon fill="midnightblue" stroke="midnightblue" points="340.98,-104.83 333.49,-112.32 344.02,-111.13 340.98,-104.83"/>
</g>
<!-- Node3&#45;&gt;Node2 -->
<g id="edge3" class="edge">
<title>Node3&#45;&gt;Node2</title>
<path fill="none" stroke="midnightblue" d="M193.67,-54.07C156.6,-45.15 103.11,-32.08 56.5,-20 53.51,-19.23 50.37,-18.39 47.27,-17.56"/>
<polygon fill="midnightblue" stroke="midnightblue" points="193.12,-57.54 203.67,-56.47 194.76,-50.73 193.12,-57.54"/>
</g>
<!-- Node4 -->
<g id="node4" class="node">
<title>Node4</title>
<g id="a_node4"><a xlink:href="MNACircuit_8cpp.html" target="_top" xlink:title=" ">
<polygon fill="white" stroke="black" points="191.5,-0.5 191.5,-19.5 275.5,-19.5 275.5,-0.5 191.5,-0.5"/>
<text text-anchor="middle" x="233.5" y="-7.5" font-family="Helvetica" font-size="10.00">MNACircuit.cpp</text>
</a>
</g>
</g>
<!-- Node3&#45;&gt;Node4 -->
<g id="edge4" class="edge">
<title>Node3&#45;&gt;Node4</title>
<path fill="none" stroke="midnightblue" d="M237.4,-46.1C236.4,-37.14 235.26,-26.86 234.47,-19.75"/>
<polygon fill="midnightblue" stroke="midnightblue" points="233.93,-46.53 238.51,-56.08 240.88,-45.76 233.93,-46.53"/>
</g>
<!-- Node3&#45;&gt;Node5 -->
<g id="edge5" class="edge">
<title>Node3&#45;&gt;Node5</title>
<path fill="none" stroke="midnightblue" d="M261.33,-50.62C276.31,-40.76 295.7,-27.99 308.36,-19.65"/>
<polygon fill="midnightblue" stroke="midnightblue" points="259.1,-47.9 252.67,-56.32 262.95,-53.75 259.1,-47.9"/>
</g>
<!-- Node3&#45;&gt;Node6 -->
<g id="edge6" class="edge">
<title>Node3&#45;&gt;Node6</title>
<path fill="none" stroke="midnightblue" d="M276.1,-53.3C307.95,-43.13 353.34,-28.62 381.85,-19.52"/>
<polygon fill="midnightblue" stroke="midnightblue" points="274.74,-50.07 266.28,-56.44 276.87,-56.73 274.74,-50.07"/>
</g>
<!-- Node7 -->
<g id="node7" class="node">
<title>Node7</title>
<g id="a_node7"><a xlink:href="Test__MNACircuit_8cpp.html" target="_top" xlink:title=" ">
<polygon fill="white" stroke="black" points="65.5,-0.5 65.5,-19.5 173.5,-19.5 173.5,-0.5 65.5,-0.5"/>
<text text-anchor="middle" x="119.5" y="-7.5" font-family="Helvetica" font-size="10.00">Test_MNACircuit.cpp</text>
</a>
</g>
</g>
<!-- Node3&#45;&gt;Node7 -->
<g id="edge7" class="edge">
<title>Node3&#45;&gt;Node7</title>
<path fill="none" stroke="midnightblue" d="M211.13,-52.23C188.68,-42.13 157.96,-28.31 138.43,-19.52"/>
<polygon fill="midnightblue" stroke="midnightblue" points="209.93,-55.53 220.49,-56.44 212.8,-49.15 209.93,-55.53"/>
</g>
</g>
</svg>
