<?xml version="1.0" encoding="UTF-8" standalone="no"?>
<!DOCTYPE svg PUBLIC "-//W3C//DTD SVG 1.1//EN"
 "http://www.w3.org/Graphics/SVG/1.1/DTD/svg11.dtd">
<!-- Generated by graphviz version 2.44.0 (0)
 -->
<!-- Title: MNASolution.cpp Pages: 1 -->
<svg width="272pt" height="196pt"
 viewBox="0.00 0.00 272.00 196.00" xmlns="http://www.w3.org/2000/svg" xmlns:xlink="http://www.w3.org/1999/xlink">
<g id="graph0" class="graph" transform="scale(1 1) rotate(0) translate(4 192)">
<title>MNASolution.cpp</title>
<polygon fill="white" stroke="transparent" points="-4,4 -4,-192 268,-192 268,4 -4,4"/>
<!-- Node1 -->
<g id="node1" class="node">
<title>Node1</title>
<g id="a_node1"><a xlink:title=" ">
<polygon fill="#bfbfbf" stroke="black" points="24,-168.5 24,-187.5 116,-187.5 116,-168.5 24,-168.5"/>
<text text-anchor="middle" x="70" y="-175.5" font-family="Helvetica" font-size="10.00">MNASolution.cpp</text>
</a>
</g>
</g>
<!-- Node2 -->
<g id="node2" class="node">
<title>Node2</title>
<g id="a_node2"><a xlink:title=" ">
<polygon fill="white" stroke="#bfbfbf" points="0,-112.5 0,-131.5 54,-131.5 54,-112.5 0,-112.5"/>
<text text-anchor="middle" x="27" y="-119.5" font-family="Helvetica" font-size="10.00">iostream</text>
</a>
</g>
</g>
<!-- Node1&#45;&gt;Node2 -->
<g id="edge1" class="edge">
<title>Node1&#45;&gt;Node2</title>
<path fill="none" stroke="midnightblue" d="M62.9,-168.08C56.76,-160.38 47.73,-149.03 40.26,-139.65"/>
<polygon fill="midnightblue" stroke="midnightblue" points="42.94,-137.39 33.97,-131.75 37.46,-141.75 42.94,-137.39"/>
</g>
<!-- Node3 -->
<g id="node3" class="node">
<title>Node3</title>
<g id="a_node3"><a xlink:href="MNASolution_8h.html" target="_top" xlink:title=" ">
<polygon fill="white" stroke="black" points="72,-112.5 72,-131.5 154,-131.5 154,-112.5 72,-112.5"/>
<text text-anchor="middle" x="113" y="-119.5" font-family="Helvetica" font-size="10.00">MNASolution.h</text>
</a>
</g>
</g>
<!-- Node1&#45;&gt;Node3 -->
<g id="edge2" class="edge">
<title>Node1&#45;&gt;Node3</title>
<path fill="none" stroke="midnightblue" d="M77.1,-168.08C83.24,-160.38 92.27,-149.03 99.74,-139.65"/>
<polygon fill="midnightblue" stroke="midnightblue" points="102.54,-141.75 106.03,-131.75 97.06,-137.39 102.54,-141.75"/>
</g>
<!-- Node4 -->
<g id="node4" class="node">
<title>Node4</title>
<g id="a_node4"><a xlink:title=" ">
<polygon fill="white" stroke="#bfbfbf" points="8.5,-56.5 8.5,-75.5 43.5,-75.5 43.5,-56.5 8.5,-56.5"/>
<text text-anchor="middle" x="26" y="-63.5" font-family="Helvetica" font-size="10.00">map</text>
</a>
</g>
</g>
<!-- Node3&#45;&gt;Node4 -->
<g id="edge3" class="edge">
<title>Node3&#45;&gt;Node4</title>
<path fill="none" stroke="midnightblue" d="M99.02,-112.32C85.45,-103.9 64.62,-90.97 48.68,-81.07"/>
<polygon fill="midnightblue" stroke="midnightblue" points="50.29,-77.95 39.94,-75.65 46.59,-83.9 50.29,-77.95"/>
</g>
<!-- Node5 -->
<g id="node5" class="node">
<title>Node5</title>
<g id="a_node5"><a xlink:title=" ">
<polygon fill="white" stroke="#bfbfbf" points="61.5,-56.5 61.5,-75.5 104.5,-75.5 104.5,-56.5 61.5,-56.5"/>
<text text-anchor="middle" x="83" y="-63.5" font-family="Helvetica" font-size="10.00">vector</text>
</a>
</g>
</g>
<!-- Node3&#45;&gt;Node5 -->
<g id="edge4" class="edge">
<title>Node3&#45;&gt;Node5</title>
<path fill="none" stroke="midnightblue" d="M108.05,-112.08C103.9,-104.61 97.85,-93.72 92.73,-84.52"/>
<polygon fill="midnightblue" stroke="midnightblue" points="95.78,-82.79 87.86,-75.75 89.66,-86.19 95.78,-82.79"/>
</g>
<!-- Node6 -->
<g id="node6" class="node">
<title>Node6</title>
<g id="a_node6"><a xlink:title=" ">
<polygon fill="white" stroke="#bfbfbf" points="122.5,-56.5 122.5,-75.5 163.5,-75.5 163.5,-56.5 122.5,-56.5"/>
<text text-anchor="middle" x="143" y="-63.5" font-family="Helvetica" font-size="10.00">string</text>
</a>
</g>
</g>
<!-- Node3&#45;&gt;Node6 -->
<g id="edge5" class="edge">
<title>Node3&#45;&gt;Node6</title>
<path fill="none" stroke="midnightblue" d="M117.95,-112.08C122.1,-104.61 128.15,-93.72 133.27,-84.52"/>
<polygon fill="midnightblue" stroke="midnightblue" points="136.34,-86.19 138.14,-75.75 130.22,-82.79 136.34,-86.19"/>
</g>
<!-- Node7 -->
<g id="node7" class="node">
<title>Node7</title>
<g id="a_node7"><a xlink:href="MNAElement_8h.html" target="_top" xlink:title=" ">
<polygon fill="white" stroke="black" points="182,-56.5 182,-75.5 264,-75.5 264,-56.5 182,-56.5"/>
<text text-anchor="middle" x="223" y="-63.5" font-family="Helvetica" font-size="10.00">MNAElement.h</text>
</a>
</g>
</g>
<!-- Node3&#45;&gt;Node7 -->
<g id="edge6" class="edge">
<title>Node3&#45;&gt;Node7</title>
<path fill="none" stroke="midnightblue" d="M130.67,-112.32C148.39,-103.62 175.9,-90.12 196.29,-80.11"/>
<polygon fill="midnightblue" stroke="midnightblue" points="197.94,-83.2 205.37,-75.65 194.85,-76.92 197.94,-83.2"/>
</g>
<!-- Node8 -->
<g id="node8" class="node">
<title>Node8</title>
<g id="a_node8"><a xlink:title=" ">
<polygon fill="white" stroke="#bfbfbf" points="201,-0.5 201,-19.5 245,-19.5 245,-0.5 201,-0.5"/>
<text text-anchor="middle" x="223" y="-7.5" font-family="Helvetica" font-size="10.00">cmath</text>
</a>
</g>
</g>
<!-- Node7&#45;&gt;Node8 -->
<g id="edge7" class="edge">
<title>Node7&#45;&gt;Node8</title>
<path fill="none" stroke="midnightblue" d="M223,-56.08C223,-49.01 223,-38.86 223,-29.99"/>
<polygon fill="midnightblue" stroke="midnightblue" points="226.5,-29.75 223,-19.75 219.5,-29.75 226.5,-29.75"/>
</g>
</g>
</svg>
