<?xml version="1.0" encoding="UTF-8" standalone="no"?>
<!DOCTYPE svg PUBLIC "-//W3C//DTD SVG 1.1//EN"
 "http://www.w3.org/Graphics/SVG/1.1/DTD/svg11.dtd">
<!-- Generated by graphviz version 2.44.0 (0)
 -->
<!-- Title: Unknown.h Pages: 1 -->
<svg width="150pt" height="140pt"
 viewBox="0.00 0.00 149.50 140.00" xmlns="http://www.w3.org/2000/svg" xmlns:xlink="http://www.w3.org/1999/xlink">
<g id="graph0" class="graph" transform="scale(1 1) rotate(0) translate(4 136)">
<title>Unknown.h</title>
<polygon fill="white" stroke="transparent" points="-4,4 -4,-136 145.5,-136 145.5,4 -4,4"/>
<!-- Node1 -->
<g id="node1" class="node">
<title>Node1</title>
<g id="a_node1"><a xlink:title=" ">
<polygon fill="#bfbfbf" stroke="black" points="27.5,-112.5 27.5,-131.5 93.5,-131.5 93.5,-112.5 27.5,-112.5"/>
<text text-anchor="middle" x="60.5" y="-119.5" font-family="Helvetica" font-size="10.00">Unknown.h</text>
</a>
</g>
</g>
<!-- Node2 -->
<g id="node2" class="node">
<title>Node2</title>
<g id="a_node2"><a xlink:title=" ">
<polygon fill="white" stroke="#bfbfbf" points="0,-56.5 0,-75.5 41,-75.5 41,-56.5 0,-56.5"/>
<text text-anchor="middle" x="20.5" y="-63.5" font-family="Helvetica" font-size="10.00">string</text>
</a>
</g>
</g>
<!-- Node1&#45;&gt;Node2 -->
<g id="edge1" class="edge">
<title>Node1&#45;&gt;Node2</title>
<path fill="none" stroke="midnightblue" d="M53.89,-112.08C48.24,-104.46 39.96,-93.26 33.05,-83.94"/>
<polygon fill="midnightblue" stroke="midnightblue" points="35.75,-81.7 26.98,-75.75 30.12,-85.87 35.75,-81.7"/>
</g>
<!-- Node3 -->
<g id="node3" class="node">
<title>Node3</title>
<g id="a_node3"><a xlink:href="MNAElement_8h.html" target="_top" xlink:title=" ">
<polygon fill="white" stroke="black" points="59.5,-56.5 59.5,-75.5 141.5,-75.5 141.5,-56.5 59.5,-56.5"/>
<text text-anchor="middle" x="100.5" y="-63.5" font-family="Helvetica" font-size="10.00">MNAComponent.h</text>
</a>
</g>
</g>
<!-- Node1&#45;&gt;Node3 -->
<g id="edge2" class="edge">
<title>Node1&#45;&gt;Node3</title>
<path fill="none" stroke="midnightblue" d="M67.11,-112.08C72.76,-104.46 81.04,-93.26 87.95,-83.94"/>
<polygon fill="midnightblue" stroke="midnightblue" points="90.88,-85.87 94.02,-75.75 85.25,-81.7 90.88,-85.87"/>
</g>
<!-- Node4 -->
<g id="node4" class="node">
<title>Node4</title>
<g id="a_node4"><a xlink:title=" ">
<polygon fill="white" stroke="#bfbfbf" points="78.5,-0.5 78.5,-19.5 122.5,-19.5 122.5,-0.5 78.5,-0.5"/>
<text text-anchor="middle" x="100.5" y="-7.5" font-family="Helvetica" font-size="10.00">cmath</text>
</a>
</g>
</g>
<!-- Node3&#45;&gt;Node4 -->
<g id="edge3" class="edge">
<title>Node3&#45;&gt;Node4</title>
<path fill="none" stroke="midnightblue" d="M100.5,-56.08C100.5,-49.01 100.5,-38.86 100.5,-29.99"/>
<polygon fill="midnightblue" stroke="midnightblue" points="104,-29.75 100.5,-19.75 97,-29.75 104,-29.75"/>
</g>
</g>
</svg>
